<?xml version="1.0" encoding="UTF-8" standalone="no"?>
<svg
   version="1.1"
   x="0px"
   y="0px"
   viewBox="0 0 93.06974 80.400002"
   xml:space="preserve"
   id="svg8"
   sodipodi:docname="noun-black-hole-5551295.svg"
   width="93.06974"
   height="80.400002"
   inkscape:version="1.1.1 (1:1.1+202109281949+c3084ef5ed)"
   xmlns:inkscape="http://www.inkscape.org/namespaces/inkscape"
   xmlns:sodipodi="http://sodipodi.sourceforge.net/DTD/sodipodi-0.dtd"
   xmlns="http://www.w3.org/2000/svg"
   xmlns:svg="http://www.w3.org/2000/svg"><defs
     id="defs12" /><sodipodi:namedview
     id="namedview10"
     pagecolor="#ffffff"
     bordercolor="#666666"
     borderopacity="1.0"
     inkscape:pageshadow="2"
     inkscape:pageopacity="0.0"
     inkscape:pagecheckerboard="0"
     showgrid="false"
     fit-margin-top="0"
     fit-margin-left="0"
     fit-margin-right="0"
     fit-margin-bottom="0"
     inkscape:zoom="6.448"
     inkscape:cx="46.836228"
     inkscape:cy="41.408189"
     inkscape:window-width="2560"
     inkscape:window-height="1000"
     inkscape:window-x="1200"
     inkscape:window-y="1080"
     inkscape:window-maximized="1"
     inkscape:current-layer="svg8" /><path
     d="m 21.904052,32.4 c -0.6,1.8 -1,3.7 -1.2,5.6 0,0.1 0.1,0.3 0.2,0.3 0.1,0 0.1,0 0.2,0 0.1,0 0.1,-0.1 0.1,-0.2 0.2,-1.9 0.6,-3.7 1.1,-5.5 0,-0.1 0,-0.3 -0.2,-0.3 0,-0.1 -0.2,0 -0.2,0.1 z m 4.7,-8.4 c -0.4,0.4 -0.7,0.9 -1.1,1.4 -0.1,0.1 -0.1,0.3 0.1,0.3 0.1,0.1 0.2,0.1 0.3,0 0,0 0,0 0.1,-0.1 0.3,-0.5 0.7,-0.9 1,-1.3 0.1,-0.1 0.1,-0.3 0,-0.4 -0.1,-0.1 -0.3,0 -0.4,0.1 z m 0.2,35.3 -0.6,0.4 c 0.5,0.5 1,1 1.5,1.5 0.1,0.1 0.3,0.1 0.5,0 0,0 0,0 0.1,-0.1 0.1,-0.2 0.1,-0.4 0,-0.5 -0.6,-0.4 -1,-0.9 -1.5,-1.3 z m 4.7,-3.4 c 2.9,2.7 6.5,4.6 10.5,5.4 0.1,0 0.2,0 0.3,-0.1 0.1,-0.1 0.1,-0.1 0.2,-0.2 0,-0.2 -0.1,-0.4 -0.3,-0.4 -3.8,-0.7 -7.2,-2.5 -10,-5.1 z m 23.7,-2.3 c -6,4.2 -13.9,3.7 -19.2,-0.8 l -1,0.7 c 5.8,5 14.4,5.6 20.9,1.1 6.5,-4.6 8.9,-12.9 6.2,-20 l -1,0.7 c 2.3,6.5 0.1,14.1 -5.9,18.3 z m -20.7,1.7 c 0.1,0 0.1,0 0,0 0.1,-0.2 0.1,-0.3 0,-0.4 -0.2,-0.2 -0.5,-0.4 -0.7,-0.6 l -0.4,0.3 c 0.3,0.2 0.5,0.5 0.8,0.7 0.1,0.1 0.3,0.1 0.3,0 z m 13.6,-40.2 c -5.9,-0.5 -11.9,1.1 -16.7,4.5 -1.3,0.9 -2.6,2 -3.7,3.1 -0.1,0.1 -0.1,0.3 0,0.4 0.1,0.1 0.3,0.1 0.4,0 1.1,-1.1 2.3,-2.2 3.6,-3.1 4.8,-3.3 10.6,-4.9 16.4,-4.4 0.1,0 0.1,0 0.2,0 0.1,0 0.1,-0.1 0.1,-0.2 0,-0.1 -0.1,-0.2 -0.3,-0.3 z m -4.5,5.5 c 0.1,0 0.2,-0.1 0.3,-0.1 0.2,-0.2 0.3,-0.4 0.3,-0.7 0,-0.4 -0.4,-0.7 -0.8,-0.7 -3.5,0.4 -6.9,1.7 -9.8,3.8 -2.6,1.8 -4.8,4.2 -6.4,7 -0.2,0.4 -0.1,0.8 0.3,1 0.4,0.2 0.8,0.1 1,-0.3 1.5,-2.6 3.5,-4.8 5.9,-6.5 2.8,-1.9 6,-3.1 9.2,-3.5 z m 9.6,-1.4 c 0.2,0.1 0.3,0 0.4,-0.1 0.1,-0.1 0.2,-0.1 0.2,-0.2 0.1,-0.3 -0.1,-0.5 -0.3,-0.6 -5.1,-1.7 -10.7,-1.6 -15.8,0.3 -0.3,0.1 -0.4,0.4 -0.3,0.6 0.1,0.3 0.4,0.4 0.6,0.3 4.9,-1.9 10.3,-2 15.2,-0.3 z m -19.3,7.6 c 0.1,-0.1 0.1,-0.2 0,-0.4 -0.1,-0.1 -0.2,-0.1 -0.4,0 -4.7,4.1 -7,10.3 -6.2,16.5 0,0.1 0.1,0.2 0.3,0.2 0,0 0.1,0 0.1,0 0.1,-0.1 0.1,-0.1 0.1,-0.2 -0.7,-6.1 1.5,-12.1 6.1,-16.1 z m 57.9,-18.2 c -0.2,-0.3 -0.7,-0.4 -1,-0.2 -12,8.4 -19.8,10.7 -23.4,11.3 -1.3,0.2 -2.6,-0.1 -3.6,-1 0,0 0,0 0,0 -4.6,-3.8 -10.5,-6.1 -16.6,-6.4 -0.4,0 -0.8,0.3 -0.8,0.7 0,0.4 0.3,0.8 0.7,0.8 5.7,0.3 11.3,2.4 15.7,6 0,0 0,0 0,0 1.4,1.1 3.1,1.6 4.8,1.3 1,-0.2 2.4,-0.5 4,-1 -2.6,0.9 -4.7,1.4 -6.3,1.6 -1.2,0.1 -2.4,-0.2 -3.4,-1 -2.6,-2.1 -5.5,-3.7 -8.8,-4.7 -0.1,0 -0.3,0 -0.3,0.2 0,0.1 0,0.3 0.2,0.3 3.2,0.9 6.1,2.5 8.6,4.6 1.1,0.9 2.4,1.3 3.7,1.1 2.1,-0.2 4.9,-0.9 8.6,-2.5 -4.1,2.1 -7.7,3.2 -10.8,3.3 -0.9,0 -1.8,-0.3 -2.5,-0.9 -1.7,-1.4 -3.6,-2.5 -5.7,-3.4 -0.3,-0.1 -0.5,0 -0.7,0.3 -0.1,0.3 0,0.5 0.3,0.7 2,0.8 3.8,1.9 5.4,3.2 0.9,0.7 2,1.1 3.2,1.1 1.1,0 2.3,-0.2 3.5,-0.5 -2,0.7 -3.9,1 -5.5,0.8 -0.7,-0.1 -1.3,-0.3 -1.8,-0.7 -3.2,-2.6 -7.1,-4.2 -11.2,-4.6 -0.4,0 -0.8,0.3 -0.8,0.7 0,0.4 0.3,0.8 0.7,0.8 3.8,0.4 7.4,1.9 10.4,4.3 0.7,0.6 1.6,1 2.6,1.1 1.7,0.2 3.6,-0.1 5.6,-0.7 l -0.5,0.3 c -2.8,1.2 -5.1,1.5 -7,0.9 -0.5,-0.2 -1,-0.4 -1.5,-0.8 -5.4,-4.3 -13.2,-5.2 -19.7,-2.1 -0.1,0.1 -0.2,0.2 -0.1,0.3 0.1,0.1 0.2,0.2 0.3,0.1 6.3,-3 13.9,-2.2 19.3,2.2 0.5,0.4 1,0.7 1.6,0.8 1.6,0.5 3.4,0.4 5.5,-0.2 l -0.6,0.4 c -2.9,1.6 -5.1,1.8 -6.6,0.7 -0.1,-0.1 -0.2,-0.2 -0.4,-0.3 -0.2,-0.1 -0.3,-0.3 -0.5,-0.4 -6,-4.6 -14.1,-4.8 -20.3,-0.5 -6.2,4.3 -8.8,12 -6.5,19.2 0.1,0.2 0.1,0.4 0.2,0.6 0.1,0.1 0.1,0.3 0.2,0.5 0.6,1.8 -0.4,3.8 -2.9,6 l -0.6,0.4 c 1.3,-1.7 2,-3.4 2.1,-5.1 0,-0.6 -0.1,-1.2 -0.2,-1.8 0,-0.1 -0.2,-0.2 -0.3,-0.2 -0.1,0 -0.2,0.2 -0.2,0.3 0.2,0.5 0.2,1.1 0.2,1.6 -0.1,2 -1.2,4.1 -3.3,6.3 l -0.5,0.3 c 1.3,-1.7 2.1,-3.4 2.6,-5 0.2,-0.9 0.2,-1.9 -0.1,-2.8 -1.5,-4.5 -1.4,-9.4 0.3,-13.8 0.2,-0.4 0,-0.8 -0.4,-1 -0.4,-0.2 -0.8,0 -1,0.4 -1.9,4.8 -2,10 -0.4,14.8 0.2,0.6 0.2,1.3 0.1,2 -0.4,1.6 -1.3,3.3 -2.6,4.9 0.7,-1.1 1.2,-2.1 1.7,-3.1 0.4,-1.1 0.5,-2.3 0.1,-3.4 -3.3,-9.4 0.1,-20 8.3,-25.7 0.2,-0.2 0.3,-0.5 0.1,-0.7 -0.2,-0.2 -0.5,-0.3 -0.7,-0.1 -8.6,6 -12.1,17 -8.7,26.9 0.3,0.9 0.3,1.8 -0.1,2.7 -1.1,2.8 -3.4,5.9 -6.8,9 2.8,-2.9 4.4,-5.4 5.3,-7.3 0.6,-1.2 0.7,-2.6 0.2,-3.9 -0.9,-2.5 -1.4,-5.1 -1.4,-7.8 0,-0.1 -0.1,-0.2 -0.3,-0.2 -0.1,0 -0.2,0.1 -0.2,0.3 0,2.7 0.5,5.4 1.4,8 0.4,1.2 0.3,2.4 -0.2,3.5 -0.7,1.4 -1.9,3.2 -3.6,5.3 1.1,-1.4 1.8,-2.5 2.3,-3.4 0.9,-1.5 1,-3.3 0.4,-5 -4,-11.2 0,-23.8 9.7,-30.6 0.8,-0.6 1.7,-1.1 2.6,-1.6 0.4,-0.2 0.5,-0.7 0.3,-1 -0.2,-0.4 -0.7,-0.5 -1,-0.3 -0.9,0.5 -1.8,1.1 -2.7,1.7 -10.3,7.2 -14.5,20.5 -10.3,32.3 0.5,1.3 0.3,2.6 -0.3,3.7 -1.8,3.2 -6.6,9.7 -18.60000016,18.1 -0.3,0.2 -0.4,0.7 -0.2,1 0.2,0.3 0.7,0.4 0.99999996,0.2 L 91.204052,9.7 c 0.7,-0.3 0.8,-0.8 0.6,-1.1 z m -60.8,41.7 c 0.6,-1.3 0.8,-2.6 0.3,-3.8 -0.1,-0.2 -0.1,-0.3 -0.2,-0.5 -0.1,-0.2 -0.1,-0.4 -0.2,-0.6 -2.1,-6.7 0.3,-13.8 6,-17.9 5.7,-4 13.3,-3.8 18.8,0.4 0.2,0.1 0.3,0.3 0.5,0.4 0.1,0.1 0.3,0.2 0.4,0.3 1,0.8 2.2,1.1 3.7,1 z m 5.4,-34.7 c 2.2,-0.8 4.5,-1.4 6.9,-1.6 0.1,0 0.3,-0.1 0.4,-0.1 0.2,-0.2 0.3,-0.4 0.3,-0.7 0,-0.4 -0.4,-0.7 -0.8,-0.7 -2.5,0.2 -4.9,0.8 -7.2,1.7 -0.4,0.1 -0.6,0.6 -0.4,1 0,0.4 0.4,0.6 0.8,0.4 z m 20.3,40.1 c -0.8,0.5 -1.6,1 -2.5,1.5 -0.1,0.1 -0.2,0.2 -0.1,0.3 0.1,0.1 0.2,0.2 0.3,0.1 0.9,-0.4 1.7,-0.9 2.5,-1.5 4.5,-3.2 7.4,-8.1 8,-13.6 0,-0.1 -0.1,-0.3 -0.2,-0.3 -0.1,0 -0.3,0.1 -0.3,0.2 -0.5,5.4 -3.4,10.2 -7.7,13.3 z m 7.9,-17.5 c 0,0 0.1,0 0.1,0 0.1,-0.1 0.1,-0.1 0.1,-0.2 -0.2,-1.5 -0.6,-3 -1.2,-4.4 l -0.4,0.3 c 0.5,1.3 0.9,2.8 1.1,4.2 0,0 0.2,0.1 0.3,0.1 z m -36.7,20.3 c 1.8,1.9 4,3.5 6.3,4.7 0.2,0.1 0.4,0.1 0.5,0 0.1,0 0.1,-0.1 0.2,-0.2 0.1,-0.2 0,-0.5 -0.2,-0.7 -2.2,-1.2 -4.2,-2.6 -6,-4.4 z m 9.8,5.2 c -0.3,-0.1 -0.5,0 -0.6,0.3 -0.1,0.3 0,0.5 0.3,0.6 0.7,0.3 1.5,0.5 2.2,0.7 0.1,0 0.3,0 0.4,-0.1 0.1,-0.1 0.2,-0.2 0.2,-0.3 0.1,-0.3 -0.1,-0.5 -0.4,-0.6 -0.7,-0.1 -1.4,-0.3 -2.1,-0.6 z m 13.1,3.3 c -7.3,1.3 -14.9,-0.5 -20.9,-5 -0.2,-0.1 -0.4,-0.1 -0.5,0.1 -0.1,0.2 -0.1,0.4 0.1,0.5 6.1,4.6 13.9,6.4 21.4,5.1 0.1,0 0.1,0 0.1,-0.1 0.1,-0.1 0.2,-0.2 0.2,-0.4 0,-0.1 -0.2,-0.2 -0.4,-0.2 z m 22.2,-30.8 c -0.2,0 -0.3,0.2 -0.3,0.4 1.5,10.1 -2.8,20.1 -11.2,25.9 -1.8,1.2 -3.6,2.2 -5.6,3 -0.2,0.1 -0.3,0.3 -0.2,0.5 0.1,0.2 0.3,0.3 0.5,0.2 2,-0.8 4,-1.8 5.8,-3.1 8.6,-6 13,-16.2 11.5,-26.7 -0.1,-0.1 -0.3,-0.2 -0.5,-0.2 z m 20,-25.5 c -0.2,-0.2 -0.5,-0.3 -0.7,-0.1 L 2.2040518,73.8 c -0.2,0.2 -0.3,0.5 -0.1,0.7 0.2,0.2 0.5,0.3 0.7,0.1 L 92.904052,11.5 c 0.2,-0.2 0.2,-0.5 0.1,-0.8 z m -26.6,20.8 c 2.4,5.4 2.6,11.6 0.4,17.2 -0.2,0.4 0,0.8 0.4,1 0.2,0.1 0.5,0.1 0.7,-0.1 0.1,-0.1 0.2,-0.2 0.3,-0.3 2.4,-6.1 2.2,-12.8 -0.5,-18.7 z m 5.9,1.8 c 0,0 0.1,0 0.1,-0.1 0.1,-0.1 0.2,-0.3 0.1,-0.4 -0.4,-1.5 -1,-3 -1.7,-4.4 l -0.6,0.4 c 0.7,1.4 1.2,2.8 1.6,4.2 0.1,0.2 0.3,0.3 0.5,0.3 z m -7.4,-0.7 c 3.7,8.7 1,19.1 -7.1,24.7 -3.2,2.2 -6.9,3.5 -10.7,3.7 -0.2,0 -0.4,0.2 -0.4,0.4 0,0.2 0.2,0.4 0.4,0.4 4,-0.2 7.8,-1.5 11.1,-3.8 8.4,-5.9 11.2,-16.7 7.3,-25.8 z m 3.5,-2.5 c 5,10.6 1.8,23.6 -8.1,30.6 -4.9,3.4 -10.8,4.9 -16.7,4.3 -0.3,0 -0.5,0.2 -0.6,0.4 0,0.3 0.2,0.5 0.4,0.6 6.1,0.7 12.3,-0.9 17.4,-4.5 10.4,-7.3 13.7,-20.9 8.4,-32 z m -39,27.3 c 8,7.9 20.7,9.2 30.3,2.6 2.5,-1.8 4.6,-4 6.3,-6.5 0.2,-0.3 0.1,-0.8 -0.2,-1 -0.3,-0.2 -0.8,-0.1 -1,0.2 -1.5,2.4 -3.5,4.4 -5.9,6.1 -8.8,6.2 -20.7,5 -28.1,-2.2 z m 23.3,0.9 c 0.1,-0.1 0.1,-0.2 0.1,-0.3 0,-0.1 -0.2,-0.2 -0.3,-0.1 -4.7,1.7 -9.9,1.5 -14.4,-0.7 -0.1,-0.1 -0.3,0 -0.3,0.1 -0.1,0.1 0,0.3 0.1,0.3 4.6,2.2 10,2.5 14.8,0.7 0,0 0,0 0,0 z m -38.2,-55 h 0.7 V 4 c 0,0.5 0.4,0.9 0.9,0.9 0.5,0 0.9,-0.4 0.9,-0.9 V 3.3 h 0.7 c 0.5,0 0.9,-0.4 0.9,-0.9 0,-0.5 -0.4,-0.9 -0.9,-0.9 h -0.7 V 0.9 c 0,-0.5 -0.4,-0.9 -0.9,-0.9 -0.5,0 -0.9,0.4 -0.9,0.9 v 0.7 h -0.7 c -0.5,0 -0.9,0.4 -0.9,0.9 0,0.4 0.4,0.8 0.9,0.8 z m -3.2,13.6 h 0.4 v 0.5 c 0,0.4 0.3,0.8 0.8,0.8 0.4,0 0.7,-0.3 0.7,-0.8 v -0.5 h 0.5 c 0.4,0 0.8,-0.3 0.8,-0.8 0,-0.5 -0.3,-0.8 -0.8,-0.8 h -0.5 v -0.4 c 0,-0.4 -0.3,-0.8 -0.7,-0.8 -0.4,0 -0.8,0.3 -0.8,0.8 v 0.4 h -0.4 c -0.4,0 -0.8,0.3 -0.8,0.8 0,0.5 0.4,0.8 0.8,0.8 z m 76.2,41 h -0.7 v -0.7 c 0,-0.5 -0.4,-0.9 -0.9,-0.9 -0.5,0 -0.9,0.4 -0.9,0.9 v 0.7 h -0.7 c -0.5,0 -0.9,0.4 -0.9,0.9 0,0.5 0.4,0.9 0.9,0.9 h 0.7 v 0.6 c 0,0.5 0.4,0.9 0.9,0.9 0.5,0 0.9,-0.4 0.9,-0.9 v -0.7 h 0.7 c 0.5,0 0.9,-0.4 0.9,-0.9 0,-0.4 -0.4,-0.8 -0.9,-0.8 z m -38.5,19.6 h -0.5 v -0.4 c 0,-0.4 -0.3,-0.8 -0.8,-0.8 -0.5,0 -0.8,0.3 -0.8,0.8 v 0.4 h -0.4 c -0.4,0 -0.8,0.3 -0.8,0.8 0,0.5 0.3,0.8 0.8,0.8 h 0.4 v 0.5 c 0,0.4 0.3,0.8 0.8,0.8 0.5,0 0.8,-0.3 0.8,-0.8 v -0.5 h 0.5 c 0.4,0 0.8,-0.3 0.8,-0.8 0,-0.5 -0.4,-0.8 -0.8,-0.8 z m 23.5,-67.2 h 0.4 v 0.5 c 0,0.4 0.3,0.8 0.8,0.8 0.5,0 0.8,-0.3 0.8,-0.8 v -0.5 h 0.4 c 0.4,0 0.8,-0.3 0.8,-0.8 0,-0.5 -0.3,-0.8 -0.8,-0.8 h -0.5 V 8.3 c 0,-0.4 -0.3,-0.8 -0.8,-0.8 -0.5,0 -0.8,0.3 -0.8,0.8 v 0.4 h -0.4 c -0.4,0 -0.8,0.3 -0.8,0.8 0,0.5 0.5,0.8 0.9,0.8 z"
     id="path2" /></svg>
