<?xml version="1.0" encoding="UTF-8" standalone="no"?>
<!-- Created with Inkscape (http://www.inkscape.org/) -->

<svg
   width="15.47001mm"
   height="16.11524mm"
   viewBox="0 0 15.47001 16.11524"
   version="1.1"
   id="svg3528"
   inkscape:version="1.1.1 (1:1.1+202109281949+c3084ef5ed)"
   sodipodi:docname="comet.svg"
   xmlns:inkscape="http://www.inkscape.org/namespaces/inkscape"
   xmlns:sodipodi="http://sodipodi.sourceforge.net/DTD/sodipodi-0.dtd"
   xmlns="http://www.w3.org/2000/svg"
   xmlns:svg="http://www.w3.org/2000/svg">
  <sodipodi:namedview
     id="namedview3530"
     pagecolor="#000000"
     bordercolor="#666666"
     borderopacity="1.0"
     inkscape:pageshadow="2"
     inkscape:pageopacity="1"
     inkscape:pagecheckerboard="0"
     inkscape:document-units="mm"
     showgrid="false"
     fit-margin-top="0"
     fit-margin-left="0"
     fit-margin-right="0"
     fit-margin-bottom="0"
     inkscape:zoom="1.0154442"
     inkscape:cx="-394.90106"
     inkscape:cy="45.300371"
     inkscape:window-width="2560"
     inkscape:window-height="1000"
     inkscape:window-x="1200"
     inkscape:window-y="1080"
     inkscape:window-maximized="1"
     inkscape:current-layer="layer1" />
  <defs
     id="defs3525" />
  <g
     inkscape:label="Layer 1"
     inkscape:groupmode="layer"
     id="layer1"
     transform="translate(-267.5243,-165.13097)">
    <g
       id="g3653">
      <path
         d="m 275.62584,173.43112 7.36847,-7.31132 -6.68655,4.83941 5.15161,-5.82824 -6.06248,5.22993 2.57598,-3.04412 -8.77746,7.63129 c -0.36125,0.21202 -0.67945,0.48965 -0.93839,0.81562 v 0 0 c -0.45861,0.57714 -0.73272,1.30669 -0.73272,2.10079 0,1.86761 1.51377,3.38173 3.38137,3.38173 0.79164,0 1.51907,-0.2727 2.0955,-0.72849 h 3.6e-4 l 0.003,-0.003 c 0.16651,-0.13194 0.31962,-0.2794 0.45861,-0.43991 l 7.65775,-7.33919 -4.55295,2.77636 4.83905,-4.2926 -4.16277,2.80987 2.60208,-2.49802 -1.92546,1.20439 4.91737,-3.98815 -7.21254,4.68347"
         style="fill:#f68c1c;fill-opacity:1;fill-rule:nonzero;stroke:none;stroke-width:0.0352778"
         id="path108" />
      <path
         d="m 268.99785,175.71712 c 2.12055,-1.6263 4.03754,-3.29917 4.03754,-3.29917 l -1.3723,2.0387 4.05553,-3.58916 -3.15665,3.67629 5.08247,-3.95534 -3.91231,4.4256 4.30389,-2.73544 -3.29318,3.10127 4.16419,-2.99685 -5.07048,4.30636 3.64208,-2.45922 -3.61456,3.5306 5.04296,-3.37361 -6.0198,5.31425 -0.86254,-1.54059 -3.02684,-2.44369"
         style="fill:#f6b617;fill-opacity:1;fill-rule:nonzero;stroke:none;stroke-width:0.0352778"
         id="path110" />
      <path
         d="m 273.85349,177.87895 c 0,0.25752 0.12982,0.57361 0.0667,0.81103 -0.0656,0.24624 -0.31256,0.46955 -0.43709,0.68474 -0.1263,0.21837 -0.43215,0.30833 -0.60925,0.48543 -0.17709,0.17709 -0.4452,0.17533 -0.66322,0.30162 -0.2152,0.12453 -0.27552,0.62477 -0.52141,0.69003 -0.23706,0.0639 -0.53869,0.007 -0.79622,0.007 -0.25752,0 -0.51258,-0.11642 -0.75035,-0.17992 -0.24589,-0.066 -0.55034,-0.0504 -0.76518,-0.17498 -0.21837,-0.12629 -0.5341,-0.22119 -0.7112,-0.39828 -0.17709,-0.1771 -0.17215,-0.55069 -0.29845,-0.7687 -0.12453,-0.2152 -0.35384,-0.42334 -0.4191,-0.66887 -0.0639,-0.23777 0.14005,-0.53164 0.14005,-0.78916 0,-0.25718 -0.21695,-0.55492 -0.15345,-0.79234 0.0656,-0.24554 0.45543,-0.36513 0.57961,-0.57997 0.12665,-0.21837 0.22789,-0.42333 0.40499,-0.60043 0.17709,-0.17709 0.18626,-0.61701 0.40428,-0.74365 0.21555,-0.12418 0.58067,0.012 0.82656,-0.0533 0.23742,-0.0639 0.48472,0.15028 0.74224,0.15028 0.25753,0 0.51929,-0.26882 0.75671,-0.20532 0.24589,0.0656 0.41593,0.29634 0.63112,0.42087 0.21802,0.12629 0.36195,0.30056 0.53905,0.47766 0.17674,0.17674 0.41345,0.28398 0.5401,0.502 0.12418,0.21555 -0.0233,0.50588 0.0423,0.75177 0.0639,0.23742 0.45121,0.41522 0.45121,0.6724"
         style="fill:#f7c732;fill-opacity:1;fill-rule:nonzero;stroke:none;stroke-width:0.0352778"
         id="path112" />
      <path
         d="m 269.72493,177.3078 c 0,0.20108 -0.16299,0.36442 -0.36407,0.36442 -0.20108,0 -0.36407,-0.16334 -0.36407,-0.36442 0,-0.20109 0.16299,-0.36442 0.36407,-0.36442 0.20108,0 0.36407,0.16333 0.36407,0.36442"
         style="fill:#f6b617;fill-opacity:1;fill-rule:nonzero;stroke:none;stroke-width:0.0352778"
         id="path114" />
      <path
         d="m 272.75952,177.96326 c 0,0.20108 -0.16298,0.36442 -0.36442,0.36442 -0.20108,0 -0.36442,-0.16334 -0.36442,-0.36442 0,-0.20144 0.16334,-0.36407 0.36442,-0.36407 0.20144,0 0.36442,0.16263 0.36442,0.36407"
         style="fill:#f6b617;fill-opacity:1;fill-rule:nonzero;stroke:none;stroke-width:0.0352778"
         id="path116" />
      <path
         d="m 272.20637,179.0544 c 0,0.14358 -0.11642,0.26 -0.26,0.26 -0.14358,0 -0.26,-0.11642 -0.26,-0.26 0,-0.14393 0.11642,-0.26035 0.26,-0.26035 0.14358,0 0.26,0.11642 0.26,0.26035"
         style="fill:#f6b617;fill-opacity:1;fill-rule:nonzero;stroke:none;stroke-width:0.0352778"
         id="path118" />
      <path
         d="m 269.51679,178.53405 c 0,0.14358 -0.11642,0.26 -0.26,0.26 -0.14358,0 -0.26,-0.11642 -0.26,-0.26 0,-0.14393 0.11642,-0.26035 0.26,-0.26035 0.14358,0 0.26,0.11642 0.26,0.26035"
         style="fill:#f6b617;fill-opacity:1;fill-rule:nonzero;stroke:none;stroke-width:0.0352778"
         id="path120" />
      <path
         d="m 271.31313,178.2737 c 0,0.14358 -0.11641,0.26035 -0.25999,0.26035 -0.14394,0 -0.26071,-0.11677 -0.26071,-0.26035 0,-0.14393 0.11677,-0.26035 0.26071,-0.26035 0.14358,0 0.25999,0.11642 0.25999,0.26035"
         style="fill:#f6b617;fill-opacity:1;fill-rule:nonzero;stroke:none;stroke-width:0.0352778"
         id="path122" />
      <path
         d="m 271.20165,179.93246 c 0,0.26776 -0.21731,0.48437 -0.48436,0.48437 -0.26776,0 -0.48472,-0.21661 -0.48472,-0.48437 0,-0.26775 0.21696,-0.48471 0.48472,-0.48471 0.26705,0 0.48436,0.21696 0.48436,0.48471"
         style="fill:#f6b617;fill-opacity:1;fill-rule:nonzero;stroke:none;stroke-width:0.0352778"
         id="path124" />
      <path
         d="m 271.38898,176.34366 c 0,0.18556 -0.15064,0.33584 -0.33584,0.33584 -0.18592,0 -0.33585,-0.15028 -0.33585,-0.33584 0,-0.18521 0.14993,-0.33585 0.33585,-0.33585 0.1852,0 0.33584,0.15064 0.33584,0.33585"
         style="fill:#f6b617;fill-opacity:1;fill-rule:nonzero;stroke:none;stroke-width:0.0352778"
         id="path126" />
      <path
         d="m 276.45099,168.90992 c 0,0.11078 -0.0896,0.20073 -0.20073,0.20073 -0.11077,0 -0.20073,-0.0899 -0.20073,-0.20073 0,-0.11112 0.09,-0.20108 0.20073,-0.20108 0.11112,0 0.20073,0.09 0.20073,0.20108"
         style="fill:#ffffff;fill-opacity:1;fill-rule:nonzero;stroke:none;stroke-width:0.0352778"
         id="path198" />
    </g>
  </g>
</svg>
