<?xml version="1.0" encoding="UTF-8" standalone="no"?>
<!-- Created with Inkscape (http://www.inkscape.org/) -->

<svg
   width="19.61268mm"
   height="11.795125mm"
   viewBox="0 0 19.61268 11.795125"
   version="1.1"
   id="svg5848"
   inkscape:version="1.1.1 (1:1.1+202109281949+c3084ef5ed)"
   sodipodi:docname="earth.svg"
   xmlns:inkscape="http://www.inkscape.org/namespaces/inkscape"
   xmlns:sodipodi="http://sodipodi.sourceforge.net/DTD/sodipodi-0.dtd"
   xmlns="http://www.w3.org/2000/svg"
   xmlns:svg="http://www.w3.org/2000/svg">
  <sodipodi:namedview
     id="namedview5850"
     pagecolor="#000000"
     bordercolor="#666666"
     borderopacity="1.0"
     inkscape:pageshadow="2"
     inkscape:pageopacity="1"
     inkscape:pagecheckerboard="0"
     inkscape:document-units="mm"
     showgrid="false"
     fit-margin-top="0"
     fit-margin-left="0"
     fit-margin-right="0"
     fit-margin-bottom="0"
     inkscape:zoom="5.74422"
     inkscape:cx="-6.7894336"
     inkscape:cy="7.6598738"
     inkscape:window-width="2560"
     inkscape:window-height="1000"
     inkscape:window-x="1200"
     inkscape:window-y="1080"
     inkscape:window-maximized="1"
     inkscape:current-layer="layer1" />
  <defs
     id="defs5845" />
  <g
     inkscape:label="Layer 1"
     inkscape:groupmode="layer"
     id="layer1"
     transform="translate(-143.48398,-172.81831)">
    <g
       id="g5783"
       transform="matrix(0.35277777,0,0,-0.35277777,63.622151,287.76601)">
      <g
         id="g1038">
        <text
           transform="matrix(1,0,0,-1,229.527,313.028)"
           style="font-variant:normal;font-weight:600;font-size:4.84973px;font-family:Montserrat;-inkscape-font-specification:Montserrat-SemiBold;writing-mode:lr-tb;fill:#ffffff;fill-opacity:1;fill-rule:nonzero;stroke:none"
           id="text1042"><tspan
             x="0 3.2493191 6.8817668 10.37836 13.297897"
             y="0"
             sodipodi:role="line"
             id="tspan1040">EARTH</tspan></text>
      </g>
      <path
         d="M 255.283,311.56 H 226.38 v 0.241 h 28.903 v -0.241"
         style="fill:#ffffff;fill-opacity:1;fill-rule:nonzero;stroke:none;stroke-width:0.1"
         id="path1044" />
      <path
         d="m 246.178,303.926 c 0,-0.325 -0.061,-0.636 -0.173,-0.922 -0.219,-0.565 -0.636,-1.033 -1.164,-1.318 -0.359,-0.195 -0.771,-0.305 -1.208,-0.305 -0.892,0 -1.677,0.46 -2.131,1.154 -0.262,0.4 -0.413,0.878 -0.413,1.391 0,0.09 0.004,0.18 0.013,0.268 0.056,0.536 0.278,1.022 0.615,1.406 0.195,0.223 0.429,0.412 0.691,0.557 0.363,0.2 0.781,0.313 1.225,0.313 1.406,0 2.545,-1.139 2.545,-2.544"
         style="fill:#e0e1e0;fill-opacity:1;fill-rule:nonzero;stroke:none;stroke-width:0.1"
         id="path1046" />
      <path
         d="m 245.262,303.424 c -0.554,0.056 -1.018,-0.316 -0.967,-0.892 0.031,-0.36 0.246,-0.674 0.546,-0.846 0.528,0.285 0.945,0.753 1.164,1.318 -0.17,0.229 -0.428,0.387 -0.743,0.42"
         style="fill:#aeb3b4;fill-opacity:1;fill-rule:nonzero;stroke:none;stroke-width:0.1"
         id="path1048" />
      <path
         d="m 243.347,304.562 c -0.049,0.497 -0.583,0.541 -0.908,0.252 -0.164,-0.145 -0.262,-0.369 -0.211,-0.589 0.042,-0.176 0.366,-0.365 0.38,-0.374 0.17,-0.106 0.398,-0.056 0.539,0.077 0.168,0.157 0.222,0.413 0.2,0.634"
         style="fill:#aeb3b4;fill-opacity:1;fill-rule:nonzero;stroke:none;stroke-width:0.1"
         id="path1050" />
      <path
         d="m 241.785,304.07 c -0.114,0.146 -0.27,0.17 -0.446,0.154 -0.079,-0.007 -0.158,-0.017 -0.237,-0.03 -0.009,-0.088 -0.013,-0.178 -0.013,-0.268 0,-0.513 0.151,-0.991 0.413,-1.391 0.118,0.007 0.232,0.074 0.317,0.228 0.184,0.328 0.207,1.001 -0.034,1.307"
         style="fill:#aeb3b4;fill-opacity:1;fill-rule:nonzero;stroke:none;stroke-width:0.1"
         id="path1052" />
      <path
         d="m 242.562,305.89 c -0.018,0.113 -0.076,0.2 -0.154,0.267 -0.262,-0.145 -0.496,-0.334 -0.691,-0.557 -0.011,-0.067 -0.01,-0.133 0.019,-0.198 0.095,-0.202 0.349,-0.182 0.504,-0.072 0.173,0.122 0.358,0.333 0.322,0.56"
         style="fill:#aeb3b4;fill-opacity:1;fill-rule:nonzero;stroke:none;stroke-width:0.1"
         id="path1054" />
      <path
         d="m 242.909,302.521 c -0.47,0.033 -0.355,-1.031 0.141,-0.911 0.41,0.098 0.677,0.853 -0.141,0.911"
         style="fill:#aeb3b4;fill-opacity:1;fill-rule:nonzero;stroke:none;stroke-width:0.1"
         id="path1056" />
      <path
         d="m 245.192,304.73 c -0.206,0.322 -0.416,0.807 -0.796,0.959 -0.283,0.113 -0.626,0.015 -0.722,-0.292 -0.09,-0.29 -0.001,-0.752 0.238,-0.949 0.309,-0.252 0.812,-0.213 1.174,-0.131 0.115,0.025 0.15,0.344 0.106,0.413"
         style="fill:#aeb3b4;fill-opacity:1;fill-rule:nonzero;stroke:none;stroke-width:0.1"
         id="path1058" />
      <path
         d="m 265.257,292.401 c -1.236,0 -2.436,0.132 -3.595,0.389 -7.507,1.644 -13.122,8.331 -13.122,16.328 0,4.145 1.507,7.938 4.003,10.855 0.673,0.793 1.424,1.521 2.235,2.172 2.464,1.983 5.501,3.283 8.826,3.609 0.44,0.045 0.884,0.068 1.333,0.078 0.106,0.004 0.215,0.004 0.32,0.004 0.339,0 0.674,-0.009 1.008,-0.032 2.18,-0.128 4.25,-0.678 6.128,-1.566 1.022,-0.481 1.988,-1.067 2.886,-1.736 h 0.005 c 0.861,-0.651 1.653,-1.374 2.372,-2.171 0.298,-0.325 0.577,-0.664 0.848,-1.012 1.767,-2.29 2.954,-5.057 3.338,-8.071 0.087,-0.696 0.133,-1.41 0.133,-2.13 0,-4.639 -1.891,-8.839 -4.946,-11.872 -3.019,-2.99 -7.178,-4.845 -11.772,-4.845"
         style="fill:#7ed5ed;fill-opacity:1;fill-rule:nonzero;stroke:none;stroke-width:0.1"
         id="path1060" />
      <path
         d="m 277.051,312.553 c -1.983,0.422 -1.717,2.213 -1.868,2.863 -0.156,0.651 -0.536,0.115 -1.031,1.297 -0.499,1.186 0.609,1.603 1.755,1.603 1.144,0 2.597,1.003 2.597,1.003 1.767,-2.29 2.954,-5.057 3.338,-8.071 -0.279,-0.252 -0.627,-0.467 -1.011,-0.527 -1.054,-0.164 -1.796,1.411 -3.78,1.832"
         style="fill:#7db556;fill-opacity:1;fill-rule:nonzero;stroke:none;stroke-width:0.1"
         id="path1062" />
      <path
         d="m 275.563,320.34 c -0.059,0.856 -1.145,0.485 -0.774,0.856 0.206,0.207 0.381,0.811 0.49,1.306 h 0.005 c 0.861,-0.651 1.653,-1.374 2.372,-2.171 -0.183,-0.307 -0.348,-0.651 -0.549,-1.012 -0.398,-0.733 -1.484,0.165 -1.544,1.021"
         style="fill:#7db556;fill-opacity:1;fill-rule:nonzero;stroke:none;stroke-width:0.1"
         id="path1064" />
      <path
         d="m 271.381,318.421 c -0.541,0.916 -0.338,2.006 -1.2,2.033 -0.861,0.028 -1.461,-0.283 -1.461,0.66 0,0.944 -1.603,1.658 -2.148,1.832 -0.54,0.169 -0.714,0.344 -0.371,0.77 0.344,0.43 1.091,0.604 0.573,1.232 -0.275,0.339 -0.454,0.632 -0.509,0.856 2.18,-0.128 4.25,-0.678 6.128,-1.566 -0.068,-0.417 -0.215,-0.802 -0.494,-0.98 -0.747,-0.486 -1.003,-1.429 -0.143,-1.315 0.858,0.115 2.69,0.256 2.406,-0.545 -0.55,-1.535 -2.236,-3.893 -2.781,-2.977"
         style="fill:#7db556;fill-opacity:1;fill-rule:nonzero;stroke:none;stroke-width:0.1"
         id="path1066" />
      <path
         d="m 259.591,314.784 c -0.604,0 -3.178,0.948 -4.066,2.181 -0.889,1.227 -2.043,1.465 -2.982,3.008 0.673,0.793 1.424,1.521 2.235,2.172 0.618,-0.623 1.338,-1.2 1.805,-1.118 0.975,0.169 1.067,1.63 2.038,1.832 0.97,0.202 2.258,0.431 2.831,0.256 0.572,-0.169 1.03,0.175 1.117,0.862 0.06,0.467 0.746,1.163 1.035,1.777 0.44,0.045 0.884,0.068 1.333,0.078 0.06,-1.008 -0.018,-1.668 -0.655,-1.855 -0.77,-0.229 -0.742,0.316 -1.085,-0.316 -0.344,-0.632 -0.115,-4.045 -0.23,-4.342 -0.114,-0.293 -0.829,0.352 -0.829,-0.27 0,-0.628 0.601,-1.228 0,-1.517 -0.604,-0.284 -0.916,0.174 -1.062,-0.142 -0.142,-0.316 -0.884,-2.606 -1.485,-2.606"
         style="fill:#7db556;fill-opacity:1;fill-rule:nonzero;stroke:none;stroke-width:0.1"
         id="path1068" />
      <path
         d="m 265.444,323.675 c 0.339,-0.198 0.4,-0.487 0.114,-0.902 -0.286,-0.415 -0.472,-0.386 -0.673,-0.458 -0.2,-0.071 -0.615,0.072 -0.3,0.387 0.315,0.315 0.305,0.658 0.368,0.858 0.061,0.201 0.319,0.215 0.491,0.115"
         style="fill:#7db556;fill-opacity:1;fill-rule:nonzero;stroke:none;stroke-width:0.1"
         id="path1070" />
      <path
         d="m 264.699,321.9 c 0.151,-0.267 0.449,-0.229 0.254,-0.544 -0.197,-0.315 -0.783,-0.844 -0.64,-1.474 0.143,-0.63 -0.258,-0.329 -0.401,0 -0.143,0.329 -0.143,0.902 0.072,1.045 0.215,0.143 0.271,0.372 0.3,0.744 0.029,0.372 0.229,0.558 0.415,0.229"
         style="fill:#7db556;fill-opacity:1;fill-rule:nonzero;stroke:none;stroke-width:0.1"
         id="path1072" />
      <path
         d="m 265.257,292.401 c -1.236,0 -2.436,0.132 -3.595,0.389 0.311,1.296 3.321,2.496 3.788,2.739 0.513,0.27 1.314,2.977 0.893,3.476 -0.417,0.495 -0.568,-1.09 -0.893,-1.452 -0.325,-0.361 -1.699,1.452 -1.529,2.368 0.173,0.916 2.825,1.429 2.729,1.887 -0.097,0.458 -3.032,-0.934 -3.303,-1.429 -0.265,-0.499 0,-1.278 -0.398,-1.488 -0.402,-0.211 -2.442,1.85 -3.453,2.272 -1.013,0.416 -2.423,0.283 -3.513,0.76 -1.091,0.476 -1.869,1.699 -1.603,2.464 0.265,0.76 2.729,1.543 3.435,1.965 0.705,0.417 1.356,-0.802 1.982,-0.325 0.633,0.476 1.013,0.765 1.718,1.049 0.71,0.288 0.385,1.204 0.615,2.042 0.228,0.839 1.181,1.526 2.308,2.025 1.126,0.494 1.47,-0.861 2.29,-1.223 0.819,-0.362 1.507,-2.405 1.507,-3.073 0,-0.669 -0.747,-0.573 -1.241,-1.049 -0.495,-0.477 0.325,-0.591 0.475,-1.145 0.157,-0.555 -0.283,-0.266 -0.439,-1.242 -0.151,-0.97 0.192,-0.916 0.27,-1.374 0.074,-0.458 1.104,-0.512 1.296,0.115 0.193,0.632 -1.144,0.385 -1.085,0.668 0.055,0.289 0.705,0.308 0.916,0.651 0.21,0.344 -0.898,0.151 -0.481,0.646 0.422,0.499 2.313,1.108 2.217,1.489 -0.096,0.384 -1.567,-0.436 -1.64,-0.056 -0.078,0.38 0.935,0.573 1.315,0.972 0.38,0.402 -0.343,0.957 -0.784,1.511 -0.439,0.55 -1.2,1.085 -0.801,1.507 0.403,0.417 0.838,0.687 1.223,0.38 0.38,-0.307 0.152,-1.127 0.421,-1.356 0.266,-0.229 0.151,0.289 0.417,0.403 0.271,0.115 1.127,-1.584 1.699,-1.832 0.573,-0.252 0.513,-0.572 0.513,-0.572 -0.036,-1.814 1.224,-3.532 1.645,-3.321 0.417,0.206 -0.518,1.127 -0.211,1.333 0.307,0.21 1.374,-0.82 1.566,-0.435 0.188,0.38 -0.385,0.38 -0.938,1.026 -0.55,0.65 -0.436,-0.248 -1.255,-0.037 -0.825,0.211 -0.271,1.072 0,1.356 0.265,0.284 -0.024,0.495 0.361,0.916 0.381,0.421 1.104,-0.403 2.116,-1.067 1.013,-0.669 1.164,-3.893 1.031,-4.695 -0.132,-0.802 -0.916,-1.109 -0.801,-0.705 0.109,0.398 -0.514,1.049 -0.514,0.874 0,-0.169 -0.385,-0.077 -0.535,-0.687 -0.152,-0.609 0.439,-0.82 1.012,-1.451 0.573,-0.628 0.132,-1.641 0.513,-1.641 0.256,0 0.426,-0.242 0.513,-0.783 -3.019,-2.99 -7.178,-4.845 -11.772,-4.845"
         style="fill:#7db556;fill-opacity:1;fill-rule:nonzero;stroke:none;stroke-width:0.1"
         id="path1074" />
      <path
         d="m 275.563,312.458 c 0.114,-1.221 0.84,-2.481 0.096,-2.29 -0.744,0.191 -0.819,0.553 -1.469,1.221 -0.65,0.668 -0.611,1.412 0.285,1.298 0.898,-0.115 1.088,-0.229 1.088,-0.229"
         style="fill:#7db556;fill-opacity:1;fill-rule:nonzero;stroke:none;stroke-width:0.1"
         id="path1076" />
      <path
         d="m 272.663,310.492 c -0.668,-0.019 -1.108,0.038 -1.108,-0.343 0,-0.382 0.458,-0.706 0.688,-0.496 0.228,0.209 0.42,0.839 0.42,0.839"
         style="fill:#7db556;fill-opacity:1;fill-rule:nonzero;stroke:none;stroke-width:0.1"
         id="path1078" />
      <path
         d="m 273.865,309.462 c -0.594,-0.968 -0.726,-0.954 -1.604,-0.954 -0.878,0 -0.686,0.858 -0.228,0.61 0.458,-0.248 1.126,0.04 1.336,0.469 0.21,0.428 0.873,0.489 0.496,-0.125"
         style="fill:#7db556;fill-opacity:1;fill-rule:nonzero;stroke:none;stroke-width:0.1"
         id="path1080" />
      <path
         d="m 258.731,299.042 c -0.885,-0.607 -0.816,0.758 -1.761,0.372 -0.945,-0.386 -1.474,-0.415 -1.002,0.215 0.473,0.629 0.659,0.959 1.074,1.059 0.415,0.1 0.672,-0.487 1.202,-0.773 0.53,-0.286 0.988,-0.53 0.487,-0.873"
         style="fill:#7db556;fill-opacity:1;fill-rule:nonzero;stroke:none;stroke-width:0.1"
         id="path1082" />
    </g>
  </g>
</svg>
