<?xml version="1.0" encoding="UTF-8" standalone="no"?>
<!-- Created with Inkscape (http://www.inkscape.org/) -->

<svg
   width="31.524221mm"
   height="27.464455mm"
   viewBox="0 0 31.524221 27.464455"
   version="1.1"
   id="svg5225"
   inkscape:version="1.1.1 (1:1.1+202109281949+c3084ef5ed)"
   sodipodi:docname="jupiter.svg"
   xmlns:inkscape="http://www.inkscape.org/namespaces/inkscape"
   xmlns:sodipodi="http://sodipodi.sourceforge.net/DTD/sodipodi-0.dtd"
   xmlns:xlink="http://www.w3.org/1999/xlink"
   xmlns="http://www.w3.org/2000/svg"
   xmlns:svg="http://www.w3.org/2000/svg">
  <sodipodi:namedview
     id="namedview5227"
     pagecolor="#000000"
     bordercolor="#666666"
     borderopacity="1.0"
     inkscape:pageshadow="2"
     inkscape:pageopacity="1"
     inkscape:pagecheckerboard="false"
     inkscape:document-units="mm"
     showgrid="false"
     fit-margin-top="0"
     fit-margin-left="0"
     fit-margin-right="0"
     fit-margin-bottom="0"
     inkscape:zoom="5.74422"
     inkscape:cx="41.084777"
     inkscape:cy="51.704148"
     inkscape:window-width="2560"
     inkscape:window-height="1000"
     inkscape:window-x="1200"
     inkscape:window-y="1080"
     inkscape:window-maximized="1"
     inkscape:current-layer="layer1" />
  <defs
     id="defs5222">
    <filter
       inkscape:label="Fill Background"
       inkscape:menu="Fill and Transparency"
       inkscape:menu-tooltip="Adds a colorizable opaque background"
       style="color-interpolation-filters:sRGB;"
       id="filter1149"
       x="0"
       y="0"
       width="1"
       height="1">
      <feFlood
         result="result1"
         flood-color="rgb(0,0,0)"
         flood-opacity="1"
         id="feFlood1137" />
      <feImage
         xlink:href=""
         result="result2"
         id="feImage1139" />
      <feBlend
         result="result4"
         in2="result1"
         mode="multiply"
         id="feBlend1141" />
      <feMerge
         result="result3"
         id="feMerge1147">
        <feMergeNode
           in="result1"
           id="feMergeNode1143" />
        <feMergeNode
           in="SourceGraphic"
           id="feMergeNode1145" />
      </feMerge>
    </filter>
  </defs>
  <g
     inkscape:label="Layer 1"
     inkscape:groupmode="layer"
     id="layer1"
     transform="translate(-154.84707,-118.18588)">
    <g
       id="g5068"
       transform="matrix(0.35277777,0,0,-0.35277777,51.149809,234.11924)"
       style="filter:url(#filter1149)">
      <g
         id="g716">
        <text
           transform="matrix(1,0,0,-1,297.093,317.341)"
           style="font-variant:normal;font-weight:600;font-size:4.84973px;font-family:Montserrat;-inkscape-font-specification:Montserrat-SemiBold;writing-mode:lr-tb;fill:#ffffff;fill-opacity:1;fill-rule:nonzero;stroke:none"
           id="text720"><tspan
             x="0 2.5558078 6.3822446 9.8544178 11.401482 14.321019 17.570339"
             y="0"
             sodipodi:role="line"
             id="tspan718">JUPITER</tspan></text>
      </g>
      <path
         d="m 322.849,315.873 h -28.904 v 0.241 h 28.904 v -0.241"
         style="fill:#ffffff;fill-opacity:1;fill-rule:nonzero;stroke:none;stroke-width:0.1"
         id="path722" />
      <path
         d="m 343.915,256.024 h -0.154 c -1.132,0.01 -2.234,0.061 -3.337,0.184 -0.071,0.01 -0.142,0.01 -0.213,0.02 -0.133,0.01 -0.255,0.021 -0.388,0.041 -0.571,0.061 -1.143,0.143 -1.704,0.235 -0.195,0.03 -0.388,0.071 -0.572,0.102 -0.163,0.03 -0.336,0.061 -0.5,0.091 -0.235,0.041 -0.458,0.092 -0.673,0.144 -1.868,0.407 -3.674,0.969 -5.418,1.663 -0.358,0.142 -0.715,0.285 -1.072,0.438 -0.806,0.357 -1.582,0.725 -2.347,1.143 -0.459,0.235 -0.908,0.48 -1.347,0.745 -1.204,0.694 -2.367,1.469 -3.47,2.317 -0.887,0.663 -1.744,1.387 -2.56,2.132 -1.011,0.929 -1.97,1.918 -2.848,2.959 v 0.011 c -1.285,1.459 -2.408,2.999 -3.418,4.653 0,0 0,0 0,0.01 -0.561,0.929 -1.092,1.887 -1.571,2.877 -2.266,4.643 -3.531,9.847 -3.531,15.358 0,1.234 0.061,2.459 0.184,3.673 0.113,1 0.265,2 0.448,2.99 0.174,0.857 0.368,1.714 0.592,2.541 0.286,1.071 0.623,2.132 1.021,3.163 0,0.01 0.01,0.04 0.02,0.061 0.388,1.02 0.817,2.01 1.296,2.98 0.245,0.53 0.521,1.051 0.807,1.561 0.112,0.204 0.214,0.388 0.336,0.581 v 0.011 c 0.643,1.122 1.357,2.204 2.123,3.244 0.5,0.684 1.03,1.358 1.592,2.001 0.805,0.949 1.663,1.857 2.571,2.714 0.204,0.184 0.408,0.378 0.612,0.561 0.5,0.459 0.99,0.878 1.51,1.286 0.868,0.704 1.776,1.367 2.715,1.979 0.346,0.235 0.704,0.47 1.081,0.684 2.429,1.49 5.052,2.674 7.827,3.531 1.296,0.398 2.622,0.735 3.969,0.969 0.184,0.031 0.378,0.072 0.572,0.092 0.785,0.143 1.581,0.255 2.377,0.326 0.194,0.021 0.388,0.041 0.571,0.062 0.296,0.02 0.582,0.04 0.878,0.051 0.143,0.02 0.276,0.02 0.408,0.03 0.245,0.011 0.48,0.02 0.725,0.02 h 0.225 c 0.224,0.011 0.448,0.011 0.663,0.011 0.714,0 1.418,-0.011 2.122,-0.061 0.745,-0.051 1.479,-0.113 2.204,-0.204 0.183,-0.031 0.367,-0.051 0.531,-0.082 0.01,0 0.01,0 0.021,0 0.193,-0.02 0.397,-0.051 0.581,-0.071 v -0.01 c 0.01,0 0.03,0 0.041,-0.011 1.305,-0.183 2.571,-0.459 3.826,-0.806 0.052,-0.01 0.102,-0.031 0.153,-0.041 1.112,-0.316 2.204,-0.684 3.266,-1.112 0.764,-0.286 1.52,-0.612 2.255,-0.959 0.479,-0.225 0.959,-0.459 1.418,-0.704 0.143,-0.082 0.286,-0.153 0.428,-0.235 0.276,-0.153 0.551,-0.306 0.817,-0.469 1.183,-0.674 2.306,-1.429 3.398,-2.235 h 0.01 c 1.194,-0.898 2.316,-1.867 3.378,-2.898 0.551,-0.53 1.092,-1.092 1.612,-1.663 0.613,-0.684 1.214,-1.398 1.765,-2.133 0.715,-0.918 1.388,-1.878 2,-2.878 0.908,-1.438 1.704,-2.959 2.388,-4.54 0.091,-0.214 0.184,-0.429 0.276,-0.653 1.152,-2.796 1.959,-5.786 2.356,-8.888 0.184,-1.46 0.286,-2.96 0.286,-4.469 0,-1.756 -0.123,-3.5 -0.387,-5.195 -0.184,-1.255 -0.429,-2.469 -0.755,-3.663 -0.296,-1.204 -0.674,-2.367 -1.112,-3.51 -0.052,-0.163 -0.113,-0.326 -0.174,-0.469 -0.163,-0.408 -0.326,-0.806 -0.51,-1.204 -1.041,-2.419 -2.357,-4.694 -3.908,-6.776 -0.103,-0.143 -0.204,-0.285 -0.317,-0.428 -0.868,-1.143 -1.795,-2.235 -2.827,-3.256 -0.122,-0.153 -0.264,-0.285 -0.408,-0.438 -0.796,-0.796 -1.643,-1.561 -2.52,-2.256 -0.132,-0.111 -0.265,-0.224 -0.409,-0.336 -0.275,-0.225 -0.56,-0.439 -0.846,-0.633 -0.377,-0.296 -0.766,-0.571 -1.163,-0.837 -0.399,-0.275 -0.806,-0.54 -1.214,-0.795 -0.164,-0.103 -0.337,-0.205 -0.511,-0.297 -0.612,-0.387 -1.234,-0.734 -1.877,-1.061 -0.297,-0.163 -0.593,-0.316 -0.889,-0.448 -0.908,-0.45 -1.836,-0.858 -2.796,-1.215 -0.887,-0.347 -1.795,-0.643 -2.713,-0.908 -1.062,-0.316 -2.143,-0.572 -3.246,-0.786 -0.459,-0.082 -0.918,-0.163 -1.376,-0.234 -0.685,-0.113 -1.378,-0.184 -2.073,-0.246 -0.642,-0.061 -1.285,-0.091 -1.938,-0.112 -0.143,-0.01 -0.296,-0.01 -0.439,-0.01 -0.245,-0.01 -0.479,-0.01 -0.724,-0.01"
         style="fill:#b65b53;fill-opacity:1;fill-rule:nonzero;stroke:none;stroke-width:0.1"
         id="path724" />
      <path
         d="m 356.424,258.33 c 0.96,0.357 1.888,0.765 2.796,1.215 0.296,0.132 0.592,0.285 0.889,0.448 0.643,0.327 1.265,0.674 1.877,1.061 0.174,0.092 0.347,0.194 0.511,0.297 0.408,0.255 0.815,0.52 1.214,0.795 -0.235,9.306 -0.491,18.572 -0.021,27.908 0.378,7.684 -0.153,19.287 4.674,26.317 -1.062,1.031 -2.184,2 -3.378,2.898 h -0.01 c -1.092,0.806 -2.215,1.561 -3.398,2.235 -0.266,0.163 -0.541,0.316 -0.817,0.469 -0.142,0.082 -0.285,0.153 -0.428,0.235 -0.459,0.245 -0.939,0.479 -1.418,0.704 -0.735,0.347 -1.491,0.673 -2.255,0.959 -0.908,-1.867 -1.49,-3.908 -1.817,-5.643 -1.775,-9.694 -1.959,-19.959 -2.204,-29.796 -0.235,-9.5 -1.123,-20.245 0.673,-29.612 0.093,-0.48 0.225,-0.949 0.399,-1.398 0.918,0.265 1.826,0.561 2.713,0.908"
         style="fill:#d58b8b;fill-opacity:1;fill-rule:nonzero;stroke:none;stroke-width:0.1"
         id="path726" />
      <path
         d="m 345.078,256.044 c -0.184,0.337 -0.347,0.674 -0.5,1.01 -1.48,3.317 -1.602,7.062 -1.531,10.889 0.143,7.071 0.643,14.122 0.939,21.183 0.296,7.071 0.766,14.194 1.582,21.225 0.592,5.102 0.989,10.816 3.204,15.571 0.01,0 0.01,0 0.021,0 0.193,-0.02 0.397,-0.051 0.581,-0.071 v -0.01 c 0.01,0 0.03,0 0.041,-0.011 1.305,-0.183 2.571,-0.459 3.826,-0.806 0.052,-0.01 0.102,-0.031 0.153,-0.041 -1.214,-5.5 -3.153,-10.694 -3.878,-16.398 -0.744,-5.836 -1.183,-11.714 -1.948,-17.551 -0.775,-5.878 -1.878,-11.806 -2.123,-17.735 -0.275,-6.489 1.898,-11.295 5.02,-16.663 -0.459,-0.082 -0.918,-0.163 -1.376,-0.234 -0.685,-0.113 -1.378,-0.184 -2.073,-0.246 -0.642,-0.061 -1.285,-0.091 -1.938,-0.112"
         style="fill:#d58b8b;fill-opacity:1;fill-rule:nonzero;stroke:none;stroke-width:0.1"
         id="path728" />
      <path
         d="m 327.537,260.085 c -0.459,0.235 -0.908,0.48 -1.347,0.745 -1.204,0.694 -2.367,1.469 -3.47,2.317 2.644,11.714 2.837,23.05 1.654,35.03 -0.98,9.939 0.194,17.837 7.99,24.643 0.356,0.306 0.867,-0.184 0.52,-0.521 -2.184,-2.143 -3.419,-4.867 -4.041,-7.887 -0.01,-0.01 -0.01,-0.021 -0.01,-0.041 -0.01,-0.01 -0.01,-0.03 -0.01,-0.041 -0.337,-1.653 -0.5,-3.398 -0.531,-5.174 0,-0.01 0,-0.01 0,-0.02 -0.122,-6.255 1.286,-12.99 1.755,-18.183 0.939,-10.388 0.092,-20.776 -2.51,-30.868"
         style="fill:#d58b8b;fill-opacity:1;fill-rule:nonzero;stroke:none;stroke-width:0.1"
         id="path730" />
      <path
         d="m 317.312,268.249 c -1.285,1.459 -2.408,2.999 -3.418,4.653 0,0 0,0 0,0.01 -0.561,0.929 -1.092,1.887 -1.571,2.877 0.255,0.939 0.592,1.817 1,2.959 1.041,2.898 -0.071,7.266 -0.307,10.306 -0.5,6.276 -0.081,12.674 0.419,18.939 0.021,0.235 0.041,0.47 0.061,0.704 v 0.011 c 0.643,1.122 1.357,2.204 2.123,3.244 0.5,0.684 1.03,1.358 1.592,2.001 0.805,0.949 1.663,1.857 2.571,2.714 0.092,-4.163 -0.918,-8.837 -1.112,-12.531 -0.276,-5.245 -0.418,-10.48 -1.205,-15.684 -0.989,-6.53 0.072,-12.683 -0.142,-19.265 -0.011,-0.306 -0.021,-0.622 -0.011,-0.938"
         style="fill:#d58b8b;fill-opacity:1;fill-rule:nonzero;stroke:none;stroke-width:0.1"
         id="path732" />
      <path
         d="m 343.915,256.024 h -0.154 c -1.132,0.01 -2.234,0.061 -3.337,0.184 -0.071,0.01 -0.142,0.01 -0.213,0.02 -0.133,0.01 -0.255,0.021 -0.388,0.041 -0.296,5.01 -0.49,10.02 -0.571,15.03 v 0.123 c -0.041,2.082 -0.062,4.173 -0.052,6.255 v 0.051 c 0.011,2.715 0.052,5.439 0.112,8.153 -0.03,6.674 0.052,13.357 0.235,20.102 0.113,4.01 0.296,8 0.633,11.99 0.214,2.49 0.132,5.602 0.836,8.184 0.296,0.02 0.582,0.04 0.878,0.051 0.143,0.02 0.276,0.02 0.408,0.03 0.245,0.011 0.48,0.02 0.725,0.02 h 0.225 c 0.224,0.011 0.448,0.011 0.663,0.011 0.714,0 1.418,-0.011 2.122,-0.061 0.745,-0.051 1.479,-0.113 2.204,-0.204 0.183,-0.031 0.367,-0.051 0.531,-0.082 0.01,0 0.01,0 0.021,0 0.193,-0.02 0.397,-0.051 0.581,-0.071 v -0.01 c 0.01,0 0.03,0 0.041,-0.011 -0.878,-4.785 -2.622,-9.408 -3.378,-14.275 -0.969,-6.276 -1.347,-12.653 -1.653,-19 -0.561,-11.837 -0.469,-23.674 0.194,-35.501 0.02,-0.336 0.041,-0.683 0.061,-1.02 -0.245,-0.01 -0.479,-0.01 -0.724,-0.01"
         style="fill:#de634a;fill-opacity:1;fill-rule:nonzero;stroke:none;stroke-width:0.1"
         id="path734" />
      <path
         d="m 338.516,275.565 c -1.193,9.673 0.327,19.673 0.164,29.398 -0.082,5.071 -0.123,10.112 -0.449,15.184 -0.123,1.959 -0.255,3.805 -0.163,5.622 0.785,0.143 1.581,0.255 2.377,0.326 0.194,0.021 0.388,0.041 0.571,0.062 0.296,0.02 0.582,0.04 0.878,0.051 0.143,0.02 0.276,0.02 0.408,0.03 0.245,0.011 0.48,0.02 0.725,0.02 h 0.102 c -0.123,-2.183 -0.632,-4.356 -1.082,-6.632 -1.01,-5.163 -1.653,-10.439 -2.112,-15.683 -0.755,-8.684 0.062,-17.541 -0.735,-26.215 v -0.051 c -0.061,-0.704 -0.132,-1.408 -0.224,-2.112 -0.041,-0.296 -0.419,-0.296 -0.46,0"
         style="fill:#8b4541;fill-opacity:1;fill-rule:nonzero;stroke:none;stroke-width:0.1"
         id="path736" />
      <path
         d="m 340.211,256.228 c -0.133,0.01 -0.255,0.021 -0.388,0.041 -0.571,0.061 -1.143,0.143 -1.704,0.235 0.174,1.938 0.551,3.908 0.53,5.908 -0.041,4.061 0.225,8.081 0.235,12.133 0,0.173 0.255,0.173 0.265,0 0.021,-1.041 0.051,-2.082 0.103,-3.123 v -0.123 c 0.132,-3.255 0.326,-6.489 0.356,-9.755 0.011,-1.847 0.398,-3.581 0.603,-5.316"
         style="fill:#8b4541;fill-opacity:1;fill-rule:nonzero;stroke:none;stroke-width:0.1"
         id="path738" />
      <path
         d="m 332.537,303.657 c 0.061,1.449 0.5,2.775 0.979,4.102 v 0.01 c 0.613,1.735 1.286,3.449 1.204,5.398 -0.009,0.337 -0.04,0.684 -0.091,1.041 0,0 0,0.01 0,0.02 -0.164,1.398 -0.572,2.919 -1.357,4.082 -0.061,0.194 -0.194,0.357 -0.378,0.469 -0.255,0.306 -0.541,0.592 -0.867,0.827 -0.071,0.05 -0.163,0.061 -0.234,0.03 -0.133,-0.041 -0.236,-0.193 -0.225,-0.337 v -0.01 c 0,-0.01 0,-0.02 0.01,-0.03 0.061,-0.235 0.122,-0.46 0.194,-0.694 -0.612,-0.541 -1.143,-1.122 -1.592,-1.724 -0.01,-0.021 -0.02,-0.031 -0.041,-0.052 -0.541,-0.755 -0.979,-1.54 -1.296,-2.377 -0.01,-0.01 -0.01,-0.021 -0.01,-0.041 -0.01,-0.01 -0.01,-0.03 -0.01,-0.041 -0.643,-1.653 -0.817,-3.428 -0.531,-5.174 0,-0.01 0,-0.01 0,-0.02 0.327,-2.143 1.327,-4.234 2.96,-6.01 0.04,-0.041 0.081,-0.082 0.132,-0.112 0.469,-0.317 1.132,0.081 1.153,0.643"
         style="fill:#de634a;fill-opacity:1;fill-rule:nonzero;stroke:none;stroke-width:0.1"
         id="path740" />
      <path
         d="m 334.147,311.54 c 0.318,1.169 0.15,2.514 -0.635,3.46 -0.025,0.03 -0.053,0.048 -0.081,0.07 -0.092,0.106 -0.234,0.169 -0.397,0.121 -1.199,-0.349 -1.87,-1.497 -2.015,-2.683 -0.104,-0.86 -0.195,-3.034 0.963,-3.266 1.124,-0.224 1.933,1.448 2.165,2.298"
         style="fill:#8b4541;fill-opacity:1;fill-rule:nonzero;stroke:none;stroke-width:0.1"
         id="path742" />
      <path
         d="m 330.956,258.504 c -0.358,0.142 -0.715,0.285 -1.072,0.438 0.572,4.347 0.939,8.766 1.296,13.092 0.244,2.939 0.643,5.776 0.572,8.745 -0.072,2.673 -0.266,5.337 -0.511,8.01 -0.439,4.837 -1.245,9.562 0.143,14.225 0.102,0.357 0.224,0.714 0.357,1.071 0.47,1.265 1.163,2.46 1.775,3.674 v 0.01 c 0.449,0.877 0.848,1.765 1.113,2.694 0.367,1.295 0.306,2.541 0,3.745 0,0 0,0.01 0,0.02 -0.439,1.715 -1.377,3.347 -2.255,4.919 -0.755,-0.756 -1.48,-1.511 -2.194,-2.306 -0.01,-0.021 -0.02,-0.031 -0.041,-0.052 -0.194,-0.224 -0.398,-0.448 -0.592,-0.683 -0.091,-0.102 -0.235,0.051 -0.153,0.153 0.766,1 1.48,1.99 2.174,3.03 v 0.01 c 0.081,0.113 0.152,0.225 0.225,0.337 0.101,0.153 0.203,0.307 0.305,0.47 0.184,0.285 0.572,0.275 0.755,0 2.807,-4.133 3.949,-7.99 1.674,-12.613 -2.663,-5.408 -3.062,-11.847 -2.633,-17.796 0.449,-6.163 1.082,-12.479 0.826,-18.642 -0.112,-2.827 -0.346,-5.653 -0.805,-8.449 -0.225,-1.388 -0.562,-2.745 -0.959,-4.102"
         style="fill:#8b4541;fill-opacity:1;fill-rule:nonzero;stroke:none;stroke-width:0.1"
         id="path744" />
      <path
         d="m 360.109,259.993 c -0.153,3.848 -0.144,7.704 -0.123,11.541 -0.633,2.459 -0.449,5.572 -0.521,7.806 -0.112,3.184 -0.326,6.745 0.378,9.918 0.235,3.878 0.521,7.766 0.806,11.633 0.021,0.317 0.051,0.633 0.092,0.939 -0.347,2.337 -1.133,5.561 -0.632,8.092 0.306,2.939 1.438,5.765 3.285,8.255 0.051,0.122 0.103,0.245 0.163,0.357 0.032,0.072 0.092,0.082 0.154,0.061 0,0.011 0.009,0.021 0.02,0.031 0.062,0.082 0.193,-0.02 0.143,-0.112 -0.031,-0.041 -0.051,-0.092 -0.081,-0.143 -0.419,-2.133 -1.092,-4.245 -1.725,-6.337 0.561,0.143 1.122,0.296 1.684,0.439 0.428,0.112 0.908,-0.296 0.754,-0.755 -1.295,-3.847 -2.704,-7.623 -3.173,-11.673 -0.409,-3.511 -0.684,-7.031 -1.031,-10.541 0.184,-1.49 0.225,-3.021 0.225,-4.552 0.377,-3.979 0.377,-8.01 0.643,-11.979 0.275,-3.969 0.623,-7.939 0.816,-11.919 -0.612,-0.387 -1.234,-0.734 -1.877,-1.061"
         style="fill:#8b4541;fill-opacity:1;fill-rule:nonzero;stroke:none;stroke-width:0.1"
         id="path746" />
      <path
         d="m 356.598,288.412 c -0.337,6.683 -0.101,13.663 0.388,20.357 0.194,2.786 0.52,5.551 1.184,8.265 0.52,2.143 1.367,3.541 2.163,5.174 0.143,-0.082 0.286,-0.153 0.428,-0.235 0.276,-0.153 0.551,-0.306 0.817,-0.469 -0.194,-1.674 -0.306,-3.255 -0.898,-5.163 -1.041,-3.378 -1.602,-6.603 -1.837,-10.154 -0.398,-5.939 -0.653,-11.99 -1.541,-17.877 -0.071,-0.419 -0.694,-0.276 -0.704,0.102"
         style="fill:#8b4541;fill-opacity:1;fill-rule:nonzero;stroke:none;stroke-width:0.1"
         id="path748" />
      <path
         d="m 356.424,258.33 c -0.622,3.714 -0.213,7.837 -0.163,11.49 0.062,5.245 0.092,10.541 0.317,15.775 0,0.204 0.286,0.194 0.306,0 0.632,-5.234 1.072,-10.52 1.551,-15.775 0.306,-3.266 0.908,-6.857 0.785,-10.275 -0.908,-0.45 -1.836,-0.858 -2.796,-1.215"
         style="fill:#8b4541;fill-opacity:1;fill-rule:nonzero;stroke:none;stroke-width:0.1"
         id="path750" />
      <path
         d="m 365.72,263.616 c -0.755,4.918 -0.663,10.153 -0.775,14.296 -0.285,10.561 1.766,21.653 4.561,31.806 0.083,0.306 0.603,0.255 0.562,-0.071 -1.266,-9.919 0.173,-19.011 1.306,-28.827 0.408,-3.49 0.582,-6.99 0.827,-10.49 -0.103,-0.143 -0.204,-0.285 -0.317,-0.428 -0.868,-1.143 -1.795,-2.235 -2.827,-3.256 -0.122,-0.153 -0.264,-0.285 -0.408,-0.438 -0.796,-0.796 -1.643,-1.561 -2.52,-2.256 -0.132,-0.111 -0.265,-0.224 -0.409,-0.336"
         style="fill:#de634a;fill-opacity:1;fill-rule:nonzero;stroke:none;stroke-width:0.1"
         id="path752" />
      <path
         d="m 372.956,286.585 c -0.766,5.623 -0.582,11.164 -0.113,16.817 0.173,2.03 0.398,4.214 0.898,6.295 0.908,-1.438 1.704,-2.959 2.388,-4.54 0.091,-0.214 0.184,-0.429 0.276,-0.653 -2.592,-5.909 -2.664,-11.5 -3.144,-17.878 -0.02,-0.163 -0.285,-0.224 -0.305,-0.041"
         style="fill:#d58b8b;fill-opacity:1;fill-rule:nonzero;stroke:none;stroke-width:0.1"
         id="path754" />
      <path
         d="m 327.838,267.091 c 0,-2.109 -1.709,-3.819 -3.819,-3.819 -2.109,0 -3.819,1.71 -3.819,3.819 0,2.109 1.71,3.819 3.819,3.819 2.11,0 3.819,-1.71 3.819,-3.819"
         style="fill:#ab8664;fill-opacity:1;fill-rule:nonzero;stroke:none;stroke-width:0.1"
         id="path756" />
      <path
         d="m 323.894,269.502 c 0,-0.218 -0.177,-0.394 -0.394,-0.394 -0.217,0 -0.394,0.176 -0.394,0.394 0,0.217 0.177,0.394 0.394,0.394 0.217,0 0.394,-0.177 0.394,-0.394"
         style="fill:#fbcca0;fill-opacity:1;fill-rule:nonzero;stroke:none;stroke-width:0.1"
         id="path758" />
      <path
         d="m 322.88,266.697 c 0,-0.408 -0.332,-0.74 -0.741,-0.74 -0.408,0 -0.74,0.332 -0.74,0.74 0,0.409 0.332,0.74 0.74,0.74 0.409,0 0.741,-0.331 0.741,-0.74"
         style="fill:#fbcca0;fill-opacity:1;fill-rule:nonzero;stroke:none;stroke-width:0.1"
         id="path760" />
      <path
         d="m 326.397,265.718 c 0,-0.255 -0.207,-0.462 -0.463,-0.462 -0.255,0 -0.462,0.207 -0.462,0.462 0,0.256 0.207,0.463 0.462,0.463 0.256,0 0.463,-0.207 0.463,-0.463"
         style="fill:#fbcca0;fill-opacity:1;fill-rule:nonzero;stroke:none;stroke-width:0.1"
         id="path762" />
      <path
         d="m 324.607,267.334 c 0,-0.256 -0.207,-0.463 -0.463,-0.463 -0.255,0 -0.462,0.207 -0.462,0.463 0,0.255 0.207,0.462 0.462,0.462 0.256,0 0.463,-0.207 0.463,-0.462"
         style="fill:#fbcca0;fill-opacity:1;fill-rule:nonzero;stroke:none;stroke-width:0.1"
         id="path764" />
      <path
         d="m 324.953,265.028 c 0,-0.322 -0.261,-0.583 -0.583,-0.583 -0.323,0 -0.583,0.261 -0.583,0.583 0,0.322 0.26,0.584 0.583,0.584 0.322,0 0.583,-0.262 0.583,-0.584"
         style="fill:#fbcca0;fill-opacity:1;fill-rule:nonzero;stroke:none;stroke-width:0.1"
         id="path766" />
      <path
         d="m 325.966,268.134 c 0,-0.187 -0.151,-0.338 -0.337,-0.338 -0.187,0 -0.338,0.151 -0.338,0.338 0,0.186 0.151,0.338 0.338,0.338 0.186,0 0.337,-0.152 0.337,-0.338"
         style="fill:#fbcca0;fill-opacity:1;fill-rule:nonzero;stroke:none;stroke-width:0.1"
         id="path768" />
      <path
         d="m 383.305,282.448 c 0,-1.872 -1.517,-3.39 -3.388,-3.39 -1.872,0 -3.39,1.518 -3.39,3.39 0,1.872 1.518,3.389 3.39,3.389 1.871,0 3.388,-1.517 3.388,-3.389"
         style="fill:#d58b8b;fill-opacity:1;fill-rule:nonzero;stroke:none;stroke-width:0.1"
         id="path770" />
      <path
         d="m 379.456,284.651 c 0,-0.193 -0.157,-0.35 -0.35,-0.35 -0.193,0 -0.35,0.157 -0.35,0.35 0,0.193 0.157,0.35 0.35,0.35 0.193,0 0.35,-0.157 0.35,-0.35"
         style="fill:#de634a;fill-opacity:1;fill-rule:nonzero;stroke:none;stroke-width:0.1"
         id="path772" />
      <path
         d="m 378.611,281.791 c 0,-0.363 -0.294,-0.657 -0.657,-0.657 -0.363,0 -0.657,0.294 -0.657,0.657 0,0.363 0.294,0.657 0.657,0.657 0.363,0 0.657,-0.294 0.657,-0.657"
         style="fill:#de634a;fill-opacity:1;fill-rule:nonzero;stroke:none;stroke-width:0.1"
         id="path774" />
      <path
         d="m 382.166,280.987 c 0,-0.227 -0.184,-0.411 -0.411,-0.411 -0.226,0 -0.41,0.184 -0.41,0.411 0,0.227 0.184,0.41 0.41,0.41 0.227,0 0.411,-0.183 0.411,-0.41"
         style="fill:#de634a;fill-opacity:1;fill-rule:nonzero;stroke:none;stroke-width:0.1"
         id="path776" />
      <path
         d="m 380.804,282.686 c 0,-0.227 -0.184,-0.41 -0.411,-0.41 -0.226,0 -0.41,0.183 -0.41,0.41 0,0.227 0.184,0.41 0.41,0.41 0.227,0 0.411,-0.183 0.411,-0.41"
         style="fill:#de634a;fill-opacity:1;fill-rule:nonzero;stroke:none;stroke-width:0.1"
         id="path778" />
      <path
         d="m 380.227,279.99 c 0,-0.286 -0.231,-0.518 -0.517,-0.518 -0.287,0 -0.518,0.232 -0.518,0.518 0,0.286 0.231,0.518 0.518,0.518 0.286,0 0.517,-0.232 0.517,-0.518"
         style="fill:#de634a;fill-opacity:1;fill-rule:nonzero;stroke:none;stroke-width:0.1"
         id="path780" />
      <path
         d="m 382.055,283.673 c 0,-0.165 -0.134,-0.3 -0.3,-0.3 -0.166,0 -0.299,0.135 -0.299,0.3 0,0.166 0.133,0.3 0.299,0.3 0.166,0 0.3,-0.134 0.3,-0.3"
         style="fill:#de634a;fill-opacity:1;fill-rule:nonzero;stroke:none;stroke-width:0.1"
         id="path782" />
      <path
         d="m 351.761,256.012 c 0,-2.89 -2.343,-5.234 -5.234,-5.234 -2.891,0 -5.234,2.344 -5.234,5.234 0,2.891 2.343,5.235 5.234,5.235 2.891,0 5.234,-2.344 5.234,-5.235"
         style="fill:#61b7ca;fill-opacity:1;fill-rule:nonzero;stroke:none;stroke-width:0.1"
         id="path784" />
      <path
         d="m 345.815,259.415 c 0,-0.298 -0.241,-0.539 -0.54,-0.539 -0.298,0 -0.539,0.241 -0.539,0.539 0,0.299 0.241,0.54 0.539,0.54 0.299,0 0.54,-0.241 0.54,-0.54"
         style="fill:#7ed5ed;fill-opacity:1;fill-rule:nonzero;stroke:none;stroke-width:0.1"
         id="path786" />
      <path
         d="m 344.51,254.998 c 0,-0.56 -0.454,-1.014 -1.013,-1.014 -0.561,0 -1.015,0.454 -1.015,1.014 0,0.56 0.454,1.014 1.015,1.014 0.559,0 1.013,-0.454 1.013,-1.014"
         style="fill:#7ed5ed;fill-opacity:1;fill-rule:nonzero;stroke:none;stroke-width:0.1"
         id="path788" />
      <path
         d="m 350.001,253.756 c 0,-0.35 -0.285,-0.634 -0.634,-0.634 -0.351,0 -0.634,0.284 -0.634,0.634 0,0.35 0.283,0.634 0.634,0.634 0.349,0 0.634,-0.284 0.634,-0.634"
         style="fill:#7ed5ed;fill-opacity:1;fill-rule:nonzero;stroke:none;stroke-width:0.1"
         id="path790" />
      <path
         d="m 347.897,256.381 c 0,-0.351 -0.283,-0.634 -0.634,-0.634 -0.349,0 -0.633,0.283 -0.633,0.634 0,0.35 0.284,0.633 0.633,0.633 0.351,0 0.634,-0.283 0.634,-0.633"
         style="fill:#7ed5ed;fill-opacity:1;fill-rule:nonzero;stroke:none;stroke-width:0.1"
         id="path792" />
      <path
         d="m 347.007,252.217 c 0,-0.442 -0.358,-0.8 -0.799,-0.8 -0.442,0 -0.799,0.358 -0.799,0.8 0,0.441 0.357,0.799 0.799,0.799 0.441,0 0.799,-0.358 0.799,-0.799"
         style="fill:#7ed5ed;fill-opacity:1;fill-rule:nonzero;stroke:none;stroke-width:0.1"
         id="path794" />
      <path
         d="m 349.83,257.905 c 0,-0.256 -0.207,-0.463 -0.463,-0.463 -0.256,0 -0.463,0.207 -0.463,0.463 0,0.255 0.207,0.463 0.463,0.463 0.256,0 0.463,-0.208 0.463,-0.463"
         style="fill:#7ed5ed;fill-opacity:1;fill-rule:nonzero;stroke:none;stroke-width:0.1"
         id="path796" />
      <path
         d="m 374.421,324.052 c 0,-2.529 -2.05,-4.579 -4.58,-4.579 -2.528,0 -4.578,2.05 -4.578,4.579 0,2.528 2.05,4.578 4.578,4.578 2.53,0 4.58,-2.05 4.58,-4.578"
         style="fill:#7ed5ed;fill-opacity:1;fill-rule:nonzero;stroke:none;stroke-width:0.1"
         id="path798" />
      <path
         d="m 369.219,327.029 c 0,-0.261 -0.212,-0.473 -0.472,-0.473 -0.261,0 -0.472,0.212 -0.472,0.473 0,0.26 0.211,0.472 0.472,0.472 0.26,0 0.472,-0.212 0.472,-0.472"
         style="fill:#61b7ca;fill-opacity:1;fill-rule:nonzero;stroke:none;stroke-width:0.1"
         id="path800" />
      <path
         d="m 368.078,323.165 c 0,-0.491 -0.398,-0.887 -0.887,-0.887 -0.49,0 -0.888,0.396 -0.888,0.887 0,0.489 0.398,0.887 0.888,0.887 0.489,0 0.887,-0.398 0.887,-0.887"
         style="fill:#61b7ca;fill-opacity:1;fill-rule:nonzero;stroke:none;stroke-width:0.1"
         id="path802" />
      <path
         d="m 372.88,322.078 c 0,-0.306 -0.248,-0.554 -0.554,-0.554 -0.307,0 -0.555,0.248 -0.555,0.554 0,0.306 0.248,0.555 0.555,0.555 0.306,0 0.554,-0.249 0.554,-0.555"
         style="fill:#61b7ca;fill-opacity:1;fill-rule:nonzero;stroke:none;stroke-width:0.1"
         id="path804" />
      <path
         d="m 371.041,324.374 c 0,-0.306 -0.248,-0.555 -0.555,-0.555 -0.306,0 -0.554,0.249 -0.554,0.555 0,0.306 0.248,0.554 0.554,0.554 0.307,0 0.555,-0.248 0.555,-0.554"
         style="fill:#61b7ca;fill-opacity:1;fill-rule:nonzero;stroke:none;stroke-width:0.1"
         id="path806" />
      <path
         d="m 370.262,320.732 c 0,-0.387 -0.313,-0.7 -0.699,-0.7 -0.387,0 -0.7,0.313 -0.7,0.7 0,0.386 0.313,0.699 0.7,0.699 0.386,0 0.699,-0.313 0.699,-0.699"
         style="fill:#61b7ca;fill-opacity:1;fill-rule:nonzero;stroke:none;stroke-width:0.1"
         id="path808" />
      <path
         d="m 372.731,325.707 c 0,-0.224 -0.182,-0.405 -0.405,-0.405 -0.224,0 -0.405,0.181 -0.405,0.405 0,0.224 0.181,0.405 0.405,0.405 0.223,0 0.405,-0.181 0.405,-0.405"
         style="fill:#61b7ca;fill-opacity:1;fill-rule:nonzero;stroke:none;stroke-width:0.1"
         id="path810" />
      <path
         d="m 374.585,259.955 c 0,-1.187 -0.962,-2.149 -2.149,-2.149 -1.186,0 -2.149,0.962 -2.149,2.149 0,1.187 0.963,2.149 2.149,2.149 1.187,0 2.149,-0.962 2.149,-2.149"
         style="fill:#aeb3b4;fill-opacity:1;fill-rule:nonzero;stroke:none;stroke-width:0.1"
         id="path812" />
      <path
         d="m 372.144,261.352 c 0,-0.122 -0.099,-0.221 -0.222,-0.221 -0.123,0 -0.221,0.099 -0.221,0.221 0,0.122 0.098,0.222 0.221,0.222 0.123,0 0.222,-0.1 0.222,-0.222"
         style="fill:#e0e1e0;fill-opacity:1;fill-rule:nonzero;stroke:none;stroke-width:0.1"
         id="path814" />
      <path
         d="m 371.608,259.539 c 0,-0.23 -0.186,-0.417 -0.416,-0.417 -0.23,0 -0.417,0.187 -0.417,0.417 0,0.23 0.187,0.416 0.417,0.416 0.23,0 0.416,-0.186 0.416,-0.416"
         style="fill:#e0e1e0;fill-opacity:1;fill-rule:nonzero;stroke:none;stroke-width:0.1"
         id="path816" />
      <path
         d="m 373.862,259.029 c 0,-0.144 -0.116,-0.26 -0.26,-0.26 -0.144,0 -0.261,0.116 -0.261,0.26 0,0.144 0.117,0.26 0.261,0.26 0.144,0 0.26,-0.116 0.26,-0.26"
         style="fill:#e0e1e0;fill-opacity:1;fill-rule:nonzero;stroke:none;stroke-width:0.1"
         id="path818" />
      <path
         d="m 372.999,260.106 c 0,-0.143 -0.117,-0.26 -0.26,-0.26 -0.145,0 -0.261,0.117 -0.261,0.26 0,0.144 0.116,0.26 0.261,0.26 0.143,0 0.26,-0.116 0.26,-0.26"
         style="fill:#e0e1e0;fill-opacity:1;fill-rule:nonzero;stroke:none;stroke-width:0.1"
         id="path820" />
      <path
         d="m 372.633,258.397 c 0,-0.181 -0.147,-0.328 -0.328,-0.328 -0.181,0 -0.328,0.147 -0.328,0.328 0,0.181 0.147,0.328 0.328,0.328 0.181,0 0.328,-0.147 0.328,-0.328"
         style="fill:#e0e1e0;fill-opacity:1;fill-rule:nonzero;stroke:none;stroke-width:0.1"
         id="path822" />
      <path
         d="m 373.792,260.732 c 0,-0.105 -0.085,-0.19 -0.19,-0.19 -0.105,0 -0.19,0.085 -0.19,0.19 0,0.105 0.085,0.19 0.19,0.19 0.105,0 0.19,-0.085 0.19,-0.19"
         style="fill:#e0e1e0;fill-opacity:1;fill-rule:nonzero;stroke:none;stroke-width:0.1"
         id="path824" />
      <path
         d="m 336.493,325.804 c 0,-1.212 -0.983,-2.194 -2.195,-2.194 -1.211,0 -2.194,0.982 -2.194,2.194 0,1.212 0.983,2.195 2.194,2.195 1.212,0 2.195,-0.983 2.195,-2.195"
         style="fill:#e0e1e0;fill-opacity:1;fill-rule:nonzero;stroke:none;stroke-width:0.1"
         id="path826" />
      <path
         d="m 334.001,327.231 c 0,-0.125 -0.102,-0.226 -0.227,-0.226 -0.125,0 -0.227,0.101 -0.227,0.226 0,0.125 0.102,0.226 0.227,0.226 0.125,0 0.227,-0.101 0.227,-0.226"
         style="fill:#aeb3b4;fill-opacity:1;fill-rule:nonzero;stroke:none;stroke-width:0.1"
         id="path828" />
      <path
         d="m 333.454,325.379 c 0,-0.235 -0.191,-0.425 -0.426,-0.425 -0.234,0 -0.425,0.19 -0.425,0.425 0,0.235 0.191,0.425 0.425,0.425 0.235,0 0.426,-0.19 0.426,-0.425"
         style="fill:#aeb3b4;fill-opacity:1;fill-rule:nonzero;stroke:none;stroke-width:0.1"
         id="path830" />
      <path
         d="m 335.755,324.858 c 0,-0.146 -0.119,-0.266 -0.266,-0.266 -0.147,0 -0.266,0.12 -0.266,0.266 0,0.147 0.119,0.266 0.266,0.266 0.147,0 0.266,-0.119 0.266,-0.266"
         style="fill:#aeb3b4;fill-opacity:1;fill-rule:nonzero;stroke:none;stroke-width:0.1"
         id="path832" />
      <path
         d="m 334.874,325.959 c 0,-0.147 -0.119,-0.266 -0.266,-0.266 -0.147,0 -0.267,0.119 -0.267,0.266 0,0.146 0.12,0.265 0.267,0.265 0.147,0 0.266,-0.119 0.266,-0.265"
         style="fill:#aeb3b4;fill-opacity:1;fill-rule:nonzero;stroke:none;stroke-width:0.1"
         id="path834" />
      <path
         d="m 334.5,324.213 c 0,-0.185 -0.15,-0.335 -0.335,-0.335 -0.185,0 -0.335,0.15 -0.335,0.335 0,0.185 0.15,0.335 0.335,0.335 0.185,0 0.335,-0.15 0.335,-0.335"
         style="fill:#aeb3b4;fill-opacity:1;fill-rule:nonzero;stroke:none;stroke-width:0.1"
         id="path836" />
      <path
         d="m 335.683,326.597 c 0,-0.107 -0.087,-0.193 -0.194,-0.193 -0.107,0 -0.193,0.086 -0.193,0.193 0,0.108 0.086,0.195 0.193,0.195 0.107,0 0.194,-0.087 0.194,-0.195"
         style="fill:#aeb3b4;fill-opacity:1;fill-rule:nonzero;stroke:none;stroke-width:0.1"
         id="path838" />
      <path
         d="m 309.797,300.361 c 0,-1.338 -1.083,-2.423 -2.421,-2.423 -1.338,0 -2.422,1.085 -2.422,2.423 0,1.337 1.084,2.422 2.422,2.422 1.338,0 2.421,-1.085 2.421,-2.422"
         style="fill:#b65b53;fill-opacity:1;fill-rule:nonzero;stroke:none;stroke-width:0.1"
         id="path840" />
      <path
         d="m 307.047,301.935 c 0,-0.138 -0.113,-0.25 -0.25,-0.25 -0.138,0 -0.25,0.112 -0.25,0.25 0,0.138 0.112,0.25 0.25,0.25 0.137,0 0.25,-0.112 0.25,-0.25"
         style="fill:#d58b8b;fill-opacity:1;fill-rule:nonzero;stroke:none;stroke-width:0.1"
         id="path842" />
      <path
         d="m 306.443,299.891 c 0,-0.259 -0.211,-0.469 -0.47,-0.469 -0.259,0 -0.469,0.21 -0.469,0.469 0,0.26 0.21,0.47 0.469,0.47 0.259,0 0.47,-0.21 0.47,-0.47"
         style="fill:#d58b8b;fill-opacity:1;fill-rule:nonzero;stroke:none;stroke-width:0.1"
         id="path844" />
      <path
         d="m 308.983,299.317 c 0,-0.163 -0.131,-0.294 -0.293,-0.294 -0.162,0 -0.293,0.131 -0.293,0.294 0,0.161 0.131,0.293 0.293,0.293 0.162,0 0.293,-0.132 0.293,-0.293"
         style="fill:#d58b8b;fill-opacity:1;fill-rule:nonzero;stroke:none;stroke-width:0.1"
         id="path846" />
      <path
         d="m 308.01,300.531 c 0,-0.162 -0.131,-0.294 -0.294,-0.294 -0.162,0 -0.293,0.132 -0.293,0.294 0,0.162 0.131,0.293 0.293,0.293 0.163,0 0.294,-0.131 0.294,-0.293"
         style="fill:#d58b8b;fill-opacity:1;fill-rule:nonzero;stroke:none;stroke-width:0.1"
         id="path848" />
      <path
         d="m 307.598,298.604 c 0,-0.204 -0.166,-0.37 -0.37,-0.37 -0.204,0 -0.37,0.166 -0.37,0.37 0,0.204 0.166,0.37 0.37,0.37 0.204,0 0.37,-0.166 0.37,-0.37"
         style="fill:#d58b8b;fill-opacity:1;fill-rule:nonzero;stroke:none;stroke-width:0.1"
         id="path850" />
      <path
         d="m 308.904,301.236 c 0,-0.118 -0.096,-0.214 -0.214,-0.214 -0.118,0 -0.215,0.096 -0.215,0.214 0,0.119 0.097,0.214 0.215,0.214 0.118,0 0.214,-0.095 0.214,-0.214"
         style="fill:#d58b8b;fill-opacity:1;fill-rule:nonzero;stroke:none;stroke-width:0.1"
         id="path852" />
    </g>
  </g>
</svg>
