<?xml version="1.0" encoding="UTF-8" standalone="no"?>
<!-- Created with Inkscape (http://www.inkscape.org/) -->

<svg
   width="18.328922mm"
   height="10.074981mm"
   viewBox="0 0 18.328922 10.074981"
   version="1.1"
   id="svg7539"
   inkscape:version="1.1.1 (1:1.1+202109281949+c3084ef5ed)"
   sodipodi:docname="mars.svg"
   xmlns:inkscape="http://www.inkscape.org/namespaces/inkscape"
   xmlns:sodipodi="http://sodipodi.sourceforge.net/DTD/sodipodi-0.dtd"
   xmlns="http://www.w3.org/2000/svg"
   xmlns:svg="http://www.w3.org/2000/svg">
  <sodipodi:namedview
     id="namedview7541"
     pagecolor="#000000"
     bordercolor="#666666"
     borderopacity="1.0"
     inkscape:pageshadow="2"
     inkscape:pageopacity="1"
     inkscape:pagecheckerboard="0"
     inkscape:document-units="mm"
     showgrid="false"
     fit-margin-top="0"
     fit-margin-left="0"
     fit-margin-right="0"
     fit-margin-bottom="0"
     inkscape:zoom="8.1235538"
     inkscape:cx="-25.973854"
     inkscape:cy="-0.86169184"
     inkscape:window-width="2560"
     inkscape:window-height="1000"
     inkscape:window-x="1200"
     inkscape:window-y="1080"
     inkscape:window-maximized="1"
     inkscape:current-layer="layer1" />
  <defs
     id="defs7536" />
  <g
     inkscape:label="Layer 1"
     inkscape:groupmode="layer"
     id="layer1"
     transform="translate(-337.94968,-214.21189)">
    <g
       id="g7472"
       transform="matrix(0.35277777,0,0,-0.35277777,249.63953,275.84887)">
      <g
         id="g648">
        <text
           transform="matrix(1,0,0,-1,285.811,158.052)"
           style="font-variant:normal;font-weight:600;font-size:4.84973px;font-family:Montserrat;-inkscape-font-specification:Montserrat-SemiBold;writing-mode:lr-tb;fill:#ffffff;fill-opacity:1;fill-rule:nonzero;stroke:none"
           id="text652"><tspan
             x="0 4.6314921 8.2639399 11.809093"
             y="0"
             sodipodi:role="line"
             id="tspan650">MARS</tspan></text>
      </g>
      <path
         d="m 302.284,156.584 h -19.621 v 0.241 h 19.621 v -0.241"
         style="fill:#ffffff;fill-opacity:1;fill-rule:nonzero;stroke:none;stroke-width:0.1"
         id="path654" />
      <path
         d="m 269.956,146.16 c -1.668,0 -3.272,0.286 -4.758,0.811 -2.22,0.787 -4.187,2.104 -5.744,3.791 -2.35,2.544 -3.778,5.939 -3.778,9.678 0,2.284 0.533,4.44 1.487,6.348 2.336,4.699 7.184,7.931 12.793,7.931 0.519,0 1.025,-0.026 1.531,-0.078 2.168,-0.233 4.193,-0.954 5.965,-2.045 2.356,-1.46 4.258,-3.582 5.439,-6.107 0.196,-0.409 0.37,-0.831 0.527,-1.266 0.532,-1.493 0.817,-3.102 0.817,-4.783 0,-5.888 -3.557,-10.937 -8.646,-13.118 -1.726,-0.753 -3.634,-1.162 -5.633,-1.162"
         style="fill:#b65b53;fill-opacity:1;fill-rule:nonzero;stroke:none;stroke-width:0.1"
         id="path656" />
      <path
         d="m 271.604,158.96 c -0.265,-0.013 -0.506,0.039 -0.726,0.051 -0.28,0.014 -0.539,-0.064 -0.748,-0.025 -0.285,0.052 -0.505,0.201 -0.687,0.279 -0.357,0.149 -0.416,0.396 -0.468,0.493 -0.064,0.13 -0.084,0.305 0.032,0.552 0.092,0.182 0.221,0.357 0.384,0.506 0.111,0.104 0.006,0.351 -0.097,0.623 -0.072,0.189 -0.091,0.429 -0.214,0.617 -0.13,0.188 -0.267,0.383 -0.409,0.513 -0.214,0.194 -0.468,0.253 -0.611,0.149 -0.149,-0.104 -0.299,-0.266 -0.461,-0.416 -0.155,-0.149 -0.337,-0.265 -0.486,-0.382 -0.215,-0.162 -0.416,-0.351 -0.559,-0.292 -0.13,0.045 -0.35,0.058 -0.571,0.142 -0.175,0.066 -0.266,0.363 -0.435,0.454 -0.194,0.105 -0.448,0.098 -0.539,0.228 -0.096,0.137 -0.272,0.324 -0.317,0.539 -0.039,0.187 -0.065,0.441 -0.033,0.642 0.033,0.195 0.117,0.461 0.254,0.617 0.123,0.136 0.135,0.24 -0.098,0.448 -0.137,0.13 -0.396,0.116 -0.617,0.226 -0.182,0.091 -0.318,0.345 -0.538,0.403 -0.208,0.058 -0.435,0.117 -0.655,0.124 -0.221,0.006 -0.481,0.064 -0.696,0.006 -0.207,-0.065 -0.265,-0.422 -0.447,-0.565 -0.221,-0.175 -0.402,-0.324 -0.565,-0.473 -0.22,-0.221 -0.455,-0.338 -0.597,-0.468 -0.24,-0.221 -0.506,-0.363 -0.76,-0.221 -0.148,0.085 -0.155,0.436 -0.383,0.695 -0.162,0.188 -0.35,0.305 -0.48,0.441 -0.175,0.188 -0.363,0.299 -0.493,0.422 -0.188,0.169 -0.409,0.215 -0.552,0.338 -0.149,0.13 -0.376,0.194 -0.538,0.382 -0.15,0.163 -0.137,0.481 -0.267,0.682 -0.019,0.032 -0.045,0.066 -0.064,0.098 2.336,4.699 7.184,7.931 12.793,7.931 0.519,0 1.025,-0.026 1.531,-0.078 0.046,-0.208 0.046,-0.415 0.137,-0.564 0.123,-0.208 0.253,-0.442 0.402,-0.584 0.182,-0.176 0.39,-0.325 0.552,-0.442 0.266,-0.188 0.72,-0.208 0.694,-0.357 -0.032,-0.221 -0.415,-0.292 -0.577,-0.435 -0.228,-0.201 -0.455,-0.357 -0.513,-0.409 -0.039,-0.026 0.221,-0.331 0.442,-0.669 0.135,-0.207 0.22,-0.473 0.363,-0.674 0.227,-0.318 0.441,-0.565 0.467,-0.597 0.032,-0.052 -0.351,-0.292 -0.538,-0.682 -0.124,-0.26 -0.202,-0.61 -0.208,-0.889 -0.013,-0.214 0.123,-0.455 0.253,-0.597 0.136,-0.143 0.448,-0.091 0.597,-0.201 0.188,-0.143 0.234,-0.364 0.24,-0.533 0.013,-0.162 0.234,-0.376 0.234,-0.61 0,-0.208 -0.215,-0.395 -0.292,-0.584 -0.078,-0.181 -0.137,-0.39 -0.338,-0.507 -0.162,-0.091 0.046,-0.226 0.228,-0.551 0.096,-0.182 0.012,-0.526 0.162,-0.753 0.13,-0.195 0.22,-0.428 0.356,-0.636 0.137,-0.208 0.441,-0.312 0.552,-0.52 0.13,-0.239 0.345,-0.46 0.389,-0.668 0.059,-0.279 -0.103,-0.623 -0.318,-0.765 -0.194,-0.13 -0.538,-0.105 -0.681,-0.286 -0.149,-0.175 -0.09,-0.513 -0.22,-0.707 -0.13,-0.189 -0.208,-0.436 -0.358,-0.611 -0.142,-0.176 -0.311,-0.396 -0.5,-0.532 -0.174,-0.13 -0.434,-0.253 -0.674,-0.331 -0.195,-0.059 -0.474,0.026 -0.734,0.013"
         style="fill:#8b4541;fill-opacity:1;fill-rule:nonzero;stroke:none;stroke-width:0.1"
         id="path658" />
      <path
         d="m 265.198,146.971 c -2.22,0.787 -4.187,2.104 -5.744,3.791 0.162,0.006 0.311,0.02 0.428,0.059 0.305,0.091 0.46,0.246 0.428,0.467 -0.025,0.208 -0.194,0.428 -0.116,0.623 0.084,0.215 0.272,0.299 0.474,0.253 0.188,-0.038 0.298,-0.246 0.415,-0.383 0.071,-0.084 0.428,-0.045 0.792,-0.084 0.227,-0.026 0.48,-0.143 0.74,-0.156 0.26,-0.006 0.525,0.124 0.753,0.117 0.428,0 0.428,-0.273 0.694,-0.007 0.253,0.254 -0.078,0.228 -0.098,0.656 -0.012,0.214 0.091,0.461 0.091,0.727 0.007,0.233 -0.006,0.48 0.014,0.721 0.013,0.246 0.097,0.48 0.136,0.713 0.046,0.247 0.032,0.506 0.11,0.714 0.091,0.221 0.182,0.429 0.299,0.552 0.155,0.169 0.415,0.117 0.591,0.169 0.201,0.059 0.383,0.272 0.577,0.266 0.227,-0.006 0.422,-0.026 0.584,0 0.143,0.019 0.384,-0.286 0.539,-0.629 0.098,-0.201 0.11,-0.481 0.201,-0.734 0.078,-0.234 0.24,-0.455 0.312,-0.695 0.071,-0.253 0.058,-0.525 0.11,-0.739 0.117,-0.422 0.123,-0.351 0.149,-0.728 0.027,-0.311 -0.097,-0.233 -0.149,-0.61 -0.026,-0.188 0.117,-0.428 0.078,-0.661 -0.039,-0.202 -0.182,-0.397 -0.227,-0.611 -0.045,-0.208 -0.104,-0.416 -0.156,-0.617 -0.065,-0.221 -0.169,-0.402 -0.247,-0.577 -0.103,-0.24 -0.084,-0.532 -0.214,-0.636 -0.175,-0.136 -0.377,-0.234 -0.551,-0.389 -0.157,-0.137 -0.247,-0.326 -0.383,-0.533 -0.117,-0.169 -0.28,-0.311 -0.37,-0.551 -0.059,-0.15 -0.189,-0.306 -0.26,-0.488"
         style="fill:#8b4541;fill-opacity:1;fill-rule:nonzero;stroke:none;stroke-width:0.1"
         id="path660" />
      <path
         d="m 263.546,159.914 c -0.247,-0.04 -0.498,-0.031 -0.673,0.108 -0.161,0.126 -0.253,0.367 -0.382,0.569 -0.118,0.184 -0.277,0.358 -0.389,0.549 -0.119,0.205 -0.226,0.397 -0.363,0.548 -0.162,0.181 -0.309,0.334 -0.532,0.345 -0.178,0.008 -0.385,-0.049 -0.625,-0.209 -0.225,-0.15 -0.397,-0.31 -0.57,-0.383 -0.271,-0.113 -0.498,-0.171 -0.666,-0.185 -0.316,-0.029 -0.434,0.073 -0.536,-0.172 -0.053,-0.127 -0.168,-0.308 -0.202,-0.641 -0.027,-0.252 -0.081,-0.48 -0.066,-0.676 0.017,-0.249 0.115,-0.466 0.189,-0.653 0.083,-0.209 0.185,-0.414 0.323,-0.592 0.127,-0.163 0.368,-0.244 0.53,-0.42 0.137,-0.15 0.267,-0.332 0.422,-0.516 0.129,-0.154 0.238,-0.358 0.322,-0.575 0.073,-0.192 0.062,-0.424 0.107,-0.644 0.043,-0.21 0.189,-0.413 0.211,-0.629 0.023,-0.222 -0.014,-0.449 -0.006,-0.656 0.008,-0.239 -0.013,-0.462 -0.017,-0.653 -0.007,-0.385 -0.343,-0.525 -0.064,-0.687 0.281,-0.162 0.246,0.191 0.557,0.419 0.155,0.114 0.368,0.207 0.55,0.359 0.161,0.136 0.347,0.27 0.503,0.426 0.157,0.158 0.311,0.333 0.435,0.503 0.138,0.187 0.126,0.444 0.19,0.634 0.07,0.209 0.253,0.363 0.332,0.542 0.09,0.206 0.166,0.396 0.269,0.558 0.123,0.195 0.215,0.391 0.356,0.514 0.171,0.148 0.372,0.213 0.567,0.244 0.194,0.03 0.309,0.271 0.341,0.564 0.024,0.213 0.071,0.482 -0.003,0.711 -0.073,0.227 -0.234,0.455 -0.417,0.59 -0.17,0.127 -0.42,0.152 -0.693,0.108"
         style="fill:#8b4541;fill-opacity:1;fill-rule:nonzero;stroke:none;stroke-width:0.1"
         id="path662" />
      <path
         d="m 275.369,166.19 c -0.104,0.156 -0.117,0.397 -0.156,0.623 -0.039,0.221 -0.065,0.481 -0.24,0.605 -0.176,0.129 -0.169,0.285 -0.097,0.538 0.051,0.181 0.09,0.402 0.22,0.603 0.117,0.176 0.312,0.299 0.461,0.468 0.143,0.169 0.24,0.383 0.396,0.525 0.181,0.15 0.37,0.273 0.539,0.371 0.395,0.227 0.513,0.473 0.454,0.681 -0.084,0.285 -0.422,0.52 -0.422,0.707 0,0.169 0.071,0.377 0.331,0.669 0.137,0.162 0.273,0.396 0.545,0.584 0.02,0.013 0.033,0.02 0.052,0.032 2.356,-1.46 4.258,-3.582 5.439,-6.107 -0.136,-0.117 -0.304,-0.149 -0.486,-0.201 -0.201,-0.059 -0.397,-0.201 -0.623,-0.195 -0.215,0.006 -0.422,0.117 -0.637,0.163 -0.214,0.051 -0.415,0.11 -0.616,0.181 -0.214,0.084 -0.397,0.201 -0.571,0.299 -0.221,0.123 -0.488,0.148 -0.598,0.272 -0.188,0.214 -0.305,0.305 -0.493,0.299 -0.168,-0.007 -0.318,-0.13 -0.552,-0.259 -0.162,-0.085 -0.369,-0.144 -0.584,-0.267 -0.162,-0.091 -0.395,-0.116 -0.603,-0.221 -0.182,-0.091 -0.376,-0.155 -0.591,-0.246 -0.253,-0.104 -0.435,-0.181 -0.597,-0.215 -0.318,-0.058 -0.48,-0.051 -0.571,0.091"
         style="fill:#8b4541;fill-opacity:1;fill-rule:nonzero;stroke:none;stroke-width:0.1"
         id="path664" />
      <path
         d="m 275.589,147.322 c -0.006,0.085 -0.006,0.162 0,0.247 0.007,0.221 -0.006,0.461 -0.012,0.701 0,0.246 -0.124,0.467 -0.117,0.668 0,0.253 -0.195,0.487 -0.189,0.675 0.02,0.292 0.39,0.448 0.429,0.598 0.097,0.35 0.032,0.311 0.24,0.135 0.136,-0.116 0.376,-0.194 0.552,-0.376 0.149,-0.156 0.272,-0.357 0.447,-0.5 0.176,-0.135 0.384,-0.233 0.591,-0.292 0.201,-0.058 0.39,0 0.623,0.084 0.24,0.085 0.396,0.176 0.519,0.331 0.143,0.176 0.332,0.338 0.358,0.566 0.025,0.207 -0.124,0.428 -0.163,0.655 -0.039,0.221 -0.091,0.429 -0.162,0.636 -0.078,0.221 -0.273,0.377 -0.357,0.552 -0.169,0.35 0.156,0.584 -0.156,0.688 -0.331,0.11 -0.318,0.006 -0.721,-0.13 -0.194,-0.065 -0.376,-0.279 -0.629,-0.35 -0.214,-0.066 -0.461,-0.066 -0.694,-0.13 -0.227,-0.059 -0.494,0.064 -0.721,0.012 -0.24,-0.058 -0.461,-0.084 -0.681,-0.116 -0.253,-0.046 -0.449,-0.117 -0.656,-0.117 -0.305,-0.007 -0.467,-0.091 -0.604,0.013 -0.201,0.156 -0.59,0.156 -0.648,0.318 -0.072,0.214 0.298,0.565 0.376,0.734 -0.163,-0.033 -0.519,0.058 -0.786,-0.013 -0.169,-0.046 -0.311,-0.24 -0.564,-0.279 -0.253,-0.04 -0.461,-0.338 -0.655,-0.338 -0.247,0 -0.488,0.104 -0.696,0.156 -0.207,0.052 -0.292,0.467 -0.518,0.558 -0.189,0.072 -0.468,-0.033 -0.701,0.058 -0.312,0.124 -0.481,0.299 -0.435,0.539 0.038,0.194 0.402,0.266 0.577,0.481 0.156,0.181 0.137,0.538 0.324,0.701 0.202,0.175 0.539,0.136 0.715,0.246 0.312,0.195 0.259,0.507 0.376,0.591 0.111,0.078 0.201,0.181 0.481,0.415 0.123,0.104 0.24,0.292 0.454,0.468 0.272,0.226 0.61,0.213 0.74,0.337 0.26,0.266 0.285,0.409 0.506,0.604 0.13,0.116 0.39,0.162 0.701,0.383 0.267,0.181 0.429,0.447 0.623,0.493 0.305,0.064 0.643,0.045 0.844,-0.078 0.221,-0.136 0.195,-0.655 0.389,-0.798 0.169,-0.124 0.526,0.233 0.871,0.272 0.213,0.026 0.324,0.013 0.623,0.123 -0.034,0.182 -0.007,0.286 0.071,0.591 0.045,0.189 0.305,0.364 0.422,0.616 0.091,0.196 0.032,0.5 0.169,0.734 0.11,0.188 0.408,0.292 0.551,0.507 0.124,0.187 0.325,0.337 0.474,0.545 0.136,0.181 0.408,0.272 0.571,0.473 0.143,0.176 -0.006,0.598 0.156,0.799 0.156,0.188 0.487,0.188 0.635,0.337 0.176,0.176 0.332,0.306 0.495,0.429 0.194,0.149 0.415,0.181 0.596,0.285 0.201,0.124 0.195,0.578 0.39,0.682 0.194,0.104 0.415,0.143 0.603,0.272 0.175,0.124 0.221,0.357 0.396,0.532 0.143,0.144 0.39,0.189 0.532,0.397 0.053,0.078 0.163,0.13 0.274,0.181 0.532,-1.493 0.817,-3.102 0.817,-4.783 0,-5.888 -3.557,-10.937 -8.646,-13.118"
         style="fill:#8b4541;fill-opacity:1;fill-rule:nonzero;stroke:none;stroke-width:0.1"
         id="path666" />
      <path
         d="m 286.408,168.529 c 0,-1.942 -1.574,-3.517 -3.517,-3.517 -1.942,0 -3.516,1.575 -3.516,3.517 0,1.942 1.574,3.517 3.516,3.517 1.943,0 3.517,-1.575 3.517,-3.517"
         style="fill:#ab8664;fill-opacity:1;fill-rule:nonzero;stroke:none;stroke-width:0.1"
         id="path668" />
      <path
         d="m 282.776,170.75 c 0,-0.201 -0.162,-0.364 -0.362,-0.364 -0.2,0 -0.364,0.163 -0.364,0.364 0,0.2 0.164,0.362 0.364,0.362 0.2,0 0.362,-0.162 0.362,-0.362"
         style="fill:#fbcca0;fill-opacity:1;fill-rule:nonzero;stroke:none;stroke-width:0.1"
         id="path670" />
      <path
         d="m 281.841,168.167 c 0,-0.376 -0.304,-0.682 -0.68,-0.682 -0.377,0 -0.682,0.306 -0.682,0.682 0,0.376 0.305,0.681 0.682,0.681 0.376,0 0.68,-0.305 0.68,-0.681"
         style="fill:#fbcca0;fill-opacity:1;fill-rule:nonzero;stroke:none;stroke-width:0.1"
         id="path672" />
      <path
         d="m 285.081,167.265 c 0,-0.235 -0.191,-0.425 -0.426,-0.425 -0.234,0 -0.426,0.19 -0.426,0.425 0,0.236 0.192,0.426 0.426,0.426 0.235,0 0.426,-0.19 0.426,-0.426"
         style="fill:#fbcca0;fill-opacity:1;fill-rule:nonzero;stroke:none;stroke-width:0.1"
         id="path674" />
      <path
         d="m 283.432,168.753 c 0,-0.236 -0.19,-0.426 -0.426,-0.426 -0.235,0 -0.425,0.19 -0.425,0.426 0,0.235 0.19,0.425 0.425,0.425 0.236,0 0.426,-0.19 0.426,-0.425"
         style="fill:#fbcca0;fill-opacity:1;fill-rule:nonzero;stroke:none;stroke-width:0.1"
         id="path676" />
      <path
         d="m 283.752,166.63 c 0,-0.297 -0.242,-0.538 -0.538,-0.538 -0.296,0 -0.537,0.241 -0.537,0.538 0,0.296 0.241,0.537 0.537,0.537 0.296,0 0.538,-0.241 0.538,-0.537"
         style="fill:#fbcca0;fill-opacity:1;fill-rule:nonzero;stroke:none;stroke-width:0.1"
         id="path678" />
      <path
         d="m 284.685,169.49 c 0,-0.172 -0.139,-0.312 -0.311,-0.312 -0.172,0 -0.312,0.14 -0.312,0.312 0,0.172 0.14,0.31 0.312,0.31 0.172,0 0.311,-0.138 0.311,-0.31"
         style="fill:#fbcca0;fill-opacity:1;fill-rule:nonzero;stroke:none;stroke-width:0.1"
         id="path680" />
      <path
         d="m 255.029,153.575 c 0,-1.299 -1.053,-2.352 -2.351,-2.352 -1.298,0 -2.35,1.053 -2.35,2.352 0,1.298 1.052,2.35 2.35,2.35 1.298,0 2.351,-1.052 2.351,-2.35"
         style="fill:#ab8664;fill-opacity:1;fill-rule:nonzero;stroke:none;stroke-width:0.1"
         id="path682" />
      <path
         d="m 252.601,155.058 c 0,-0.134 -0.108,-0.242 -0.242,-0.242 -0.134,0 -0.242,0.108 -0.242,0.242 0,0.134 0.108,0.242 0.242,0.242 0.134,0 0.242,-0.108 0.242,-0.242"
         style="fill:#fbcca0;fill-opacity:1;fill-rule:nonzero;stroke:none;stroke-width:0.1"
         id="path684" />
      <path
         d="m 251.977,153.332 c 0,-0.251 -0.204,-0.455 -0.456,-0.455 -0.251,0 -0.455,0.204 -0.455,0.455 0,0.252 0.204,0.456 0.455,0.456 0.252,0 0.456,-0.204 0.456,-0.456"
         style="fill:#fbcca0;fill-opacity:1;fill-rule:nonzero;stroke:none;stroke-width:0.1"
         id="path686" />
      <path
         d="m 254.142,152.729 c 0,-0.156 -0.128,-0.284 -0.285,-0.284 -0.157,0 -0.284,0.128 -0.284,0.284 0,0.157 0.127,0.285 0.284,0.285 0.157,0 0.285,-0.128 0.285,-0.285"
         style="fill:#fbcca0;fill-opacity:1;fill-rule:nonzero;stroke:none;stroke-width:0.1"
         id="path688" />
      <path
         d="m 253.04,153.723 c 0,-0.157 -0.127,-0.284 -0.285,-0.284 -0.157,0 -0.284,0.127 -0.284,0.284 0,0.158 0.127,0.285 0.284,0.285 0.158,0 0.285,-0.127 0.285,-0.285"
         style="fill:#fbcca0;fill-opacity:1;fill-rule:nonzero;stroke:none;stroke-width:0.1"
         id="path690" />
      <path
         d="m 253.254,152.304 c 0,-0.198 -0.162,-0.358 -0.36,-0.358 -0.198,0 -0.359,0.16 -0.359,0.358 0,0.199 0.161,0.36 0.359,0.36 0.198,0 0.36,-0.161 0.36,-0.36"
         style="fill:#fbcca0;fill-opacity:1;fill-rule:nonzero;stroke:none;stroke-width:0.1"
         id="path692" />
      <path
         d="m 253.878,154.216 c 0,-0.115 -0.094,-0.208 -0.208,-0.208 -0.116,0 -0.208,0.093 -0.208,0.208 0,0.115 0.092,0.208 0.208,0.208 0.114,0 0.208,-0.093 0.208,-0.208"
         style="fill:#fbcca0;fill-opacity:1;fill-rule:nonzero;stroke:none;stroke-width:0.1"
         id="path694" />
    </g>
  </g>
</svg>
