<?xml version="1.0" encoding="UTF-8" standalone="no"?>
<!-- Created with Inkscape (http://www.inkscape.org/) -->

<svg
   width="17.83172mm"
   height="8.1879721mm"
   viewBox="0 0 17.83172 8.1879721"
   version="1.1"
   id="svg7308"
   inkscape:version="1.1.1 (1:1.1+202109281949+c3084ef5ed)"
   sodipodi:docname="mercury.svg"
   xmlns:inkscape="http://www.inkscape.org/namespaces/inkscape"
   xmlns:sodipodi="http://sodipodi.sourceforge.net/DTD/sodipodi-0.dtd"
   xmlns="http://www.w3.org/2000/svg"
   xmlns:svg="http://www.w3.org/2000/svg">
  <sodipodi:namedview
     id="namedview7310"
     pagecolor="#000000"
     bordercolor="#666666"
     borderopacity="1.0"
     inkscape:pageshadow="2"
     inkscape:pageopacity="1"
     inkscape:pagecheckerboard="0"
     inkscape:document-units="mm"
     showgrid="false"
     fit-margin-top="0"
     fit-margin-left="0"
     fit-margin-right="0"
     fit-margin-bottom="0"
     inkscape:zoom="8.1235538"
     inkscape:cx="-17.726232"
     inkscape:cy="-12.556081"
     inkscape:window-width="2560"
     inkscape:window-height="1000"
     inkscape:window-x="1200"
     inkscape:window-y="1080"
     inkscape:window-maximized="1"
     inkscape:current-layer="layer1" />
  <defs
     id="defs7305" />
  <g
     inkscape:label="Layer 1"
     inkscape:groupmode="layer"
     id="layer1"
     transform="translate(-241.65486,-215.1554)">
    <g
       id="g7271"
       transform="matrix(0.35277777,0,0,-0.35277777,141.15765,298.03101)">
      <g
         id="g696">
        <text
           transform="matrix(1,0,0,-1,309.611,222.755)"
           style="font-variant:normal;font-weight:600;font-size:4.84973px;font-family:Montserrat;-inkscape-font-specification:Montserrat-SemiBold;writing-mode:lr-tb;fill:#ffffff;fill-opacity:1;fill-rule:nonzero;stroke:none"
           id="text700"><tspan
             x="0 4.6314921 7.8808112 11.425964 14.927425 18.753862 22.250456"
             y="0"
             sodipodi:role="line"
             id="tspan698">MERCURY</tspan></text>
      </g>
      <path
         d="m 296.479,211.713 c -0.897,0 -1.77,0.095 -2.608,0.298 -5.157,1.173 -8.997,5.791 -8.997,11.306 0,3.877 1.902,7.311 4.834,9.416 1.902,1.376 4.235,2.19 6.771,2.19 1.939,0 3.757,-0.479 5.349,-1.316 1.507,-0.778 2.823,-1.879 3.864,-3.219 1.16,-1.507 1.95,-3.314 2.261,-5.288 0.084,-0.586 0.132,-1.173 0.132,-1.783 0,-1.292 -0.215,-2.548 -0.611,-3.708 -1.1,-3.291 -3.636,-5.911 -6.867,-7.131 -0.61,-0.239 -1.244,-0.43 -1.902,-0.551 -0.718,-0.143 -1.46,-0.214 -2.226,-0.214"
         style="fill:#fbcca0;fill-opacity:1;fill-rule:nonzero;stroke:none;stroke-width:0.1"
         id="path704" />
      <path
         d="m 300.607,212.478 c 0.012,0.012 0,0.024 0,0.024 -0.168,0.298 -0.143,0.562 -0.155,1.651 0,0.454 -0.276,1.028 -0.323,1.782 -0.073,1.185 -0.204,1.209 -0.586,1.077 -0.444,-0.143 -1.114,-0.729 -1.676,-0.574 -1.041,0.299 -1.005,0.694 -1.196,1.782 -0.24,1.413 0.072,0.037 2.058,1.724 1.997,1.698 0.299,0.789 1.842,1.842 0.79,0.526 1.412,0.216 1.938,0.084 0.503,-0.132 1.065,-0.323 1.891,-0.359 0.837,-0.024 1.507,-0.634 2.213,-1.22 0.299,-0.251 0.574,-0.491 0.861,-0.682 -1.1,-3.291 -3.636,-5.911 -6.867,-7.131"
         style="fill:#ab8664;fill-opacity:1;fill-rule:nonzero;stroke:none;stroke-width:0.1"
         id="path706" />
      <path
         d="m 296.479,211.713 c -0.897,0 -1.77,0.095 -2.608,0.298 0.371,1.173 0.43,2.213 0.455,2.286 0.023,0.071 0.681,0.873 1.579,1.555 0.897,0.67 1.388,-0.706 1.818,-0.754 0.407,-0.048 1.114,-0.73 1.114,-0.849 -0.025,-0.084 -0.132,-1.496 -0.132,-2.322 -0.718,-0.143 -1.46,-0.214 -2.226,-0.214"
         style="fill:#ab8664;fill-opacity:1;fill-rule:nonzero;stroke:none;stroke-width:0.1"
         id="path708" />
      <path
         d="m 286.776,220.327 c -0.299,0.634 -0.467,1.65 -0.431,2.607 0.025,0.826 0.24,1.759 0.515,2.561 0.299,0.861 0.706,1.795 1.28,2.333 0.706,0.682 1.472,0.933 1.914,1.305 0.622,0.514 0.85,0.836 0.408,1.877 -0.18,0.431 -0.492,1.03 -0.754,1.723 1.902,1.376 4.235,2.19 6.771,2.19 1.939,0 3.757,-0.479 5.349,-1.316 0,-0.323 -0.025,-0.67 -0.048,-1.005 -0.036,-0.658 0.131,-1.448 -0.132,-2.082 -0.239,-0.574 -1.137,-0.802 -1.64,-1.316 -0.92,-0.946 -1.064,-1.699 -0.992,-2.034 0.131,-0.575 1.232,-0.67 1.723,-1.268 0.31,-0.371 0.287,-0.729 -0.287,-1.818 -0.467,-0.91 -0.647,-1.724 -0.957,-2.285 -0.563,-1.03 -0.85,-1.903 -1.532,-2.094 -0.562,-0.144 -1.388,0.322 -2.525,0.513 -0.729,0.121 -1.399,0.109 -1.974,0.264 -0.742,0.203 -1.209,0.909 -1.722,1.077 -0.909,0.299 -1.436,-0.12 -1.807,-0.443 -0.371,-0.323 -0.765,-1.053 -1.244,-1.424 -0.491,-0.394 -1.472,-0.299 -1.915,0.635"
         style="fill:#ab8664;fill-opacity:1;fill-rule:nonzero;stroke:none;stroke-width:0.1"
         id="path710" />
      <path
         d="m 293.709,218.649 c -0.815,0.4 -1.776,1.2 -2.598,0.602 -0.822,-0.598 -1.271,-0.912 -1.495,-1.361 -0.224,-0.449 -0.527,-1.639 0.145,-2.487 0.673,-0.848 1.727,-1.711 2.451,-0.789 0.722,0.923 1.7,2.051 2.398,2.051 0.698,0 2.463,0.228 1.292,1.749 -1.172,1.52 -1.176,-0.263 -2.193,0.235"
         style="fill:#ab8664;fill-opacity:1;fill-rule:nonzero;stroke:none;stroke-width:0.1"
         id="path712" />
      <path
         d="m 304.052,221.882 c -0.478,0.108 -1.016,0.323 -1.638,0.562 -0.575,0.228 -0.431,1.077 -0.132,1.688 0.323,0.669 1.029,1.255 1.053,1.376 0.06,0.226 -1.113,0.825 -2.129,1.746 -0.611,0.539 -0.36,0.801 0.178,1.209 0.371,0.287 0.743,0.813 1.269,1.124 1.292,0.778 1.83,0.011 2.848,0.539 0.071,0.083 0.131,0.178 0.191,0.262 1.16,-1.507 1.95,-3.314 2.261,-5.288 -0.323,-0.143 -0.705,-0.574 -1.172,-1.089 -0.348,-0.382 -0.67,-0.909 -1.137,-1.46 -0.598,-0.729 -1.161,-0.765 -1.592,-0.669"
         style="fill:#ab8664;fill-opacity:1;fill-rule:nonzero;stroke:none;stroke-width:0.1"
         id="path714" />
    </g>
  </g>
</svg>
