<?xml version="1.0" encoding="UTF-8" standalone="no"?>
<!-- Created with Inkscape (http://www.inkscape.org/) -->

<svg
   width="23.313248mm"
   height="14.699897mm"
   viewBox="0 0 23.313248 14.699897"
   version="1.1"
   id="svg6386"
   inkscape:version="1.1.1 (1:1.1+202109281949+c3084ef5ed)"
   sodipodi:docname="neptune.svg"
   xmlns:inkscape="http://www.inkscape.org/namespaces/inkscape"
   xmlns:sodipodi="http://sodipodi.sourceforge.net/DTD/sodipodi-0.dtd"
   xmlns:xlink="http://www.w3.org/1999/xlink"
   xmlns="http://www.w3.org/2000/svg"
   xmlns:svg="http://www.w3.org/2000/svg">
  <sodipodi:namedview
     id="namedview6388"
     pagecolor="#000000"
     bordercolor="#666666"
     borderopacity="1.0"
     inkscape:pageshadow="2"
     inkscape:pageopacity="1"
     inkscape:pagecheckerboard="0"
     inkscape:document-units="mm"
     showgrid="false"
     fit-margin-top="0"
     fit-margin-left="0"
     fit-margin-right="0"
     fit-margin-bottom="0"
     inkscape:zoom="5.74422"
     inkscape:cx="-36.210312"
     inkscape:cy="29.420879"
     inkscape:window-width="2560"
     inkscape:window-height="1000"
     inkscape:window-x="1200"
     inkscape:window-y="1080"
     inkscape:window-maximized="1"
     inkscape:current-layer="layer1" />
  <defs
     id="defs6383">
    <filter
       inkscape:label="Fill Background"
       inkscape:menu="Fill and Transparency"
       inkscape:menu-tooltip="Adds a colorizable opaque background"
       style="color-interpolation-filters:sRGB;"
       id="filter868"
       x="0"
       y="0"
       width="1"
       height="1">
      <feFlood
         result="result1"
         flood-color="rgb(0,0,0)"
         flood-opacity="1"
         id="feFlood856" />
      <feImage
         xlink:href=""
         result="result2"
         id="feImage858" />
      <feBlend
         result="result4"
         in2="result1"
         mode="multiply"
         id="feBlend860" />
      <feMerge
         result="result3"
         id="feMerge866">
        <feMergeNode
           in="result1"
           id="feMergeNode862" />
        <feMergeNode
           in="SourceGraphic"
           id="feMergeNode864" />
      </feMerge>
    </filter>
  </defs>
  <g
     inkscape:label="Layer 1"
     inkscape:groupmode="layer"
     id="layer1"
     transform="translate(-304.50466,-149.99373)">
    <g
       id="g6299"
       transform="matrix(0.35277777,0,0,-0.35277777,274.66806,260.33591)"
       style="filter:url(#filter868)">
      <path
         d="m 133.392,275.188 h -0.081 c -0.714,0.005 -1.419,0.048 -2.11,0.138 -0.317,0.037 -0.63,0.09 -0.942,0.146 -0.175,0.034 -0.345,0.066 -0.52,0.104 -0.019,0.005 -0.043,0.01 -0.062,0.015 -1.788,0.392 -3.468,1.06 -5.001,1.958 -0.113,0.066 -0.222,0.133 -0.331,0.199 -0.946,0.577 -1.826,1.244 -2.635,1.992 -0.199,0.18 -0.393,0.369 -0.578,0.558 -0.326,0.327 -0.633,0.663 -0.927,1.018 -0.037,0.033 -0.066,0.07 -0.095,0.108 -0.543,0.648 -1.036,1.339 -1.476,2.063 0,0 0,0 0,0.005 -0.336,0.554 -0.643,1.131 -0.918,1.722 0,0 0,0 0,0.005 -1.026,2.205 -1.594,4.651 -1.594,7.239 0,1.566 0.208,3.085 0.601,4.523 0.142,0.53 0.307,1.05 0.502,1.556 0,0.01 0.004,0.019 0.009,0.029 0.289,0.762 0.629,1.495 1.017,2.2 0.364,0.667 0.776,1.31 1.231,1.921 0.118,0.161 0.236,0.321 0.364,0.483 0.132,0.17 0.269,0.336 0.411,0.501 0.242,0.284 0.493,0.558 0.748,0.823 0.095,0.095 0.189,0.189 0.284,0.28 0.175,0.174 0.355,0.34 0.539,0.505 0.241,0.223 0.488,0.431 0.738,0.635 0.61,0.491 1.254,0.941 1.931,1.348 2.138,1.287 4.575,2.124 7.187,2.38 0.236,0.024 0.473,0.042 0.714,0.052 0.08,0.004 0.161,0.009 0.241,0.009 0.138,0.01 0.28,0.014 0.421,0.019 h 0.071 c 0.085,0.005 0.175,0.005 0.261,0.005 0.35,0 0.695,-0.01 1.04,-0.033 0.365,-0.024 0.729,-0.052 1.084,-0.1 0.837,-0.099 1.66,-0.264 2.455,-0.482 0.133,-0.038 0.261,-0.071 0.389,-0.114 0.345,-0.104 0.681,-0.217 1.017,-0.34 0.473,-0.175 0.937,-0.369 1.386,-0.582 0.269,-0.128 0.535,-0.26 0.8,-0.407 0.037,-0.019 0.07,-0.038 0.109,-0.057 0.723,-0.393 1.414,-0.842 2.072,-1.33 h 0.004 c 0.89,-0.671 1.708,-1.419 2.451,-2.242 0.308,-0.336 0.597,-0.686 0.875,-1.046 0.862,-1.116 1.59,-2.341 2.158,-3.652 0.639,-1.467 1.084,-3.038 1.292,-4.684 0.089,-0.719 0.137,-1.458 0.137,-2.2 0,-2.233 -0.421,-4.358 -1.193,-6.317 -0.652,-1.665 -1.556,-3.203 -2.668,-4.565 -0.388,-0.483 -0.809,-0.946 -1.249,-1.382 -0.913,-0.908 -1.926,-1.708 -3.024,-2.389 -0.316,-0.199 -0.638,-0.383 -0.964,-0.559 -0.161,-0.09 -0.327,-0.175 -0.493,-0.25 -0.439,-0.222 -0.894,-0.426 -1.357,-0.606 -0.228,-0.09 -0.455,-0.175 -0.686,-0.256 -1.765,-0.614 -3.663,-0.946 -5.635,-0.946"
         style="fill:#7ed5ed;fill-opacity:1;fill-rule:nonzero;stroke:none;stroke-width:0.1"
         id="path954" />
      <path
         d="m 142.527,277.805 c 1.098,0.681 2.111,1.481 3.024,2.389 1.689,1.675 3.033,3.695 3.917,5.947 0.772,1.959 1.193,4.084 1.193,6.317 0,0.742 -0.048,1.481 -0.137,2.2 -0.208,1.646 -0.653,3.217 -1.292,4.684 -0.568,1.311 -1.296,2.536 -2.158,3.652 -0.278,0.36 -0.567,0.71 -0.875,1.046 -0.743,0.823 -1.561,1.571 -2.451,2.242 h -0.004 c -0.658,0.488 -1.349,0.937 -2.072,1.33 -0.299,0.166 -0.602,0.317 -0.909,0.464 -0.771,0.364 -1.576,0.677 -2.403,0.922 1.821,-5.019 3.335,-9.992 3.576,-15.48 0.265,-5.952 -0.714,-11.871 -2.909,-17.384 1.234,0.427 2.408,0.99 3.5,1.671"
         style="fill:#61b7ca;fill-opacity:1;fill-rule:nonzero;stroke:none;stroke-width:0.1"
         id="path956" />
      <path
         d="m 129.029,292.008 c 0.156,5.148 -1.31,10.996 -4.532,15.254 -0.677,-0.407 -1.321,-0.857 -1.931,-1.348 -0.25,-0.204 -0.497,-0.412 -0.738,-0.635 -0.184,-0.165 -0.364,-0.331 -0.539,-0.505 -0.095,-0.091 -0.189,-0.185 -0.284,-0.28 0.837,-1.287 1.67,-2.541 2.304,-3.96 v -0.005 c 0.284,-0.624 0.53,-1.287 0.719,-1.992 0.984,-3.643 0.814,-7.527 -0.459,-11.066 0,-0.005 -0.004,-0.009 -0.004,-0.014 -0.081,-0.227 -0.166,-0.45 -0.256,-0.672 -0.454,-1.117 -1.67,-2.801 -2.773,-4.637 -0.146,-0.236 -0.288,-0.482 -0.426,-0.724 0.029,-0.038 0.058,-0.075 0.095,-0.108 0.294,-0.355 0.601,-0.691 0.927,-1.018 0.185,-0.189 0.379,-0.378 0.578,-0.558 0.809,-0.748 1.689,-1.415 2.635,-1.992 2.901,4.149 4.533,9.274 4.684,14.26"
         style="fill:#61b7ca;fill-opacity:1;fill-rule:nonzero;stroke:none;stroke-width:0.1"
         id="path958" />
      <path
         d="m 122.585,283.624 c -0.373,-1.112 -0.809,-2.313 -1.453,-3.326 -0.326,0.327 -0.633,0.663 -0.927,1.018 0.118,0.274 0.232,0.548 0.331,0.832 0.322,0.89 0.559,1.831 0.71,2.896 0.403,2.749 0.804,5.554 0.918,8.332 0.152,3.728 -0.549,7.016 -2.318,9.794 0.132,0.17 0.269,0.336 0.411,0.501 0.242,0.284 0.493,0.558 0.748,0.823 0.095,0.095 0.189,0.189 0.284,0.28 0.894,-1.245 1.556,-2.707 2.02,-4.24 v -0.005 c 0.643,-2.11 0.913,-4.338 0.894,-6.288 -0.019,-2.186 -0.218,-4.518 -0.634,-6.77 0,-0.005 -0.004,-0.009 -0.004,-0.014 -0.247,-1.325 -0.573,-2.616 -0.98,-3.833"
         style="fill:#94dcf0;fill-opacity:1;fill-rule:nonzero;stroke:none;stroke-width:0.1"
         id="path960" />
      <path
         d="m 117.716,285.219 c -1.026,2.205 -1.594,4.651 -1.594,7.239 0,1.566 0.208,3.085 0.601,4.523 0.142,0.53 0.307,1.05 0.502,1.556 0,0.01 0.004,0.019 0.009,0.029 0.289,0.762 0.629,1.495 1.017,2.2 0.019,-0.071 0.038,-0.137 0.057,-0.208 2.167,-4.67 0.947,-10.357 -0.592,-15.339"
         style="fill:#94dcf0;fill-opacity:1;fill-rule:nonzero;stroke:none;stroke-width:0.1"
         id="path962" />
      <path
         d="m 131.201,275.326 c -0.317,0.037 -0.63,0.09 -0.942,0.146 -0.175,0.034 -0.345,0.066 -0.52,0.104 1.779,3.27 3.004,6.321 3.369,10.305 0.321,3.558 0.553,7.121 0.738,10.688 0.047,0.871 0.09,1.741 0.127,2.612 0.114,2.517 0.204,4.849 -0.222,7.106 -0.208,1.155 -0.558,2.285 -1.112,3.416 0.138,0.01 0.28,0.014 0.421,0.019 h 0.071 c 0.653,-1.15 1.136,-2.389 1.519,-3.662 0.293,-0.965 0.525,-1.954 0.729,-2.943 v -0.005 c 0.099,-0.482 0.189,-0.96 0.279,-1.438 0.752,-4.059 0.492,-8.54 -0.028,-12.613 -0.498,-3.866 -1.411,-7.783 -3.095,-11.318 -0.397,-0.832 -0.861,-1.627 -1.334,-2.417"
         style="fill:#94dcf0;fill-opacity:1;fill-rule:nonzero;stroke:none;stroke-width:0.1"
         id="path964" />
      <path
         d="m 143.843,305.89 c 1.259,-2.782 2.049,-5.602 2.687,-8.583 0.365,-1.708 0.729,-3.43 0.956,-5.171 -0.194,4.116 -1.149,8.308 -2.536,12.155 -0.024,0.066 0.085,0.113 0.114,0.052 1.821,-4.306 3.104,-8.658 3.184,-13.371 0.038,-2.314 -0.194,-4.646 -0.734,-6.898 -0.194,-0.795 -0.425,-1.651 -0.714,-2.498 -0.388,-0.483 -0.809,-0.946 -1.249,-1.382 -0.913,-0.908 -1.926,-1.708 -3.024,-2.389 -0.316,-0.199 -0.638,-0.383 -0.964,-0.559 0.586,1.174 1.187,2.338 1.684,3.53 1.041,2.498 1.85,5.101 2.29,7.778 0.918,5.527 0.08,12.023 -1.978,17.218 -0.066,0.16 0.213,0.274 0.284,0.118"
         style="fill:#94dcf0;fill-opacity:1;fill-rule:nonzero;stroke:none;stroke-width:0.1"
         id="path966" />
      <path
         d="m 139.713,276.39 c 0.814,1.846 1.604,3.695 2.119,5.621 0.927,3.454 1.003,7.111 0.98,10.664 -0.019,3.45 -0.459,6.875 -1.349,10.206 -0.53,1.982 -1.348,3.87 -2.086,5.777 0.473,-0.175 0.937,-0.369 1.386,-0.582 0.269,-0.128 0.535,-0.26 0.8,-0.407 1.921,-4.429 2.564,-9.827 2.668,-14.184 0.08,-3.402 -0.591,-6.605 -1.472,-9.87 -0.596,-2.21 -1.102,-4.429 -1.689,-6.619 -0.439,-0.222 -0.894,-0.426 -1.357,-0.606"
         style="fill:#94dcf0;fill-opacity:1;fill-rule:nonzero;stroke:none;stroke-width:0.1"
         id="path968" />
      <path
         d="m 134.941,297.197 c 0.006,1.952 0.263,3.837 0.425,5.778 0.088,1.064 0.322,2.534 -0.826,3.15 -0.714,0.382 -1.593,0.095 -2.002,-0.586 -0.054,-0.091 -0.095,-0.18 -0.13,-0.271 -0.257,-0.308 -0.42,-0.748 -0.447,-1.176 -0.064,-1.023 0.339,-2.162 0.564,-3.153 0.299,-1.32 0.631,-2.629 0.981,-3.936 0.214,-0.796 1.433,-0.632 1.435,0.194"
         style="fill:#61b7ca;fill-opacity:1;fill-rule:nonzero;stroke:none;stroke-width:0.1"
         id="path970" />
      <path
         d="m 126.011,273.758 c 0,-1.462 -1.184,-2.646 -2.646,-2.646 -1.462,0 -2.647,1.184 -2.647,2.646 0,1.461 1.185,2.646 2.647,2.646 1.462,0 2.646,-1.185 2.646,-2.646"
         style="fill:#e0e1e0;fill-opacity:1;fill-rule:nonzero;stroke:none;stroke-width:0.1"
         id="path972" />
      <path
         d="m 123.005,275.479 c 0,-0.151 -0.122,-0.273 -0.273,-0.273 -0.15,0 -0.272,0.122 -0.272,0.273 0,0.15 0.122,0.273 0.272,0.273 0.151,0 0.273,-0.123 0.273,-0.273"
         style="fill:#aeb3b4;fill-opacity:1;fill-rule:nonzero;stroke:none;stroke-width:0.1"
         id="path974" />
      <path
         d="m 122.345,273.245 c 0,-0.283 -0.229,-0.512 -0.512,-0.512 -0.284,0 -0.513,0.229 -0.513,0.512 0,0.284 0.229,0.513 0.513,0.513 0.283,0 0.512,-0.229 0.512,-0.513"
         style="fill:#aeb3b4;fill-opacity:1;fill-rule:nonzero;stroke:none;stroke-width:0.1"
         id="path976" />
      <path
         d="m 125.121,272.617 c 0,-0.177 -0.143,-0.32 -0.32,-0.32 -0.177,0 -0.32,0.143 -0.32,0.32 0,0.177 0.143,0.321 0.32,0.321 0.177,0 0.32,-0.144 0.32,-0.321"
         style="fill:#aeb3b4;fill-opacity:1;fill-rule:nonzero;stroke:none;stroke-width:0.1"
         id="path978" />
      <path
         d="m 124.058,273.944 c 0,-0.177 -0.143,-0.32 -0.321,-0.32 -0.176,0 -0.32,0.143 -0.32,0.32 0,0.177 0.144,0.32 0.32,0.32 0.178,0 0.321,-0.143 0.321,-0.32"
         style="fill:#aeb3b4;fill-opacity:1;fill-rule:nonzero;stroke:none;stroke-width:0.1"
         id="path980" />
      <path
         d="m 123.608,271.839 c 0,-0.224 -0.181,-0.404 -0.404,-0.404 -0.223,0 -0.405,0.18 -0.405,0.404 0,0.223 0.182,0.404 0.405,0.404 0.223,0 0.404,-0.181 0.404,-0.404"
         style="fill:#aeb3b4;fill-opacity:1;fill-rule:nonzero;stroke:none;stroke-width:0.1"
         id="path982" />
      <path
         d="m 125.035,274.715 c 0,-0.129 -0.105,-0.234 -0.234,-0.234 -0.129,0 -0.234,0.105 -0.234,0.234 0,0.129 0.105,0.234 0.234,0.234 0.129,0 0.234,-0.105 0.234,-0.234"
         style="fill:#aeb3b4;fill-opacity:1;fill-rule:nonzero;stroke:none;stroke-width:0.1"
         id="path984" />
      <path
         d="m 133.549,311.563 c 0,-0.673 -0.546,-1.219 -1.219,-1.219 -0.673,0 -1.218,0.546 -1.218,1.219 0,0.673 0.545,1.218 1.218,1.218 0.673,0 1.219,-0.545 1.219,-1.218"
         style="fill:#e0e1e0;fill-opacity:1;fill-rule:nonzero;stroke:none;stroke-width:0.1"
         id="path986" />
      <path
         d="m 132.165,312.355 c 0,-0.07 -0.056,-0.126 -0.126,-0.126 -0.069,0 -0.125,0.056 -0.125,0.126 0,0.069 0.056,0.125 0.125,0.125 0.07,0 0.126,-0.056 0.126,-0.125"
         style="fill:#aeb3b4;fill-opacity:1;fill-rule:nonzero;stroke:none;stroke-width:0.1"
         id="path988" />
      <path
         d="m 131.861,311.326 c 0,-0.13 -0.105,-0.235 -0.236,-0.235 -0.13,0 -0.236,0.105 -0.236,0.235 0,0.131 0.106,0.237 0.236,0.237 0.131,0 0.236,-0.106 0.236,-0.237"
         style="fill:#aeb3b4;fill-opacity:1;fill-rule:nonzero;stroke:none;stroke-width:0.1"
         id="path990" />
      <path
         d="m 133.139,311.037 c 0,-0.081 -0.066,-0.147 -0.148,-0.147 -0.081,0 -0.147,0.066 -0.147,0.147 0,0.082 0.066,0.148 0.147,0.148 0.082,0 0.148,-0.066 0.148,-0.148"
         style="fill:#aeb3b4;fill-opacity:1;fill-rule:nonzero;stroke:none;stroke-width:0.1"
         id="path992" />
      <path
         d="m 132.65,311.648 c 0,-0.081 -0.066,-0.147 -0.148,-0.147 -0.081,0 -0.148,0.066 -0.148,0.147 0,0.082 0.067,0.148 0.148,0.148 0.082,0 0.148,-0.066 0.148,-0.148"
         style="fill:#aeb3b4;fill-opacity:1;fill-rule:nonzero;stroke:none;stroke-width:0.1"
         id="path994" />
      <path
         d="m 132.442,310.679 c 0,-0.103 -0.083,-0.186 -0.186,-0.186 -0.103,0 -0.186,0.083 -0.186,0.186 0,0.103 0.083,0.186 0.186,0.186 0.103,0 0.186,-0.083 0.186,-0.186"
         style="fill:#aeb3b4;fill-opacity:1;fill-rule:nonzero;stroke:none;stroke-width:0.1"
         id="path996" />
      <path
         d="m 133.099,312.003 c 0,-0.059 -0.048,-0.108 -0.108,-0.108 -0.059,0 -0.108,0.049 -0.108,0.108 0,0.06 0.049,0.108 0.108,0.108 0.06,0 0.108,-0.048 0.108,-0.108"
         style="fill:#aeb3b4;fill-opacity:1;fill-rule:nonzero;stroke:none;stroke-width:0.1"
         id="path998" />
      <path
         d="m 150.2,307.262 c 0,-1.462 -1.185,-2.647 -2.646,-2.647 -1.462,0 -2.647,1.185 -2.647,2.647 0,1.462 1.185,2.646 2.647,2.646 1.461,0 2.646,-1.184 2.646,-2.646"
         style="fill:#aeb3b4;fill-opacity:1;fill-rule:nonzero;stroke:none;stroke-width:0.1"
         id="path1000" />
      <path
         d="m 147.194,308.983 c 0,-0.151 -0.122,-0.273 -0.273,-0.273 -0.151,0 -0.273,0.122 -0.273,0.273 0,0.15 0.122,0.273 0.273,0.273 0.151,0 0.273,-0.123 0.273,-0.273"
         style="fill:#e0e1e0;fill-opacity:1;fill-rule:nonzero;stroke:none;stroke-width:0.1"
         id="path1002" />
      <path
         d="m 146.534,306.749 c 0,-0.283 -0.229,-0.512 -0.512,-0.512 -0.284,0 -0.514,0.229 -0.514,0.512 0,0.283 0.23,0.513 0.514,0.513 0.283,0 0.512,-0.23 0.512,-0.513"
         style="fill:#e0e1e0;fill-opacity:1;fill-rule:nonzero;stroke:none;stroke-width:0.1"
         id="path1004" />
      <path
         d="m 149.31,306.121 c 0,-0.177 -0.143,-0.321 -0.32,-0.321 -0.177,0 -0.321,0.144 -0.321,0.321 0,0.177 0.144,0.321 0.321,0.321 0.177,0 0.32,-0.144 0.32,-0.321"
         style="fill:#e0e1e0;fill-opacity:1;fill-rule:nonzero;stroke:none;stroke-width:0.1"
         id="path1006" />
      <path
         d="m 148.247,307.448 c 0,-0.177 -0.144,-0.32 -0.321,-0.32 -0.177,0 -0.32,0.143 -0.32,0.32 0,0.177 0.143,0.321 0.32,0.321 0.177,0 0.321,-0.144 0.321,-0.321"
         style="fill:#e0e1e0;fill-opacity:1;fill-rule:nonzero;stroke:none;stroke-width:0.1"
         id="path1008" />
      <path
         d="m 147.797,305.343 c 0,-0.223 -0.181,-0.404 -0.405,-0.404 -0.223,0 -0.404,0.181 -0.404,0.404 0,0.223 0.181,0.404 0.404,0.404 0.224,0 0.405,-0.181 0.405,-0.404"
         style="fill:#e0e1e0;fill-opacity:1;fill-rule:nonzero;stroke:none;stroke-width:0.1"
         id="path1010" />
      <path
         d="m 149.224,308.219 c 0,-0.129 -0.105,-0.234 -0.234,-0.234 -0.13,0 -0.234,0.105 -0.234,0.234 0,0.129 0.104,0.234 0.234,0.234 0.129,0 0.234,-0.105 0.234,-0.234"
         style="fill:#e0e1e0;fill-opacity:1;fill-rule:nonzero;stroke:none;stroke-width:0.1"
         id="path1012" />
      <g
         id="g1014">
        <text
           transform="matrix(1,0,0,-1,88.2617,299.176)"
           style="font-variant:normal;font-weight:600;font-size:4.84973px;font-family:Montserrat;-inkscape-font-specification:Montserrat-SemiBold;writing-mode:lr-tb;fill:#ffffff;fill-opacity:1;fill-rule:nonzero;stroke:none"
           id="text1018"><tspan
             x="0 3.9282813 7.1776004 10.553095 13.40954 17.235977 21.164259"
             y="0"
             sodipodi:role="line"
             id="tspan1016">NEPTUNE</tspan></text>
      </g>
      <path
         d="M 117.8,297.707 H 84.5762 v 0.241 H 117.8 v -0.241"
         style="fill:#ffffff;fill-opacity:1;fill-rule:nonzero;stroke:none;stroke-width:0.1"
         id="path1020" />
    </g>
  </g>
</svg>
