<?xml version="1.0" encoding="UTF-8" standalone="no"?>
<!-- Created with Inkscape (http://www.inkscape.org/) -->

<svg
   width="18.077038mm"
   height="8.3040361mm"
   viewBox="0 0 18.077038 8.3040361"
   version="1.1"
   id="svg8875"
   inkscape:version="1.1.1 (1:1.1+202109281949+c3084ef5ed)"
   sodipodi:docname="pluto.svg"
   xmlns:inkscape="http://www.inkscape.org/namespaces/inkscape"
   xmlns:sodipodi="http://sodipodi.sourceforge.net/DTD/sodipodi-0.dtd"
   xmlns="http://www.w3.org/2000/svg"
   xmlns:svg="http://www.w3.org/2000/svg">
  <sodipodi:namedview
     id="namedview8877"
     pagecolor="#000000"
     bordercolor="#666666"
     borderopacity="1.0"
     inkscape:pageshadow="2"
     inkscape:pageopacity="1"
     inkscape:pagecheckerboard="0"
     inkscape:document-units="mm"
     showgrid="false"
     fit-margin-top="0"
     fit-margin-left="0"
     fit-margin-right="0"
     fit-margin-bottom="0"
     inkscape:zoom="0.7180275"
     inkscape:cx="-704.70839"
     inkscape:cy="-200.54942"
     inkscape:window-width="2560"
     inkscape:window-height="1000"
     inkscape:window-x="1200"
     inkscape:window-y="1080"
     inkscape:window-maximized="1"
     inkscape:current-layer="layer1" />
  <defs
     id="defs8872" />
  <g
     inkscape:label="Layer 1"
     inkscape:groupmode="layer"
     id="layer1"
     transform="translate(-291.64634,-201.46336)">
    <g
       id="g8776"
       transform="matrix(0.35277777,0,0,-0.35277777,210.12716,345.09648)">
      <g
         id="g1084">
        <text
           transform="matrix(1,0,0,-1,261.639,397.51)"
           style="font-variant:normal;font-weight:600;font-size:4.84973px;font-family:Montserrat;-inkscape-font-specification:Montserrat-SemiBold;writing-mode:lr-tb;fill:#ffffff;fill-opacity:1;fill-rule:nonzero;stroke:none"
           id="text1088"><tspan
             x="0 3.4726617 6.3291149 10.092295 12.963395"
             y="0"
             sodipodi:role="line"
             id="tspan1086">PLUTO</tspan></text>
      </g>
      <path
         d="m 282.32,396.041 h -23.829 v 0.242 h 23.829 v -0.242"
         style="fill:#ffffff;fill-opacity:1;fill-rule:nonzero;stroke:none;stroke-width:0.1"
         id="path1090" />
      <path
         d="m 259.659,395.487 v -0.054 c -0.003,-0.702 -0.067,-1.393 -0.192,-2.06 -0.025,-0.131 -0.05,-0.262 -0.08,-0.393 -0.264,-1.208 -0.715,-2.342 -1.322,-3.377 -0.419,-0.722 -0.917,-1.393 -1.479,-2.004 -0.742,-0.805 -1.591,-1.508 -2.531,-2.076 0,0 0,0 -0.003,0 -1.763,-1.077 -3.837,-1.697 -6.054,-1.697 -1.058,0 -2.083,0.141 -3.055,0.406 -0.357,0.096 -0.709,0.208 -1.051,0.338 -0.006,0 -0.012,0.004 -0.019,0.007 -1,0.38 -1.936,0.888 -2.783,1.517 -0.227,0.163 -0.45,0.339 -0.664,0.524 -0.387,0.329 -0.751,0.684 -1.087,1.061 -0.15,0.163 -0.291,0.329 -0.428,0.499 -1.383,1.719 -2.29,3.837 -2.517,6.156 -0.016,0.16 -0.029,0.32 -0.035,0.483 -0.01,0.147 -0.017,0.297 -0.02,0.447 -0.003,0.074 -0.003,0.15 -0.003,0.223 0,0.237 0.006,0.47 0.023,0.704 0.016,0.246 0.035,0.492 0.066,0.731 0.068,0.565 0.18,1.122 0.327,1.658 0.178,0.652 0.415,1.285 0.699,1.886 0.099,0.207 0.201,0.412 0.313,0.613 0.265,0.489 0.569,0.955 0.898,1.399 v 0.004 c 0.454,0.6 0.959,1.153 1.514,1.654 0.227,0.208 0.464,0.403 0.706,0.591 0.754,0.582 1.582,1.074 2.467,1.457 0.99,0.431 2.051,0.732 3.163,0.872 0.486,0.062 0.984,0.093 1.486,0.093 1.507,0 2.942,-0.284 4.265,-0.805 1.521,-0.597 2.885,-1.505 4.016,-2.646 0.613,-0.616 1.153,-1.3 1.613,-2.041 1.118,-1.789 1.767,-3.904 1.767,-6.17"
         style="fill:#fbcca0;fill-opacity:1;fill-rule:nonzero;stroke:none;stroke-width:0.1"
         id="path1092" />
      <path
         d="m 251.589,398.44 c -3.847,-0.492 -7.633,-1.828 -11.524,-2.032 -1.109,-0.058 -2.505,0.044 -3.64,0.514 0.068,0.565 0.18,1.122 0.327,1.658 0.648,-0.348 1.389,-0.498 2.271,-0.575 1.451,-0.131 2.997,-0.348 4.438,-0.146 1.268,0.175 2.521,0.434 3.795,0.59 1.46,0.176 2.87,0.09 4.333,0.16 0.112,0.003 0.105,-0.156 0,-0.169"
         style="fill:#c2a18a;fill-opacity:1;fill-rule:nonzero;stroke:none;stroke-width:0.1"
         id="path1094" />
      <path
         d="m 259.659,395.433 c -0.003,-0.702 -0.067,-1.393 -0.192,-2.06 -1.99,0.718 -3.552,1.799 -5.741,2.029 -2.236,0.232 -4.198,-0.687 -6.355,-1 -1.875,-0.275 -3.958,-0.103 -5.798,0.332 -0.032,0.006 -0.02,0.054 0.013,0.047 2.715,-0.514 5.613,-0.197 8.128,0.876 1.584,0.681 3.374,1.246 5.121,1.173 1.725,-0.074 3.226,-0.86 4.824,-1.397"
         style="fill:#c2a18a;fill-opacity:1;fill-rule:nonzero;stroke:none;stroke-width:0.1"
         id="path1096" />
      <path
         d="m 254.052,385.523 c -1.763,-1.077 -3.837,-1.697 -6.054,-1.697 -1.058,0 -2.083,0.141 -3.055,0.406 -0.006,0.038 -0.003,0.077 0.01,0.109 -0.32,0.051 -0.649,0.118 -1.003,0.214 -0.02,0.006 -0.039,0.009 -0.058,0.015 -0.006,0 -0.012,0.004 -0.019,0.007 -1,0.38 -1.936,0.888 -2.783,1.517 1.387,-0.427 2.809,-0.479 4.326,-0.46 1.626,0.023 3.137,0.684 4.77,0.621 1.332,-0.052 2.591,-0.419 3.866,-0.732"
         style="fill:#c2a18a;fill-opacity:1;fill-rule:nonzero;stroke:none;stroke-width:0.1"
         id="path1098" />
      <path
         d="m 256.279,403.698 c -1.131,1.141 -2.495,2.049 -4.016,2.646 -0.575,-0.105 -1.147,-0.259 -1.71,-0.421 -1.677,-0.493 -3.092,-0.851 -4.849,-0.477 -0.754,0.163 -1.62,0.361 -2.355,0.738 -0.885,-0.383 -1.713,-0.875 -2.467,-1.457 -0.242,-0.188 -0.479,-0.383 -0.706,-0.591 -0.555,-0.501 -1.06,-1.054 -1.514,-1.654 v -0.004 c -0.329,-0.444 -0.633,-0.91 -0.898,-1.399 0.441,-0.508 0.965,-0.933 1.658,-1.224 1.793,-0.747 3.668,-0.674 5.566,-0.479 2.048,0.211 4.112,0.476 6.099,1.035 2.247,0.63 4.428,1.649 6.805,1.246 -0.46,0.741 -1,1.425 -1.613,2.041"
         style="fill:#ab8664;fill-opacity:1;fill-rule:nonzero;stroke:none;stroke-width:0.1"
         id="path1100" />
      <path
         d="m 255.592,390.238 c -2.451,0.336 -4.904,-0.016 -7.345,-0.258 -1.086,-0.106 -2.211,-0.265 -3.304,-0.17 -1.479,0.135 -2.741,0.879 -3.961,1.665 -1.524,0.974 -3.384,1.939 -4.623,3.342 0.006,-0.163 0.019,-0.323 0.035,-0.483 0.227,-2.319 1.134,-4.437 2.517,-6.156 0.137,-0.17 0.278,-0.336 0.428,-0.499 1.825,-0.533 3.94,-0.699 5.694,-0.677 2.655,0.032 5.207,0.939 7.879,0.981 1.259,0.019 2.488,-0.099 3.674,-0.384 0.562,0.611 1.06,1.282 1.479,2.004 -0.773,0.3 -1.588,0.517 -2.473,0.635"
         style="fill:#ab8664;fill-opacity:1;fill-rule:nonzero;stroke:none;stroke-width:0.1"
         id="path1102" />
      <path
         d="m 251.031,392.603 c -0.34,0.049 -0.561,0.3 -0.922,0.304 -0.353,0.004 -0.767,-0.092 -1.085,-0.231 -0.105,-0.045 -0.06,-0.195 0.03,-0.225 0.231,-0.078 0.664,-0.015 0.832,-0.15 0.03,-0.024 0.036,-0.073 0.113,-0.186 0.224,-0.33 0.493,-0.496 0.89,-0.566 0.429,-0.076 1.729,0.095 1.723,0.735 -0.006,0.694 -1.231,0.268 -1.581,0.319"
         style="fill:#ab8664;fill-opacity:1;fill-rule:nonzero;stroke:none;stroke-width:0.1"
         id="path1104" />
      <path
         d="m 240.858,395.744 c -0.82,0.19 -1.597,0.064 -2.425,0.123 -0.205,0.015 -0.251,-0.318 -0.049,-0.36 0.888,-0.185 1.647,-0.349 2.497,0.059 0.076,0.036 0.056,0.16 -0.023,0.178"
         style="fill:#ab8664;fill-opacity:1;fill-rule:nonzero;stroke:none;stroke-width:0.1"
         id="path1106" />
      <path
         d="m 234.755,404.152 c 0,-1.014 -0.824,-1.838 -1.839,-1.838 -1.015,0 -1.838,0.824 -1.838,1.838 0,1.016 0.823,1.839 1.838,1.839 1.015,0 1.839,-0.823 1.839,-1.839"
         style="fill:#61b7ca;fill-opacity:1;fill-rule:nonzero;stroke:none;stroke-width:0.1"
         id="path1108" />
      <path
         d="m 232.666,405.348 c 0,-0.105 -0.085,-0.189 -0.189,-0.189 -0.105,0 -0.19,0.084 -0.19,0.189 0,0.104 0.085,0.19 0.19,0.19 0.104,0 0.189,-0.086 0.189,-0.19"
         style="fill:#7ed5ed;fill-opacity:1;fill-rule:nonzero;stroke:none;stroke-width:0.1"
         id="path1110" />
      <path
         d="m 232.208,403.796 c 0,-0.196 -0.16,-0.356 -0.356,-0.356 -0.197,0 -0.357,0.16 -0.357,0.356 0,0.197 0.16,0.356 0.357,0.356 0.196,0 0.356,-0.159 0.356,-0.356"
         style="fill:#7ed5ed;fill-opacity:1;fill-rule:nonzero;stroke:none;stroke-width:0.1"
         id="path1112" />
      <path
         d="m 234.136,403.36 c 0,-0.123 -0.1,-0.222 -0.222,-0.222 -0.123,0 -0.223,0.099 -0.223,0.222 0,0.123 0.1,0.223 0.223,0.223 0.122,0 0.222,-0.1 0.222,-0.223"
         style="fill:#7ed5ed;fill-opacity:1;fill-rule:nonzero;stroke:none;stroke-width:0.1"
         id="path1114" />
      <path
         d="m 233.398,404.282 c 0,-0.123 -0.1,-0.223 -0.223,-0.223 -0.123,0 -0.223,0.1 -0.223,0.223 0,0.123 0.1,0.223 0.223,0.223 0.123,0 0.223,-0.1 0.223,-0.223"
         style="fill:#7ed5ed;fill-opacity:1;fill-rule:nonzero;stroke:none;stroke-width:0.1"
         id="path1116" />
      <path
         d="m 233.085,402.82 c 0,-0.156 -0.126,-0.281 -0.281,-0.281 -0.155,0 -0.281,0.125 -0.281,0.281 0,0.155 0.126,0.28 0.281,0.28 0.155,0 0.281,-0.125 0.281,-0.28"
         style="fill:#7ed5ed;fill-opacity:1;fill-rule:nonzero;stroke:none;stroke-width:0.1"
         id="path1118" />
      <path
         d="m 234.076,404.817 c 0,-0.09 -0.072,-0.162 -0.162,-0.162 -0.09,0 -0.163,0.072 -0.163,0.162 0,0.09 0.073,0.163 0.163,0.163 0.09,0 0.162,-0.073 0.162,-0.163"
         style="fill:#7ed5ed;fill-opacity:1;fill-rule:nonzero;stroke:none;stroke-width:0.1"
         id="path1120" />
      <path
         d="m 261.335,405.991 c 0,-0.555 -0.451,-1.005 -1.005,-1.005 -0.556,0 -1.006,0.45 -1.006,1.005 0,0.555 0.45,1.006 1.006,1.006 0.554,0 1.005,-0.451 1.005,-1.006"
         style="fill:#61b7ca;fill-opacity:1;fill-rule:nonzero;stroke:none;stroke-width:0.1"
         id="path1122" />
      <path
         d="m 260.193,406.645 c 0,-0.057 -0.047,-0.104 -0.104,-0.104 -0.057,0 -0.104,0.047 -0.104,0.104 0,0.057 0.047,0.104 0.104,0.104 0.057,0 0.104,-0.047 0.104,-0.104"
         style="fill:#7ed5ed;fill-opacity:1;fill-rule:nonzero;stroke:none;stroke-width:0.1"
         id="path1124" />
      <path
         d="m 259.942,405.796 c 0,-0.107 -0.087,-0.195 -0.195,-0.195 -0.108,0 -0.195,0.088 -0.195,0.195 0,0.108 0.087,0.195 0.195,0.195 0.108,0 0.195,-0.087 0.195,-0.195"
         style="fill:#7ed5ed;fill-opacity:1;fill-rule:nonzero;stroke:none;stroke-width:0.1"
         id="path1126" />
      <path
         d="m 260.997,405.557 c 0,-0.067 -0.055,-0.121 -0.122,-0.121 -0.068,0 -0.121,0.054 -0.121,0.121 0,0.068 0.053,0.122 0.121,0.122 0.067,0 0.122,-0.054 0.122,-0.122"
         style="fill:#7ed5ed;fill-opacity:1;fill-rule:nonzero;stroke:none;stroke-width:0.1"
         id="path1128" />
      <path
         d="m 260.592,406.062 c 0,-0.068 -0.054,-0.122 -0.121,-0.122 -0.067,0 -0.122,0.054 -0.122,0.122 0,0.067 0.055,0.121 0.122,0.121 0.067,0 0.121,-0.054 0.121,-0.121"
         style="fill:#7ed5ed;fill-opacity:1;fill-rule:nonzero;stroke:none;stroke-width:0.1"
         id="path1130" />
      <path
         d="m 260.422,405.262 c 0,-0.085 -0.069,-0.154 -0.154,-0.154 -0.085,0 -0.153,0.069 -0.153,0.154 0,0.085 0.068,0.153 0.153,0.153 0.085,0 0.154,-0.068 0.154,-0.153"
         style="fill:#7ed5ed;fill-opacity:1;fill-rule:nonzero;stroke:none;stroke-width:0.1"
         id="path1132" />
      <path
         d="m 260.964,406.355 c 0,-0.05 -0.04,-0.089 -0.089,-0.089 -0.049,0 -0.089,0.039 -0.089,0.089 0,0.049 0.04,0.088 0.089,0.088 0.049,0 0.089,-0.039 0.089,-0.088"
         style="fill:#7ed5ed;fill-opacity:1;fill-rule:nonzero;stroke:none;stroke-width:0.1"
         id="path1134" />
      <path
         d="m 264.103,387 c 0,-0.873 -0.708,-1.58 -1.581,-1.58 -0.873,0 -1.58,0.707 -1.58,1.58 0,0.873 0.707,1.581 1.58,1.581 0.873,0 1.581,-0.708 1.581,-1.581"
         style="fill:#7ed5ed;fill-opacity:1;fill-rule:nonzero;stroke:none;stroke-width:0.1"
         id="path1136" />
      <path
         d="m 262.307,388.028 c 0,-0.09 -0.072,-0.164 -0.163,-0.164 -0.09,0 -0.163,0.074 -0.163,0.164 0,0.09 0.073,0.163 0.163,0.163 0.091,0 0.163,-0.073 0.163,-0.163"
         style="fill:#61b7ca;fill-opacity:1;fill-rule:nonzero;stroke:none;stroke-width:0.1"
         id="path1138" />
      <path
         d="m 261.914,386.694 c 0,-0.169 -0.138,-0.307 -0.307,-0.307 -0.169,0 -0.306,0.138 -0.306,0.307 0,0.169 0.137,0.306 0.306,0.306 0.169,0 0.307,-0.137 0.307,-0.306"
         style="fill:#61b7ca;fill-opacity:1;fill-rule:nonzero;stroke:none;stroke-width:0.1"
         id="path1140" />
      <path
         d="m 263.572,386.319 c 0,-0.106 -0.086,-0.192 -0.192,-0.192 -0.106,0 -0.191,0.086 -0.191,0.192 0,0.105 0.085,0.191 0.191,0.191 0.106,0 0.192,-0.086 0.192,-0.191"
         style="fill:#61b7ca;fill-opacity:1;fill-rule:nonzero;stroke:none;stroke-width:0.1"
         id="path1142" />
      <path
         d="m 262.936,387.111 c 0,-0.105 -0.086,-0.191 -0.191,-0.191 -0.106,0 -0.192,0.086 -0.192,0.191 0,0.106 0.086,0.191 0.192,0.191 0.105,0 0.191,-0.085 0.191,-0.191"
         style="fill:#61b7ca;fill-opacity:1;fill-rule:nonzero;stroke:none;stroke-width:0.1"
         id="path1144" />
      <path
         d="m 262.668,385.854 c 0,-0.134 -0.109,-0.242 -0.242,-0.242 -0.133,0 -0.242,0.108 -0.242,0.242 0,0.133 0.109,0.241 0.242,0.241 0.133,0 0.242,-0.108 0.242,-0.241"
         style="fill:#61b7ca;fill-opacity:1;fill-rule:nonzero;stroke:none;stroke-width:0.1"
         id="path1146" />
      <path
         d="m 263.52,387.571 c 0,-0.077 -0.062,-0.139 -0.14,-0.139 -0.078,0 -0.14,0.062 -0.14,0.139 0,0.078 0.062,0.14 0.14,0.14 0.078,0 0.14,-0.062 0.14,-0.14"
         style="fill:#61b7ca;fill-opacity:1;fill-rule:nonzero;stroke:none;stroke-width:0.1"
         id="path1148" />
      <path
         d="m 236.982,386.095 c 0,-1.373 -1.113,-2.485 -2.485,-2.485 -1.373,0 -2.486,1.112 -2.486,2.485 0,1.373 1.113,2.486 2.486,2.486 1.372,0 2.485,-1.113 2.485,-2.486"
         style="fill:#7ed5ed;fill-opacity:1;fill-rule:nonzero;stroke:none;stroke-width:0.1"
         id="path1150" />
      <path
         d="m 234.159,387.711 c 0,-0.141 -0.115,-0.256 -0.257,-0.256 -0.141,0 -0.256,0.115 -0.256,0.256 0,0.142 0.115,0.256 0.256,0.256 0.142,0 0.257,-0.114 0.257,-0.256"
         style="fill:#61b7ca;fill-opacity:1;fill-rule:nonzero;stroke:none;stroke-width:0.1"
         id="path1152" />
      <path
         d="m 233.539,385.613 c 0,-0.265 -0.216,-0.481 -0.481,-0.481 -0.266,0 -0.482,0.216 -0.482,0.481 0,0.267 0.216,0.482 0.482,0.482 0.265,0 0.481,-0.215 0.481,-0.482"
         style="fill:#61b7ca;fill-opacity:1;fill-rule:nonzero;stroke:none;stroke-width:0.1"
         id="path1154" />
      <path
         d="m 236.146,385.024 c 0,-0.166 -0.135,-0.301 -0.301,-0.301 -0.166,0 -0.301,0.135 -0.301,0.301 0,0.166 0.135,0.301 0.301,0.301 0.166,0 0.301,-0.135 0.301,-0.301"
         style="fill:#61b7ca;fill-opacity:1;fill-rule:nonzero;stroke:none;stroke-width:0.1"
         id="path1156" />
      <path
         d="m 235.148,386.27 c 0,-0.166 -0.135,-0.301 -0.301,-0.301 -0.167,0 -0.301,0.135 -0.301,0.301 0,0.166 0.134,0.301 0.301,0.301 0.166,0 0.301,-0.135 0.301,-0.301"
         style="fill:#61b7ca;fill-opacity:1;fill-rule:nonzero;stroke:none;stroke-width:0.1"
         id="path1158" />
      <path
         d="m 234.725,384.293 c 0,-0.21 -0.17,-0.38 -0.38,-0.38 -0.21,0 -0.38,0.17 -0.38,0.38 0,0.21 0.17,0.38 0.38,0.38 0.21,0 0.38,-0.17 0.38,-0.38"
         style="fill:#61b7ca;fill-opacity:1;fill-rule:nonzero;stroke:none;stroke-width:0.1"
         id="path1160" />
      <path
         d="m 236.065,386.994 c 0,-0.122 -0.098,-0.22 -0.22,-0.22 -0.121,0 -0.22,0.098 -0.22,0.22 0,0.121 0.099,0.22 0.22,0.22 0.122,0 0.22,-0.099 0.22,-0.22"
         style="fill:#61b7ca;fill-opacity:1;fill-rule:nonzero;stroke:none;stroke-width:0.1"
         id="path1162" />
    </g>
  </g>
</svg>
