<?xml version="1.0" encoding="UTF-8" standalone="no"?>
<svg
   version="1.1"
   x="0px"
   y="0px"
   viewBox="0 0 182.24095 182.24095"
   xml:space="preserve"
   id="svg8"
   sodipodi:docname="quetzalcoatlus_flying_outline.svg"
   width="182.24095"
   height="182.24095"
   inkscape:version="1.1.1 (1:1.1+202109281949+c3084ef5ed)"
   inkscape:export-filename="/home/coolbreeze413/work/kk/mine/quetzalcoatlus/resources/images/quetzalcoatlus_flying_outline_256x256.png"
   inkscape:export-xdpi="134.85443"
   inkscape:export-ydpi="134.85443"
   xmlns:inkscape="http://www.inkscape.org/namespaces/inkscape"
   xmlns:sodipodi="http://sodipodi.sourceforge.net/DTD/sodipodi-0.dtd"
   xmlns="http://www.w3.org/2000/svg"
   xmlns:svg="http://www.w3.org/2000/svg"><defs
     id="defs12" /><sodipodi:namedview
     id="namedview10"
     pagecolor="#ffffff"
     bordercolor="#666666"
     borderopacity="1.0"
     inkscape:pageshadow="2"
     inkscape:pageopacity="0.0"
     inkscape:pagecheckerboard="0"
     showgrid="false"
     lock-margins="true"
     fit-margin-top="1"
     fit-margin-left="1"
     fit-margin-right="1"
     fit-margin-bottom="1"
     inkscape:zoom="3.2240001"
     inkscape:cx="-31.017369"
     inkscape:cy="109.49131"
     inkscape:window-width="2560"
     inkscape:window-height="1000"
     inkscape:window-x="1200"
     inkscape:window-y="1080"
     inkscape:window-maximized="1"
     inkscape:current-layer="svg8" /><path
     d="M 178.97518,2.4158742 C 164.47997,10.065555 150.70616,19.00444 137.8882,29.101365 c -4.46334,3.574944 -8.67829,7.318704 -12.52768,11.165696 l 0.20646,-0.731139 c 0.30969,-1.096708 -0.28056,-2.151513 -1.26006,-2.526795 -1.09673,-0.309698 -2.15153,0.280562 -2.5268,1.26007 l -1.52481,4.700789 -1.50844,-2.695612 c -0.52468,-0.937605 -1.80417,-1.298917 -2.74178,-0.774243 -0.9376,0.524673 -1.29891,1.804165 -0.77425,2.741771 l 3.08247,5.508426 c -10.3859,11.967877 -16.86226,22.671432 -17.83326,25.061602 -0.750575,1.959016 -0.779715,5.207239 -0.832525,9.238214 -0.132365,3.613794 -0.119603,7.761974 -0.748711,11.038129 -1.141014,6.48675 -6.912985,12.948587 -9.270964,13.960297 -1.823594,0.86657 -7.058768,-0.51312 -11.515444,-3.25184 -1.424629,-0.89568 -2.914844,-1.90859 -4.587844,-2.97311 -3.228798,-2.194618 -6.640383,-4.440858 -9.564939,-5.266717 -2.741774,-0.774236 -5.451353,0.434208 -7.457732,1.249153 -0.703202,0.393509 -1.70639,0.800987 -2.123577,0.880535 -2.221353,-1.219368 -12.70022,-6.744162 -12.765801,-6.861362 -0.862309,-0.440866 -1.996665,-0.267794 -2.620318,0.542897 -0.623652,0.810697 -0.450579,1.94505 0.24291,2.634283 1.700937,1.6645 3.016878,5.391232 2.594234,7.936241 -6.633069,2.1728 -13.303788,4.82837 -19.594971,7.88715 -1.003189,0.40748 -1.312886,1.5042 -1.088197,2.45575 0.224687,0.95158 1.335366,1.56126 2.286938,1.33659 0.182786,0.0517 16.76699,-2.76492 27.941748,-4.24727 -5.166537,3.96844 -12.766349,9.91413 -17.722167,14.53416 -0.806436,0.75909 -0.867762,2.02462 -0.108688,2.83104 0.759077,0.80645 2.024602,0.86777 2.831039,0.10872 1.092453,-1.07304 2.367691,-2.09446 3.577345,-3.23307 l 0.234398,-0.13125 c 5.45681,-2.89967 20.983154,-10.35684 26.790367,-9.60507 2.66222,0.35704 7.780193,1.80231 12.663769,3.37872 -6.638529,4.63828 -18.727207,5.86255 -23.747408,6.51718 -8.723257,1.18782 -17.100368,4.64438 -24.245347,10.02773 -1.912855,1.53212 -3.525728,3.05028 -5.255799,4.63402 l -4.025523,-2.51828 c -0.927892,-0.55807 -2.179451,-0.31941 -2.737518,0.60849 -0.558066,0.92788 -0.319411,2.17943 0.608482,2.73749 l 1.424631,0.89572 -2.892366,1.15683 c -1.003189,0.40748 -1.547287,1.63535 -1.139814,2.63853 0.407475,1.0032 1.635351,1.54731 2.63854,1.13983 l 0.468804,-0.26236 c -2.83224,3.73951 -5.416107,7.64784 -7.999978,11.55616 -4.0096993,6.86082 -7.5882445,13.9421 -10.6700519,21.36096 -0.3236658,0.79672 -0.033398,1.8655 0.7117156,2.37195 0.7451078,0.50644 1.8278482,0.51616 2.4654643,0.005 10.019119,-8.22292 19.82752,-17.09741 28.956397,-26.36118 13.419136,-13.97305 42.96284,-14.80755 48.676529,-14.77293 10.944619,0.0316 21.937812,-5.35062 24.816192,-6.80746 5.95233,1.28616 9.97907,-0.0437 12.3231,-1.35543 1.05479,-0.59025 1.6924,-1.10097 2.09561,-1.48051 l 0.35161,-0.19676 c 0.80098,1.70639 2.0987,3.75044 4.0061,4.68377 1.0451,0.49249 2.74177,0.77426 4.73416,-0.34071 0.93762,-0.52468 1.29894,-1.80418 0.77427,-2.74178 -0.52469,-0.9376 -1.80418,-1.29893 -2.74178,-0.77424 -0.7032,0.3935 -1.06877,0.29026 -1.25156,0.23865 -1.16229,-0.4269 -2.23958,-2.90208 -2.60941,-4.38803 -0.2107,-0.65159 -0.59025,-1.05481 -1.20419,-1.32685 -0.61394,-0.27208 -1.2139,-0.24412 -1.79991,0.0838 l -2.22682,1.24608 c -3.4826,0.10204 -5.20722,-0.7797 -6.21467,-1.75495 6.5997,-0.30651 15.42189,-3.24341 17.25947,-3.81 l 6.06529,-0.16212 c 1.33537,1.56126 4.55445,4.83862 8.81984,4.76027 0.29997,-0.0141 0.71717,-0.0933 0.95156,-0.22468 0.58601,-0.32794 0.97527,-1.00745 0.99894,-1.79021 0.009,-1.08274 -0.93216,-1.94081 -2.01488,-1.95051 -1.49995,0.0698 -2.79341,-0.59145 -3.85245,-1.38394 l 3.33748,-0.6364 c 0.29998,-0.014 0.41718,-0.0795 0.65159,-0.21073 0.70321,-0.39351 1.14407,-1.2558 0.98496,-2.09019 -0.17315,-1.13435 -1.28375,-1.74404 -2.30092,-1.63653 l -6.79215,1.33841 -6.06532,0.16217 c -1.6396,-2.93 -6.16916,-12.39957 -8.25028,-27.394597 -2.38963,-17.746502 3.95984,-27.301726 11.43937,-38.412751 l 0.33764,-0.496739 c 7.31074,-10.862656 44.47664,-44.2801979 44.87985,-44.6597363 0.68923,-0.6934909 0.81614,-1.8418154 0.35707,-2.66222 -0.45911,-0.8204042 -0.94187,-0.8580517 -1.76227,-0.3989616 z"
     id="path2"
     style="fill:#6c6753;fill-opacity:1;stroke:none;stroke-width:1.3;stroke-miterlimit:4;stroke-dasharray:none;stroke-opacity:1"
     sodipodi:nodetypes="cccscccssscccccccscccscccscccscccccccccscccsccccsccccscccsssccsscccccsccccsccccccccsc" /><path
     style="fill:#484537;fill-opacity:1;stroke:none;stroke-width:0.369384;stroke-linejoin:round;stroke-miterlimit:4;stroke-dasharray:none;stroke-opacity:1;paint-order:stroke fill markers;stop-color:#000000"
     id="path4682"
     sodipodi:type="arc"
     sodipodi:cx="59.389259"
     sodipodi:cy="19.017733"
     sodipodi:rx="1.020294"
     sodipodi:ry="1.020294"
     sodipodi:start="0.025783051"
     sodipodi:end="6.2831853"
     sodipodi:open="true"
     sodipodi:arc-type="arc"
     d="m 60.409214,19.044036 a 1.020294,1.020294 0 0 1 -1.039683,0.9938 1.020294,1.020294 0 0 1 -1.000481,-1.033256 1.020294,1.020294 0 0 1 1.026786,-1.00712 1.020294,1.020294 0 0 1 1.013717,1.020273" /><path
     style="fill:#484537;stroke-width:1.09953;stroke-linejoin:round;paint-order:stroke fill markers;stop-color:#000000"
     id="path866"
     sodipodi:type="arc"
     sodipodi:cx="55.091114"
     sodipodi:cy="103.19723"
     sodipodi:rx="1.4181254"
     sodipodi:ry="1.4181254"
     sodipodi:start="0.025783051"
     sodipodi:end="0"
     sodipodi:open="true"
     sodipodi:arc-type="arc"
     d="m 56.508768,103.23379 a 1.4181254,1.4181254 0 0 1 -1.445075,1.3813 1.4181254,1.4181254 0 0 1 -1.390587,-1.43614 1.4181254,1.4181254 0 0 1 1.427149,-1.39982 1.4181254,1.4181254 0 0 1 1.408984,1.4181" /></svg>
