<?xml version="1.0" encoding="UTF-8" standalone="no"?>
<!-- Created with Inkscape (http://www.inkscape.org/) -->

<svg
   width="35.570583mm"
   height="20.888868mm"
   viewBox="0 0 35.570583 20.888868"
   version="1.1"
   id="svg7923"
   inkscape:version="1.1.1 (1:1.1+202109281949+c3084ef5ed)"
   sodipodi:docname="saturn.svg"
   xmlns:inkscape="http://www.inkscape.org/namespaces/inkscape"
   xmlns:sodipodi="http://sodipodi.sourceforge.net/DTD/sodipodi-0.dtd"
   xmlns:xlink="http://www.w3.org/1999/xlink"
   xmlns="http://www.w3.org/2000/svg"
   xmlns:svg="http://www.w3.org/2000/svg">
  <sodipodi:namedview
     id="namedview7925"
     pagecolor="#000000"
     bordercolor="#666666"
     borderopacity="1.0"
     inkscape:pageshadow="2"
     inkscape:pageopacity="1"
     inkscape:pagecheckerboard="0"
     inkscape:document-units="mm"
     showgrid="false"
     fit-margin-top="0"
     fit-margin-left="0"
     fit-margin-right="0"
     fit-margin-bottom="0"
     inkscape:zoom="2.87211"
     inkscape:cx="-45.611066"
     inkscape:cy="1.3927043"
     inkscape:window-width="2560"
     inkscape:window-height="1000"
     inkscape:window-x="1200"
     inkscape:window-y="1080"
     inkscape:window-maximized="1"
     inkscape:current-layer="layer1" />
  <defs
     id="defs7920">
    <filter
       inkscape:label="Fill Background"
       inkscape:menu="Fill and Transparency"
       inkscape:menu-tooltip="Adds a colorizable opaque background"
       style="color-interpolation-filters:sRGB;"
       id="filter884"
       x="0"
       y="0"
       width="1"
       height="1">
      <feFlood
         result="result1"
         flood-color="rgb(0,0,0)"
         flood-opacity="1"
         id="feFlood872" />
      <feImage
         xlink:href=""
         result="result2"
         id="feImage874" />
      <feBlend
         result="result4"
         in2="result1"
         mode="multiply"
         id="feBlend876" />
      <feMerge
         result="result3"
         id="feMerge882">
        <feMergeNode
           in="result1"
           id="feMergeNode878" />
        <feMergeNode
           in="SourceGraphic"
           id="feMergeNode880" />
      </feMerge>
    </filter>
  </defs>
  <g
     inkscape:label="Layer 1"
     inkscape:groupmode="layer"
     id="layer1"
     transform="translate(-346.27922,-212.48981)">
    <g
       id="g7804"
       transform="matrix(0.35277777,0,0,-0.35277777,308.2205,284.44679)"
       style="filter:url(#filter884)">
      <g
         id="g854">
        <text
           transform="matrix(1,0,0,-1,111.031,150.247)"
           style="font-variant:normal;font-weight:600;font-size:4.84973px;font-family:Montserrat;-inkscape-font-specification:Montserrat-SemiBold;writing-mode:lr-tb;fill:#ffffff;fill-opacity:1;fill-rule:nonzero;stroke:none"
           id="text858"><tspan
             x="0 3.0504801 6.5133719 9.3698235 13.19626 16.741413"
             y="0"
             sodipodi:role="line"
             id="tspan856">SATURN</tspan></text>
      </g>
      <path
         d="m 135.157,148.779 h -27.274 v 0.241 h 27.274 v -0.241"
         style="fill:#ffffff;fill-opacity:1;fill-rule:nonzero;stroke:none;stroke-width:0.1"
         id="path860" />
      <path
         d="m 177.975,181.339 c -0.13,0.001 -0.132,-0.202 -0.002,-0.203 0.13,-0.002 0.133,0.201 0.002,0.203"
         style="fill:#ab8664;fill-opacity:1;fill-rule:nonzero;stroke:none;stroke-width:0.1"
         id="path862" />
      <path
         d="m 182.399,179.881 c -0.053,0 -0.054,-0.081 -0.001,-0.082 0.051,0 0.052,0.081 0.001,0.082"
         style="fill:#ab8664;fill-opacity:1;fill-rule:nonzero;stroke:none;stroke-width:0.1"
         id="path864" />
      <path
         d="m 194.799,172.704 -0.001,-0.105 c -0.017,-0.734 -0.057,-1.453 -0.147,-2.17 -0.063,-0.629 -0.16,-1.257 -0.28,-1.87 -0.025,-0.104 -0.043,-0.217 -0.068,-0.322 -0.026,-0.152 -0.06,-0.298 -0.094,-0.442 -0.553,-2.368 -1.459,-4.585 -2.677,-6.597 -0.832,-1.411 -1.832,-2.715 -2.944,-3.897 -1.472,-1.565 -3.159,-2.918 -5.012,-4.018 0,0 0,0 -0.008,0.001 -3.487,-2.067 -7.562,-3.237 -11.913,-3.187 -0.807,0.01 -1.597,0.06 -2.387,0.15 -0.654,0.08 -1.306,0.184 -1.95,0.313 -0.556,0.119 -1.111,0.255 -1.65,0.406 -0.692,0.195 -1.384,0.42 -2.051,0.687 -0.008,0 -0.024,0.009 -0.04,0.017 -0.659,0.257 -1.301,0.547 -1.927,0.862 -0.346,0.165 -0.683,0.347 -1.011,0.536 -0.866,0.487 -1.692,1.037 -2.484,1.636 -0.44,0.328 -0.872,0.68 -1.287,1.049 -0.751,0.654 -1.462,1.357 -2.107,2.099 -0.295,0.326 -0.565,0.653 -0.828,0.994 -0.453,0.571 -0.874,1.165 -1.27,1.784 -0.151,0.227 -0.302,0.463 -0.436,0.707 -0.95,1.593 -1.705,3.314 -2.241,5.129 -0.248,0.842 -0.456,1.708 -0.599,2.589 -0.113,0.631 -0.194,1.279 -0.252,1.925 -0.028,0.316 -0.049,0.622 -0.061,0.945 -0.007,0.089 -0.006,0.178 -0.013,0.267 -0.007,0.153 -0.013,0.307 -0.011,0.468 l 0.002,0.145 c -0.006,0.146 -0.005,0.291 -0.003,0.437 0.005,0.46 0.019,0.92 0.057,1.379 0.038,0.484 0.084,0.96 0.153,1.435 0.018,0.121 0.036,0.243 0.053,0.355 0.018,0.129 0.035,0.258 0.053,0.379 h 0.008 c 0.131,0.854 0.327,1.691 0.563,2.511 0.361,1.272 0.844,2.509 1.415,3.681 0.198,0.401 0.405,0.803 0.628,1.196 0.527,0.955 1.135,1.86 1.792,2.724 v 0.008 c 0.901,1.168 1.907,2.238 3.008,3.21 0.449,0.398 0.921,0.78 1.402,1.138 1.491,1.128 3.124,2.07 4.868,2.8 1.956,0.825 4.045,1.39 6.228,1.638 0.954,0.11 1.931,0.163 2.916,0.152 1.146,-0.013 2.275,-0.107 3.379,-0.29 0.814,-0.131 1.603,-0.301 2.383,-0.52 0.781,-0.203 1.537,-0.454 2.276,-0.754 0.105,-0.033 0.209,-0.075 0.306,-0.116 0.264,-0.109 0.522,-0.216 0.779,-0.34 1.67,-0.746 3.233,-1.694 4.657,-2.808 0.736,-0.574 1.439,-1.187 2.101,-1.865 0.096,-0.082 0.184,-0.172 0.28,-0.27 0.51,-0.523 1.004,-1.078 1.449,-1.656 0.223,-0.269 0.438,-0.546 0.62,-0.822 0.382,-0.506 0.723,-1.026 1.048,-1.563 1.599,-2.627 2.687,-5.593 3.118,-8.771 0.067,-0.445 0.11,-0.898 0.145,-1.35 0.049,-0.663 0.073,-1.341 0.065,-2.019"
         style="fill:#de634a;fill-opacity:1;fill-rule:nonzero;stroke:none;stroke-width:0.1"
         id="path866" />
      <path
         d="m 181.316,193.828 c -7.034,-11.195 -19.367,-19.221 -32.255,-21.636 -0.007,0.153 -0.013,0.307 -0.011,0.468 6.638,1.545 12.952,4.409 18.504,8.348 5.153,3.661 9.243,8.15 12.677,13.276 0.105,-0.033 0.209,-0.075 0.306,-0.116 0.264,-0.109 0.522,-0.216 0.779,-0.34"
         style="fill:#b65b53;fill-opacity:1;fill-rule:nonzero;stroke:none;stroke-width:0.1"
         id="path868" />
      <path
         d="m 188.074,189.155 c -5.421,-5.83 -11.289,-11.267 -18.095,-15.441 -5.106,-3.128 -13.173,-7.402 -19.993,-7.248 -0.248,0.842 -0.456,1.708 -0.599,2.589 2.575,0.592 5.283,0.9 7.778,1.669 4.27,1.323 8.305,3.293 12.071,5.679 6.287,3.995 11.708,9.154 16.737,14.617 0.736,-0.574 1.439,-1.187 2.101,-1.865"
         style="fill:#b65b53;fill-opacity:1;fill-rule:nonzero;stroke:none;stroke-width:0.1"
         id="path870" />
      <path
         d="m 194.651,170.429 c -0.063,-0.629 -0.16,-1.257 -0.28,-1.87 -0.025,-0.104 -0.043,-0.217 -0.068,-0.322 -3.415,-3.463 -7.103,-6.729 -10.866,-9.632 -4.253,-3.276 -9.06,-6.344 -14.169,-8.358 -0.654,0.08 -1.306,0.184 -1.95,0.313 5.754,2.629 11.236,5.414 16.28,9.415 4.017,3.183 7.499,6.847 11.053,10.454"
         style="fill:#b65b53;fill-opacity:1;fill-rule:nonzero;stroke:none;stroke-width:0.1"
         id="path872" />
      <path
         d="m 177.955,195.038 c -6.178,-9.793 -17.039,-18.4 -28.643,-18.627 0.018,0.129 0.035,0.258 0.053,0.379 h 0.008 c 6.241,0.758 12.834,5.282 17.496,9.07 3.455,2.809 6.295,6.069 8.703,9.698 0.814,-0.131 1.603,-0.301 2.383,-0.52"
         style="fill:#d58b8b;fill-opacity:1;fill-rule:nonzero;stroke:none;stroke-width:0.1"
         id="path874" />
      <path
         d="m 194.734,174.723 c -4.447,-4.703 -9.007,-9.412 -14.305,-13.055 -5.68,-3.898 -12.144,-7.059 -18.779,-9.136 -0.346,0.165 -0.683,0.347 -1.011,0.536 6.037,3.385 12.47,6.062 18.263,9.894 5.671,3.759 10.667,8.496 15.687,13.111 0.067,-0.445 0.11,-0.898 0.145,-1.35"
         style="fill:#d58b8b;fill-opacity:1;fill-rule:nonzero;stroke:none;stroke-width:0.1"
         id="path876" />
      <path
         d="m 190.423,186.407 c -4.877,-5.675 -10.58,-10.702 -16.668,-14.989 -3.745,-2.645 -7.688,-5.021 -11.781,-7.079 -2.972,-1.499 -6.065,-2.94 -9.311,-3.709 -0.151,0.227 -0.302,0.463 -0.436,0.707 14.695,4.994 27.286,14.38 37.576,25.892 0.223,-0.269 0.438,-0.546 0.62,-0.822"
         style="fill:#d58b8b;fill-opacity:1;fill-rule:nonzero;stroke:none;stroke-width:0.1"
         id="path878" />
      <path
         d="m 206.339,202.503 -0.032,0.04 c -1.336,1.744 -4.589,1.839 -9.084,0.575 -1.854,-0.519 -3.922,-1.27 -6.177,-2.244 -3.587,-1.557 -7.6,-3.641 -11.876,-6.206 0.459,-0.151 0.917,-0.318 1.367,-0.5 0.578,-0.234 1.14,-0.491 1.686,-0.779 0.289,-0.132 0.57,-0.281 0.842,-0.446 0.634,-0.338 1.235,-0.717 1.828,-1.127 0.747,0.419 1.478,0.814 2.177,1.177 1.592,0.829 3.029,1.498 4.31,2.008 3.099,1.239 5.225,1.529 5.917,0.625 l 0.016,-0.025 c 0.214,-0.285 0.282,-0.674 0.204,-1.157 -0.025,-0.097 -0.043,-0.193 -0.068,-0.298 -0.229,-0.949 -0.906,-2.193 -1.973,-3.666 -0.73,-1.024 -1.664,-2.168 -2.76,-3.39 -0.491,-0.559 -1.023,-1.134 -1.578,-1.725 -1.071,-1.126 -2.256,-2.307 -3.546,-3.535 0,0 0,0 -0.007,-0.008 -3.691,-3.517 -8.225,-7.395 -13.276,-11.275 -2.411,-1.853 -4.797,-3.584 -7.092,-5.18 -0.838,-0.588 -1.676,-1.159 -2.498,-1.706 -0.017,-0.008 -0.025,-0.025 -0.041,-0.032 -2.4,-1.595 -4.686,-3.029 -6.815,-4.263 -0.561,-0.333 -1.13,-0.65 -1.674,-0.949 -0.447,-0.245 -0.878,-0.483 -1.3,-0.712 -0.52,-0.268 -1.016,-0.529 -1.503,-0.765 -0.39,-0.197 -0.763,-0.379 -1.129,-0.552 -3.677,-1.733 -6.398,-2.467 -7.627,-1.937 -0.088,0.034 -0.168,0.075 -0.232,0.133 -0.064,0.041 -0.128,0.09 -0.176,0.138 -0.032,0.025 -0.056,0.058 -0.08,0.09 -0.072,0.09 -0.127,0.196 -0.166,0.317 -0.038,0.129 -0.069,0.259 -0.068,0.413 -0.02,0.339 0.058,0.757 0.233,1.232 0.209,0.579 0.547,1.245 1.016,1.982 0.157,0.256 0.329,0.513 0.518,0.793 0.46,0.657 1.009,1.376 1.623,2.128 h -0.007 c 0.851,1.04 1.833,2.142 2.944,3.316 0.058,0.064 0.115,0.12 0.18,0.183 -0.266,0.707 -0.483,1.435 -0.668,2.172 -0.086,0.308 -0.155,0.616 -0.216,0.931 -0.183,0.882 -0.317,1.788 -0.396,2.701 -0.013,0.194 -0.035,0.388 -0.041,0.582 -2.23,-2.154 -4.248,-4.262 -6.048,-6.291 -0.638,-0.719 -1.252,-1.422 -1.825,-2.117 -1.417,-1.703 -2.638,-3.319 -3.682,-4.857 -0.748,-1.122 -1.406,-2.196 -1.934,-3.199 -0.224,-0.425 -0.422,-0.818 -0.604,-1.212 -0.522,-1.14 -0.873,-2.185 -1.037,-3.104 -0.139,-0.765 -0.155,-1.459 -0.025,-2.05 0.046,-0.259 0.131,-0.494 0.226,-0.721 0.094,-0.219 0.205,-0.414 0.348,-0.593 0.04,-0.057 0.088,-0.115 0.143,-0.163 0.096,-0.115 0.208,-0.213 0.32,-0.303 0.12,-0.107 0.256,-0.205 0.392,-0.287 2.076,-1.251 6.118,-0.734 11.397,1.206 0.519,0.196 1.046,0.399 1.606,0.636 1.257,0.501 2.588,1.083 3.976,1.745 0.763,0.362 1.559,0.756 2.355,1.167 1.478,0.757 3.013,1.587 4.582,2.481 1.585,0.909 3.219,1.892 4.878,2.93 0.025,0.015 0.041,0.023 0.065,0.039 1.131,0.705 2.278,1.451 3.433,2.228 3.149,2.086 6.389,4.406 9.639,6.902 6.208,4.762 11.755,9.646 16.306,14.251 0.457,0.463 0.898,0.91 1.331,1.365 0.008,0.008 0.008,0.008 0.008,0.008 2.559,2.658 4.76,5.208 6.564,7.584 1.369,1.792 2.511,3.49 3.369,5.038 1.261,2.229 1.97,4.167 2.077,5.723 0.01,0.169 0.012,0.331 0.014,0.493 -0.015,0.807 -0.225,1.488 -0.629,2.042"
         style="fill:#d58b8b;fill-opacity:1;fill-rule:nonzero;stroke:none;stroke-width:0.1"
         id="path880" />
      <path
         d="m 201.247,198.606 -0.024,0.033 c -1.081,1.402 -3.68,1.424 -7.741,0.067 -1.54,-0.515 -3.268,-1.221 -5.151,-2.103 -1.924,-0.914 -3.963,-1.98 -6.108,-3.214 0.289,-0.132 0.57,-0.281 0.842,-0.446 1.967,1.115 3.843,2.094 5.613,2.929 1.85,0.866 3.554,1.565 5.061,2.064 3.591,1.2 6.022,1.278 6.841,0.21 l 0.318,0.246 -0.303,-0.27 c 0.239,-0.326 0.347,-0.763 0.317,-1.28 -0.01,-0.113 -0.019,-0.233 -0.037,-0.354 -0.159,-1.137 -0.806,-2.622 -1.932,-4.401 -0.766,-1.218 -1.767,-2.587 -2.979,-4.058 -1.13,-1.384 -2.415,-2.83 -3.845,-4.331 -0.589,-0.622 -1.201,-1.261 -1.846,-1.899 -4.265,-4.269 -9.468,-8.786 -15.057,-13.079 -2.704,-2.075 -5.448,-4.061 -8.142,-5.886 -0.976,-0.667 -1.944,-1.301 -2.945,-1.951 -2.749,-1.777 -5.367,-3.336 -7.789,-4.656 -0.04,-0.024 -0.072,-0.04 -0.113,-0.063 -0.666,-0.356 -1.324,-0.703 -1.958,-1.027 -1.153,-0.591 -2.257,-1.12 -3.28,-1.576 -0.463,-0.213 -0.9,-0.392 -1.322,-0.573 -4.324,-1.79 -7.487,-2.358 -8.907,-1.6 -0.096,0.05 -0.169,0.1 -0.256,0.173 -0.064,0.049 -0.128,0.107 -0.185,0.164 l -0.079,0.089 c -0.088,0.107 -0.143,0.22 -0.19,0.334 -0.046,0.138 -0.102,0.283 -0.115,0.47 -0.06,0.38 -0.023,0.863 0.121,1.427 0.178,0.684 0.502,1.488 0.981,2.378 0.165,0.313 0.338,0.626 0.544,0.955 0.445,0.761 1.028,1.618 1.717,2.562 l 0.099,0.137 c 0.894,1.2 1.942,2.479 3.12,3.813 0.499,0.568 1.031,1.151 1.587,1.742 0.523,0.567 1.07,1.133 1.643,1.716 -0.086,0.308 -0.155,0.616 -0.216,0.931 -0.702,-0.71 -1.372,-1.413 -2.018,-2.1 -0.556,-0.598 -1.096,-1.181 -1.603,-1.756 -1.236,-1.399 -2.333,-2.743 -3.26,-3.999 l -0.205,-0.28 c -0.616,-0.856 -1.142,-1.649 -1.562,-2.346 -0.206,-0.345 -0.387,-0.674 -0.56,-0.996 -0.504,-0.946 -0.853,-1.805 -1.047,-2.554 -0.17,-0.676 -0.217,-1.265 -0.142,-1.735 0.021,-0.25 0.092,-0.468 0.162,-0.639 0.07,-0.202 0.165,-0.381 0.3,-0.552 0.048,-0.058 0.104,-0.123 0.136,-0.148 0.087,-0.097 0.191,-0.187 0.264,-0.237 0.103,-0.097 0.232,-0.179 0.384,-0.263 0.514,-0.272 1.174,-0.416 1.973,-0.426 1.816,-0.022 4.367,0.643 7.62,1.993 0.438,0.181 0.876,0.369 1.346,0.582 1.031,0.456 2.152,0.992 3.313,1.592 0.65,0.331 1.316,0.678 1.974,1.042 0.122,0.071 0.252,0.134 0.374,0.206 2.372,1.296 4.925,2.824 7.642,4.576 0.952,0.618 1.92,1.261 2.904,1.928 2.71,1.833 5.462,3.826 8.184,5.918 5.612,4.309 10.84,8.849 15.137,13.15 0.572,0.574 1.127,1.141 1.667,1.7 1.52,1.58 2.886,3.122 4.082,4.577 1.229,1.504 2.246,2.897 3.028,4.139 1.184,1.883 1.873,3.474 2.049,4.723 0.026,0.136 0.036,0.273 0.045,0.411 0.041,0.725 -0.113,1.333 -0.471,1.821"
         style="fill:#b65b53;fill-opacity:1;fill-rule:nonzero;stroke:none;stroke-width:0.1"
         id="path882" />
      <path
         d="m 149.41,185.984 c 0,-3.327 -2.697,-6.024 -6.025,-6.024 -3.328,0 -6.025,2.697 -6.025,6.024 0,3.328 2.697,6.025 6.025,6.025 3.328,0 6.025,-2.697 6.025,-6.025"
         style="fill:#b65b53;fill-opacity:1;fill-rule:nonzero;stroke:none;stroke-width:0.1"
         id="path884" />
      <path
         d="m 142.566,189.901 c 0,-0.343 -0.278,-0.621 -0.622,-0.621 -0.342,0 -0.621,0.278 -0.621,0.621 0,0.344 0.279,0.621 0.621,0.621 0.344,0 0.622,-0.277 0.622,-0.621"
         style="fill:#d58b8b;fill-opacity:1;fill-rule:nonzero;stroke:none;stroke-width:0.1"
         id="path886" />
      <path
         d="m 141.064,184.817 c 0,-0.644 -0.523,-1.167 -1.167,-1.167 -0.645,0 -1.168,0.523 -1.168,1.167 0,0.645 0.523,1.167 1.168,1.167 0.644,0 1.167,-0.522 1.167,-1.167"
         style="fill:#d58b8b;fill-opacity:1;fill-rule:nonzero;stroke:none;stroke-width:0.1"
         id="path888" />
      <path
         d="m 147.383,183.387 c 0,-0.403 -0.326,-0.729 -0.729,-0.729 -0.403,0 -0.73,0.326 -0.73,0.729 0,0.403 0.327,0.73 0.73,0.73 0.403,0 0.729,-0.327 0.729,-0.73"
         style="fill:#d58b8b;fill-opacity:1;fill-rule:nonzero;stroke:none;stroke-width:0.1"
         id="path890" />
      <path
         d="m 144.963,186.408 c 0,-0.402 -0.327,-0.73 -0.73,-0.73 -0.403,0 -0.729,0.328 -0.729,0.73 0,0.403 0.326,0.729 0.729,0.729 0.403,0 0.73,-0.326 0.73,-0.729"
         style="fill:#d58b8b;fill-opacity:1;fill-rule:nonzero;stroke:none;stroke-width:0.1"
         id="path892" />
      <path
         d="m 143.938,181.616 c 0,-0.509 -0.412,-0.921 -0.92,-0.921 -0.509,0 -0.92,0.412 -0.92,0.921 0,0.508 0.411,0.92 0.92,0.92 0.508,0 0.92,-0.412 0.92,-0.92"
         style="fill:#d58b8b;fill-opacity:1;fill-rule:nonzero;stroke:none;stroke-width:0.1"
         id="path894" />
      <path
         d="m 147.187,188.163 c 0,-0.295 -0.239,-0.533 -0.533,-0.533 -0.294,0 -0.533,0.238 -0.533,0.533 0,0.294 0.239,0.533 0.533,0.533 0.294,0 0.533,-0.239 0.533,-0.533"
         style="fill:#d58b8b;fill-opacity:1;fill-rule:nonzero;stroke:none;stroke-width:0.1"
         id="path896" />
      <path
         d="m 173.509,201.365 c 0,-1.206 -0.978,-2.184 -2.184,-2.184 -1.206,0 -2.184,0.978 -2.184,2.184 0,1.206 0.978,2.184 2.184,2.184 1.206,0 2.184,-0.978 2.184,-2.184"
         style="fill:#d58b8b;fill-opacity:1;fill-rule:nonzero;stroke:none;stroke-width:0.1"
         id="path898" />
      <path
         d="m 171.028,202.785 c 0,-0.124 -0.101,-0.226 -0.225,-0.226 -0.124,0 -0.225,0.102 -0.225,0.226 0,0.124 0.101,0.225 0.225,0.225 0.124,0 0.225,-0.101 0.225,-0.225"
         style="fill:#de634a;fill-opacity:1;fill-rule:nonzero;stroke:none;stroke-width:0.1"
         id="path900" />
      <path
         d="m 170.484,200.942 c 0,-0.234 -0.189,-0.424 -0.423,-0.424 -0.234,0 -0.424,0.19 -0.424,0.424 0,0.233 0.19,0.423 0.424,0.423 0.234,0 0.423,-0.19 0.423,-0.423"
         style="fill:#de634a;fill-opacity:1;fill-rule:nonzero;stroke:none;stroke-width:0.1"
         id="path902" />
      <path
         d="m 172.775,200.424 c 0,-0.147 -0.119,-0.265 -0.265,-0.265 -0.146,0 -0.264,0.118 -0.264,0.265 0,0.145 0.118,0.264 0.264,0.264 0.146,0 0.265,-0.119 0.265,-0.264"
         style="fill:#de634a;fill-opacity:1;fill-rule:nonzero;stroke:none;stroke-width:0.1"
         id="path904" />
      <path
         d="m 171.897,201.518 c 0,-0.145 -0.118,-0.264 -0.265,-0.264 -0.146,0 -0.264,0.119 -0.264,0.264 0,0.147 0.118,0.265 0.264,0.265 0.147,0 0.265,-0.118 0.265,-0.265"
         style="fill:#de634a;fill-opacity:1;fill-rule:nonzero;stroke:none;stroke-width:0.1"
         id="path906" />
      <path
         d="m 171.526,199.781 c 0,-0.184 -0.15,-0.333 -0.334,-0.333 -0.184,0 -0.333,0.149 -0.333,0.333 0,0.185 0.149,0.334 0.333,0.334 0.184,0 0.334,-0.149 0.334,-0.334"
         style="fill:#de634a;fill-opacity:1;fill-rule:nonzero;stroke:none;stroke-width:0.1"
         id="path908" />
      <path
         d="m 172.703,202.154 c 0,-0.106 -0.086,-0.192 -0.193,-0.192 -0.107,0 -0.193,0.086 -0.193,0.192 0,0.107 0.086,0.193 0.193,0.193 0.107,0 0.193,-0.086 0.193,-0.193"
         style="fill:#de634a;fill-opacity:1;fill-rule:nonzero;stroke:none;stroke-width:0.1"
         id="path910" />
      <path
         d="m 172.762,146.945 c 0,-1.207 -0.978,-2.185 -2.184,-2.185 -1.206,0 -2.184,0.978 -2.184,2.185 0,1.206 0.978,2.184 2.184,2.184 1.206,0 2.184,-0.978 2.184,-2.184"
         style="fill:#d58b8b;fill-opacity:1;fill-rule:nonzero;stroke:none;stroke-width:0.1"
         id="path912" />
      <path
         d="m 170.281,148.364 c 0,-0.124 -0.101,-0.225 -0.225,-0.225 -0.125,0 -0.225,0.101 -0.225,0.225 0,0.125 0.1,0.226 0.225,0.226 0.124,0 0.225,-0.101 0.225,-0.226"
         style="fill:#de634a;fill-opacity:1;fill-rule:nonzero;stroke:none;stroke-width:0.1"
         id="path914" />
      <path
         d="m 169.736,146.521 c 0,-0.233 -0.189,-0.423 -0.422,-0.423 -0.234,0 -0.424,0.19 -0.424,0.423 0,0.235 0.19,0.424 0.424,0.424 0.233,0 0.422,-0.189 0.422,-0.424"
         style="fill:#de634a;fill-opacity:1;fill-rule:nonzero;stroke:none;stroke-width:0.1"
         id="path916" />
      <path
         d="m 172.027,146.003 c 0,-0.146 -0.118,-0.264 -0.264,-0.264 -0.146,0 -0.265,0.118 -0.265,0.264 0,0.146 0.119,0.264 0.265,0.264 0.146,0 0.264,-0.118 0.264,-0.264"
         style="fill:#de634a;fill-opacity:1;fill-rule:nonzero;stroke:none;stroke-width:0.1"
         id="path918" />
      <path
         d="m 171.15,147.098 c 0,-0.146 -0.119,-0.264 -0.265,-0.264 -0.146,0 -0.264,0.118 -0.264,0.264 0,0.146 0.118,0.265 0.264,0.265 0.146,0 0.265,-0.119 0.265,-0.265"
         style="fill:#de634a;fill-opacity:1;fill-rule:nonzero;stroke:none;stroke-width:0.1"
         id="path920" />
      <path
         d="m 170.778,145.361 c 0,-0.185 -0.149,-0.334 -0.333,-0.334 -0.185,0 -0.334,0.149 -0.334,0.334 0,0.184 0.149,0.333 0.334,0.333 0.184,0 0.333,-0.149 0.333,-0.333"
         style="fill:#de634a;fill-opacity:1;fill-rule:nonzero;stroke:none;stroke-width:0.1"
         id="path922" />
      <path
         d="m 171.956,147.734 c 0,-0.106 -0.086,-0.193 -0.193,-0.193 -0.107,0 -0.194,0.087 -0.194,0.193 0,0.107 0.087,0.193 0.194,0.193 0.107,0 0.193,-0.086 0.193,-0.193"
         style="fill:#de634a;fill-opacity:1;fill-rule:nonzero;stroke:none;stroke-width:0.1"
         id="path924" />
      <path
         d="m 208.713,163.24 c 0,-2.872 -2.329,-5.2 -5.201,-5.2 -2.871,0 -5.199,2.328 -5.199,5.2 0,2.872 2.328,5.2 5.199,5.2 2.872,0 5.201,-2.328 5.201,-5.2"
         style="fill:#b65b53;fill-opacity:1;fill-rule:nonzero;stroke:none;stroke-width:0.1"
         id="path926" />
      <path
         d="m 202.806,166.621 c 0,-0.296 -0.24,-0.536 -0.536,-0.536 -0.297,0 -0.537,0.24 -0.537,0.536 0,0.296 0.24,0.536 0.537,0.536 0.296,0 0.536,-0.24 0.536,-0.536"
         style="fill:#d58b8b;fill-opacity:1;fill-rule:nonzero;stroke:none;stroke-width:0.1"
         id="path928" />
      <path
         d="m 201.509,162.232 c 0,-0.556 -0.451,-1.007 -1.007,-1.007 -0.557,0 -1.008,0.451 -1.008,1.007 0,0.557 0.451,1.008 1.008,1.008 0.556,0 1.007,-0.451 1.007,-1.008"
         style="fill:#d58b8b;fill-opacity:1;fill-rule:nonzero;stroke:none;stroke-width:0.1"
         id="path930" />
      <path
         d="m 206.964,160.999 c 0,-0.348 -0.282,-0.63 -0.63,-0.63 -0.348,0 -0.63,0.282 -0.63,0.63 0,0.347 0.282,0.629 0.63,0.629 0.348,0 0.63,-0.282 0.63,-0.629"
         style="fill:#d58b8b;fill-opacity:1;fill-rule:nonzero;stroke:none;stroke-width:0.1"
         id="path932" />
      <path
         d="m 204.874,163.605 c 0,-0.347 -0.282,-0.629 -0.629,-0.629 -0.348,0 -0.63,0.282 -0.63,0.629 0,0.349 0.282,0.63 0.63,0.63 0.347,0 0.629,-0.281 0.629,-0.63"
         style="fill:#d58b8b;fill-opacity:1;fill-rule:nonzero;stroke:none;stroke-width:0.1"
         id="path934" />
      <path
         d="m 203.99,159.469 c 0,-0.438 -0.356,-0.795 -0.795,-0.795 -0.438,0 -0.794,0.357 -0.794,0.795 0,0.439 0.356,0.794 0.794,0.794 0.439,0 0.795,-0.355 0.795,-0.794"
         style="fill:#d58b8b;fill-opacity:1;fill-rule:nonzero;stroke:none;stroke-width:0.1"
         id="path936" />
      <path
         d="m 206.794,165.12 c 0,-0.254 -0.206,-0.46 -0.46,-0.46 -0.254,0 -0.46,0.206 -0.46,0.46 0,0.254 0.206,0.46 0.46,0.46 0.254,0 0.46,-0.206 0.46,-0.46"
         style="fill:#d58b8b;fill-opacity:1;fill-rule:nonzero;stroke:none;stroke-width:0.1"
         id="path938" />
      <path
         d="m 191.8,148.841 c 0,-2.057 -1.668,-3.725 -3.726,-3.725 -2.057,0 -3.726,1.668 -3.726,3.725 0,2.058 1.669,3.727 3.726,3.727 2.058,0 3.726,-1.669 3.726,-3.727"
         style="fill:#b65b53;fill-opacity:1;fill-rule:nonzero;stroke:none;stroke-width:0.1"
         id="path940" />
      <path
         d="m 187.568,151.264 c 0,-0.213 -0.172,-0.384 -0.384,-0.384 -0.213,0 -0.385,0.171 -0.385,0.384 0,0.212 0.172,0.384 0.385,0.384 0.212,0 0.384,-0.172 0.384,-0.384"
         style="fill:#d58b8b;fill-opacity:1;fill-rule:nonzero;stroke:none;stroke-width:0.1"
         id="path942" />
      <path
         d="m 186.639,148.12 c 0,-0.399 -0.323,-0.722 -0.722,-0.722 -0.399,0 -0.722,0.323 -0.722,0.722 0,0.398 0.323,0.721 0.722,0.721 0.399,0 0.722,-0.323 0.722,-0.721"
         style="fill:#d58b8b;fill-opacity:1;fill-rule:nonzero;stroke:none;stroke-width:0.1"
         id="path944" />
      <path
         d="m 190.547,147.236 c 0,-0.249 -0.202,-0.451 -0.451,-0.451 -0.25,0 -0.451,0.202 -0.451,0.451 0,0.249 0.201,0.451 0.451,0.451 0.249,0 0.451,-0.202 0.451,-0.451"
         style="fill:#d58b8b;fill-opacity:1;fill-rule:nonzero;stroke:none;stroke-width:0.1"
         id="path946" />
      <path
         d="m 189.05,149.104 c 0,-0.25 -0.202,-0.451 -0.451,-0.451 -0.249,0 -0.451,0.201 -0.451,0.451 0,0.249 0.202,0.451 0.451,0.451 0.249,0 0.451,-0.202 0.451,-0.451"
         style="fill:#d58b8b;fill-opacity:1;fill-rule:nonzero;stroke:none;stroke-width:0.1"
         id="path948" />
      <path
         d="m 188.416,146.14 c 0,-0.314 -0.255,-0.569 -0.569,-0.569 -0.314,0 -0.569,0.255 -0.569,0.569 0,0.315 0.255,0.569 0.569,0.569 0.314,0 0.569,-0.254 0.569,-0.569"
         style="fill:#d58b8b;fill-opacity:1;fill-rule:nonzero;stroke:none;stroke-width:0.1"
         id="path950" />
      <path
         d="m 190.425,150.189 c 0,-0.182 -0.147,-0.33 -0.329,-0.33 -0.182,0 -0.33,0.148 -0.33,0.33 0,0.182 0.148,0.329 0.33,0.329 0.182,0 0.329,-0.147 0.329,-0.329"
         style="fill:#d58b8b;fill-opacity:1;fill-rule:nonzero;stroke:none;stroke-width:0.1"
         id="path952" />
    </g>
  </g>
</svg>
