<?xml version="1.0" encoding="UTF-8" standalone="no"?>
<!-- Created with Inkscape (http://www.inkscape.org/) -->

<svg
   width="21.316267mm"
   height="20.32423mm"
   viewBox="0 0 21.316267 20.32423"
   version="1.1"
   id="svg3564"
   inkscape:version="1.1.1 (1:1.1+202109281949+c3084ef5ed)"
   sodipodi:docname="sun.svg"
   xmlns:inkscape="http://www.inkscape.org/namespaces/inkscape"
   xmlns:sodipodi="http://sodipodi.sourceforge.net/DTD/sodipodi-0.dtd"
   xmlns="http://www.w3.org/2000/svg"
   xmlns:svg="http://www.w3.org/2000/svg">
  <sodipodi:namedview
     id="namedview3566"
     pagecolor="#000000"
     bordercolor="#666666"
     borderopacity="1.0"
     inkscape:pageshadow="2"
     inkscape:pageopacity="1"
     inkscape:pagecheckerboard="0"
     inkscape:document-units="mm"
     showgrid="false"
     fit-margin-top="0"
     fit-margin-left="0"
     fit-margin-right="0"
     fit-margin-bottom="0"
     inkscape:zoom="4.0617769"
     inkscape:cx="-27.574139"
     inkscape:cy="34.467674"
     inkscape:window-width="2560"
     inkscape:window-height="1000"
     inkscape:window-x="1200"
     inkscape:window-y="1080"
     inkscape:window-maximized="1"
     inkscape:current-layer="layer1" />
  <defs
     id="defs3561" />
  <g
     inkscape:label="Layer 1"
     inkscape:groupmode="layer"
     id="layer1"
     transform="translate(-178.02196,-155.40953)">
    <path
       d="m 178.10874,159.52327 c -0.0349,-0.0416 -0.0296,-0.10336 0.0116,-0.13829 0.0413,-0.0349 0.10337,-0.0296 0.13794,0.0116 0.0353,0.0413 0.03,0.10301 -0.0113,0.13794 -0.0413,0.0349 -0.10336,0.03 -0.13829,-0.0113"
       style="fill:#e0e1e0;fill-opacity:1;fill-rule:nonzero;stroke:none;stroke-width:0.0352778"
       id="path440" />
    <path
       d="m 199.08068,163.0193 c 0.0257,-0.0688 0.10195,-0.10407 0.17109,-0.0783 0.0688,0.0258 0.10372,0.10231 0.078,0.17074 -0.0254,0.0688 -0.10196,0.10407 -0.17075,0.0787 -0.0684,-0.0261 -0.10371,-0.10265 -0.0783,-0.17109"
       style="fill:#e0e1e0;fill-opacity:1;fill-rule:nonzero;stroke:none;stroke-width:0.0352778"
       id="path536" />
    <path
       d="m 198.34655,165.572 c 0,5.61234 -4.54978,10.16176 -10.16212,10.16176 -5.6127,0 -10.16247,-4.54942 -10.16247,-10.16176 0,-5.6127 4.54977,-10.16247 10.16247,-10.16247 5.61234,0 10.16212,4.54977 10.16212,10.16247"
       style="fill:#f68c1c;fill-opacity:1;fill-rule:nonzero;stroke:none;stroke-width:0.0352778"
       id="path540" />
    <path
       d="m 197.28292,165.572 c 0,5.02496 -4.07352,9.09849 -9.09849,9.09849 -5.02497,0 -9.09849,-4.07353 -9.09849,-9.09849 0,-5.02532 4.07352,-9.09885 9.09849,-9.09885 5.02497,0 9.09849,4.07353 9.09849,9.09885"
       style="fill:#f6b617;fill-opacity:1;fill-rule:nonzero;stroke:none;stroke-width:0.0352778"
       id="path542" />
    <path
       d="m 195.93566,165.572 c 0,4.2806 -3.47063,7.75088 -7.75123,7.75088 -4.28096,0 -7.75159,-3.47028 -7.75159,-7.75088 0,-4.28131 3.47063,-7.75159 7.75159,-7.75159 4.2806,0 7.75123,3.47028 7.75123,7.75159"
       style="fill:#f7c732;fill-opacity:1;fill-rule:nonzero;stroke:none;stroke-width:0.0352778"
       id="path544" />
    <path
       d="m 179.88392,164.90701 c 0.72813,0.31644 0.94968,-0.41169 1.74096,-0.85478 0.79163,-0.44344 0.75988,-0.12665 1.70991,-0.88653 0.94933,-0.75988 -0.82338,-2.15265 0.22155,-2.1844 1.04457,-0.0318 -0.19015,1.67781 1.64606,0 1.83621,-1.67781 1.8676,-1.42452 2.59609,0.37994 0.72778,1.80446 1.9625,2.0895 1.39277,2.81728 -0.56974,0.72849 -1.55117,1.45627 -1.67781,0.3168 -0.12665,-1.13983 0.98142,-2.81764 -0.82339,-2.15265 -1.8041,0.66463 -1.9117,2.45145 -2.07962,2.74532 -0.16792,0.29351 -1.14935,0.83185 -1.14935,0.16721 0,-0.66498 -0.91793,0 -0.88618,0.98108 0.0318,0.98178 -0.79163,3.19758 -0.88653,1.23472 -0.0949,-1.9625 0.41169,-2.69099 -0.63324,-1.70921 -1.04457,0.98143 -1.29787,0.88618 -1.36101,0.56974 -0.0635,-0.3168 0.18979,-1.42452 0.18979,-1.42452"
       style="fill:#f6b617;fill-opacity:1;fill-rule:nonzero;stroke:none;stroke-width:0.0352778"
       id="path546" />
    <path
       d="m 181.21354,170.00394 c 1.39312,1.99426 2.2793,2.78554 2.97568,1.55082 0.69674,-1.23473 1.86796,-1.77271 2.3428,-1.07598 0.47484,0.69639 0.34819,-3.17817 -0.91793,-2.22214 -1.26647,0.95567 -2.08809,1.17722 -1.61396,0.54433 0.47414,-0.63323 2.43699,-1.9946 3.76661,-1.01318 1.32962,0.98143 2.43769,0.22155 2.56434,-0.72813 0.12665,-0.94968 0.51329,-0.0318 -0.99413,0 -1.50671,0.0314 -0.39899,-0.72813 -2.29834,-0.72813 -1.89971,0 -1.5106,0.15804 -2.52801,1.10772 -1.01776,0.95003 -2.09409,1.86796 -1.36595,2.3428 0.72813,0.47519 1.59208,-0.0317 1.36595,0.44344 -0.22648,0.47484 -2.60068,0.31644 -2.31563,-0.41169 0.28504,-0.72814 0.31644,-1.13983 0.0949,-1.10808 -0.22155,0.0317 -0.1584,0.5902 -0.56974,0.53234 -0.41169,-0.0575 -1.17122,-0.0257 -1.07633,0.32244 0.0949,0.34819 0.56974,0.44344 0.56974,0.44344"
       style="fill:#f6b617;fill-opacity:1;fill-rule:nonzero;stroke:none;stroke-width:0.0352778"
       id="path548" />
    <path
       d="m 189.33695,156.89754 c 0.2974,1.55117 0.67734,1.61432 0.89888,2.81729 0.2219,1.20332 -0.98107,1.45626 -0.60148,2.34279 0.37994,0.88654 0.72813,1.29787 1.61466,0.98143 0.88653,-0.31644 0.15804,-2.78588 2.0895,-2.1209 1.93111,0.66464 2.1403,1.24002 2.20345,0.32209 0.0635,-0.91828 -1.82351,-2.76013 -2.3936,-2.50649 -0.56973,0.25294 -1.23436,1.10772 -1.55116,1.74096 -0.31644,0.63324 -1.55116,1.67781 -0.79163,0.34855 0.76023,-1.32962 0.72848,-2.4063 0.53869,-2.62785 -0.19015,-0.22154 -0.50694,-0.53834 -1.01318,-0.79128 -0.50659,-0.25364 -0.99413,-0.50659 -0.99413,-0.50659"
       style="fill:#f6b617;fill-opacity:1;fill-rule:nonzero;stroke:none;stroke-width:0.0352778"
       id="path550" />
    <path
       d="m 196.54914,167.80649 c -0.66498,-0.56338 -1.49824,-1.15852 -0.61348,-1.98155 0.88512,-0.82303 0.15699,-2.0895 -1.20438,-1.29787 -1.36102,0.79128 -0.63324,1.38994 -1.45627,1.73955 -0.82303,0.3496 -1.83621,0.38135 -0.98143,1.42592 0.85478,1.04493 0.75989,2.27965 1.23473,1.10843 0.47519,-1.17122 0.37218,-2.72274 0.99342,-2.81763 0.62124,-0.0949 -0.27305,0.56973 0,1.45591 0.27305,0.88653 0.43109,1.10807 1.22273,1.55152 0.79128,0.44309 0.66957,0.11394 0.66957,0.11394 l 0.13511,-1.29822"
       style="fill:#f6b617;fill-opacity:1;fill-rule:nonzero;stroke:none;stroke-width:0.0352778"
       id="path552" />
    <path
       d="m 194.95282,170.47878 c -1.45626,0.60149 -2.9912,1.13948 -2.98344,0.34819 0.008,-0.79163 0.84702,-2.34279 0,-2.34279 -0.84702,0 -0.88547,0.63323 -1.4993,1.13982 -0.61384,0.50624 -0.0374,0.30163 -1.13313,0.23001 -1.09537,-0.072 -1.22202,0.59302 -1.12712,1.51095 0.0949,0.91828 -0.15805,1.83621 0.56974,1.39312 0.72848,-0.44309 0.28504,-2.02636 0.88653,-1.39312 0.60148,0.63324 0.31644,1.23472 0.60148,0.63324 0.28505,-0.60149 -0.35489,-1.27812 0.2025,-1.31974 0.55739,-0.0416 1.00682,0.24341 1.09855,0.8763 0.0921,0.63323 -0.0145,1.10807 1.06785,1.13982 1.08197,0.0317 1.65771,-0.5521 1.97415,-1.30034 0.31644,-0.74824 0.34219,-0.91546 0.34219,-0.91546"
       style="fill:#f6b617;fill-opacity:1;fill-rule:nonzero;stroke:none;stroke-width:0.0352778"
       id="path554" />
    <path
       d="m 189.6661,164.45546 c 0.0275,1.0735 0.83114,1.5434 1.30598,1.68627 0.47484,0.14217 1.99425,-0.85478 2.25566,-1.40123 0.26106,-0.5461 1.35326,-1.97062 2.11314,-1.49543 0.75953,0.47484 1.28235,0.81069 1.28235,0.81069 0,0 -0.024,-1.11937 -0.14288,-1.16699 -0.11853,-0.0476 -1.07774,-0.59373 -1.28658,-0.61736 -0.2092,-0.0236 -1.77588,-0.0236 -1.8475,0 -0.0713,0.0236 -0.40322,1.59738 -1.37689,1.78435 -0.97366,0.18626 -1.6383,-0.0748 -1.75718,-0.0988 -0.11854,-0.0236 -0.57009,-0.42721 -0.5461,0.49848"
       style="fill:#f6b617;fill-opacity:1;fill-rule:nonzero;stroke:none;stroke-width:0.0352778"
       id="path556" />
  </g>
</svg>
