<?xml version="1.0" encoding="UTF-8" standalone="no"?>
<!-- Created with Inkscape (http://www.inkscape.org/) -->

<svg
   width="27.335472mm"
   height="19.6663mm"
   viewBox="0 0 27.335472 19.6663"
   version="1.1"
   id="svg8373"
   inkscape:version="1.1.1 (1:1.1+202109281949+c3084ef5ed)"
   sodipodi:docname="uranus.svg"
   xmlns:inkscape="http://www.inkscape.org/namespaces/inkscape"
   xmlns:sodipodi="http://sodipodi.sourceforge.net/DTD/sodipodi-0.dtd"
   xmlns:xlink="http://www.w3.org/1999/xlink"
   xmlns="http://www.w3.org/2000/svg"
   xmlns:svg="http://www.w3.org/2000/svg">
  <sodipodi:namedview
     id="namedview8375"
     pagecolor="#000000"
     bordercolor="#666666"
     borderopacity="1.0"
     inkscape:pageshadow="2"
     inkscape:pageopacity="1"
     inkscape:pagecheckerboard="0"
     inkscape:document-units="mm"
     showgrid="false"
     fit-margin-top="0"
     fit-margin-left="0"
     fit-margin-right="0"
     fit-margin-bottom="0"
     inkscape:zoom="5.74422"
     inkscape:cx="-16.712452"
     inkscape:cy="33.250816"
     inkscape:window-width="2560"
     inkscape:window-height="1000"
     inkscape:window-x="1200"
     inkscape:window-y="1080"
     inkscape:window-maximized="1"
     inkscape:current-layer="layer1" />
  <defs
     id="defs8370">
    <filter
       inkscape:label="Fill Background"
       inkscape:menu="Fill and Transparency"
       inkscape:menu-tooltip="Adds a colorizable opaque background"
       style="color-interpolation-filters:sRGB;"
       id="filter879"
       x="0"
       y="0"
       width="1"
       height="1">
      <feFlood
         result="result1"
         flood-color="rgb(0,0,0)"
         flood-opacity="1"
         id="feFlood867" />
      <feImage
         xlink:href=""
         result="result2"
         id="feImage869" />
      <feBlend
         result="result4"
         in2="result1"
         mode="multiply"
         id="feBlend871" />
      <feMerge
         result="result3"
         id="feMerge877">
        <feMergeNode
           in="result1"
           id="feMergeNode873" />
        <feMergeNode
           in="SourceGraphic"
           id="feMergeNode875" />
      </feMerge>
    </filter>
  </defs>
  <g
     inkscape:label="Layer 1"
     inkscape:groupmode="layer"
     id="layer1"
     transform="translate(-295.49221,-199.4671)">
    <g
       id="g8668"
       style="filter:url(#filter879)">
      <g
         id="g558"
         transform="matrix(0.35277777,0,0,-0.35277777,174.27331,273.67743)">
        <text
           transform="matrix(1,0,0,-1,396.973,166.649)"
           style="font-variant:normal;font-weight:600;font-size:4.84973px;font-family:Montserrat;-inkscape-font-specification:Montserrat-SemiBold;writing-mode:lr-tb;fill:#ffffff;fill-opacity:1;fill-rule:nonzero;stroke:none"
           id="text562"><tspan
             x="0 3.826437 7.3715897 11.004037 14.931782 18.758951"
             y="0"
             sodipodi:role="line"
             id="tspan560">URANUS</tspan></text>
      </g>
      <path
         d="m 322.82768,215.40525 h -9.62166 v -0.0854 h 9.62166 v 0.0854"
         style="fill:#ffffff;fill-opacity:1;fill-rule:nonzero;stroke:none;stroke-width:0.0352778"
         id="path564" />
      <path
         d="m 309.96222,211.75364 c -0.14922,0.37677 -0.33161,0.73378 -0.54645,1.06786 l -0.17639,0.25718 c -0.0384,0.06 -0.0843,0.11994 -0.13088,0.17497 -0.11994,0.15558 -0.24553,0.3048 -0.37853,0.44697 -0.0787,0.0868 -0.16051,0.1651 -0.24518,0.24801 -0.1905,0.18344 -0.39723,0.35454 -0.61207,0.51293 -0.12135,0.0885 -0.24377,0.17181 -0.36936,0.24942 -0.22719,0.14217 -0.46002,0.27058 -0.70203,0.381 -0.0924,0.043 -0.18697,0.0832 -0.28469,0.11994 -0.17251,0.0699 -0.35313,0.133 -0.53516,0.18521 -0.004,0.004 -0.009,0.005 -0.0113,0.004 -0.18309,0.0568 -0.375,0.10125 -0.56444,0.13688 -0.14711,0.0282 -0.29775,0.0508 -0.45015,0.0706 -0.17674,0.0194 -0.35137,0.0321 -0.52917,0.0388 -0.21413,0.005 -0.42615,0.001 -0.64311,-0.0162 -0.18874,-0.0141 -0.375,-0.037 -0.55633,-0.066 -0.94615,-0.15734 -1.81539,-0.53058 -2.55587,-1.06222 -0.003,10e-4 -0.003,10e-4 -0.003,10e-4 -0.46919,-0.33866 -0.8897,-0.73871 -1.24919,-1.19168 -0.26952,-0.34361 -0.50623,-0.71367 -0.69708,-1.1116 -0.25683,-0.52035 -0.43921,-1.08197 -0.53587,-1.67111 -0.012,-0.0505 -0.0205,-0.10301 -0.0268,-0.15416 -0.007,-0.0416 -0.0124,-0.0808 -0.0145,-0.12101 -0.006,-0.0289 -0.006,-0.0589 -0.0124,-0.0878 -0.0173,-0.16863 -0.0289,-0.33796 -0.031,-0.50694 -0.006,-0.19509 -10e-4,-0.38665 0.0113,-0.58596 l 7e-4,-0.0268 c 0.0141,-0.18097 0.0378,-0.36159 0.0656,-0.53869 0.0201,-0.12029 0.042,-0.23953 0.0684,-0.35736 0.18979,-0.84243 0.54857,-1.60937 1.03999,-2.27612 0.0988,-0.13512 0.20143,-0.2667 0.31468,-0.39229 0.0564,-0.0695 0.11959,-0.13864 0.18556,-0.20744 0.0981,-0.1083 0.20355,-0.20919 0.31079,-0.30691 0.0377,-0.0353 0.0783,-0.0702 0.11572,-0.10266 0.0272,-0.024 0.0536,-0.0455 0.0794,-0.0646 0.0536,-0.0455 0.10724,-0.0907 0.16686,-0.13159 0.1397,-0.115 0.28858,-0.21978 0.44062,-0.31855 0.40605,-0.26494 0.84491,-0.48296 1.31057,-0.64312 0.0702,-0.0279 0.14217,-0.0522 0.2159,-0.0744 0.0272,-0.008 0.0547,-0.0173 0.0836,-0.0233 0.10407,-0.0321 0.20673,-0.0596 0.31397,-0.0857 0.10407,-0.0243 0.20744,-0.0469 0.31433,-0.0635 0.21272,-0.0402 0.42898,-0.0674 0.64946,-0.0833 0.0787,-0.008 0.15875,-0.01 0.23954,-0.0148 0.2226,-0.008 0.44626,-0.002 0.67098,0.0152 0.26353,0.0201 0.52458,0.0561 0.77611,0.10689 0.57926,0.11818 1.12431,0.31644 1.62843,0.58173 0.4512,0.23636 0.86642,0.52599 1.23719,0.8636 0.12029,0.10654 0.23847,0.21978 0.35101,0.33619 0.27058,0.2847 0.51576,0.59585 0.72884,0.92922 l -7.1e-4,0.002 c 0.15628,0.24624 0.29916,0.50376 0.41699,0.77046 0.0504,0.10937 0.0967,0.22261 0.14146,0.33338 0.12383,0.32773 0.22613,0.66851 0.29316,1.01882 0.0208,0.10054 0.0395,0.20038 0.0522,0.30304 l -7e-4,0.002 c 0.0183,0.12418 0.0335,0.25047 0.0406,0.37888 l 0.002,7.1e-4 c 0.002,0.0328 0.004,0.0677 0.005,0.10301 0.002,0.0307 0.005,0.0635 0.005,0.0956 0.01,0.12912 0.01,0.25788 0.009,0.38629 0.001,0.12418 -0.007,0.24765 -0.0159,0.37112 -0.002,0.0388 -0.007,0.0773 -0.012,0.11783 l -0.002,0.0388 c -0.004,0.0434 -0.009,0.084 -0.0138,0.12453 -0.005,0.0229 -0.005,0.048 -0.01,0.0709 -0.0116,0.0857 -0.0247,0.16827 -0.0381,0.25082 -0.0307,0.17075 -0.0667,0.34325 -0.11324,0.50906 -0.0568,0.23248 -0.133,0.46108 -0.21802,0.6798"
         style="fill:#7ed5ed;fill-opacity:1;fill-rule:nonzero;stroke:none;stroke-width:0.0352778"
         id="path566" />
      <path
         d="m 310.34146,210.24305 c -0.6223,-0.46779 -1.70744,-1.26189 -2.13007,-1.42275 -0.60996,-0.2286 -1.40512,-0.99237 -1.9932,-1.68946 -0.52458,-0.623 -3.22544,-2.14348 -3.39337,-3.60609 0.10407,-0.0243 0.20744,-0.0469 0.31433,-0.0635 0.21272,-0.0402 0.42898,-0.0674 0.64946,-0.0833 0.0787,-0.008 0.15875,-0.01 0.23954,-0.0148 0,0 0.99272,1.29293 1.61325,1.62877 0.62018,0.33831 1.38254,1.00789 1.80234,1.71415 0.29916,0.50376 1.95298,1.42734 2.88008,1.9177 l -7e-4,0.002 c 0.0183,0.12418 0.0335,0.25047 0.0406,0.37888 l 0.002,7.1e-4 c 0.002,0.0328 0.004,0.0677 0.005,0.10301 0.002,0.0307 0.005,0.0635 0.005,0.0956 0.01,0.12912 0.01,0.25788 0.009,0.38629 10e-4,0.12418 -0.007,0.24765 -0.0159,0.37112 -0.002,0.0388 -0.007,0.0773 -0.012,0.11783 l -0.002,0.0388 c -0.004,0.0434 -0.009,0.084 -0.0138,0.12453"
         style="fill:#94dcf0;fill-opacity:1;fill-rule:nonzero;stroke:none;stroke-width:0.0352778"
         id="path568" />
      <path
         d="m 303.22699,215.56541 c -0.94615,-0.15734 -1.81539,-0.53058 -2.55587,-1.06222 -0.003,0.001 -0.003,0.001 -0.003,0.001 -0.46919,-0.33866 -0.8897,-0.73871 -1.24919,-1.19168 -0.26952,-0.34361 -0.50623,-0.71367 -0.69708,-1.1116 -0.25683,-0.52035 -0.43921,-1.08197 -0.53587,-1.67111 0.84949,0.15699 2.01542,0.49142 2.42428,1.19204 0.54364,0.93591 1.66759,2.8261 2.61691,3.84316"
         style="fill:#94dcf0;fill-opacity:1;fill-rule:nonzero;stroke:none;stroke-width:0.0352778"
         id="path570" />
      <path
         d="m 309.41577,212.8215 c -0.0402,-0.0466 -0.0815,-0.0892 -0.12241,-0.13194 -0.21132,-0.22154 -0.43568,-0.42227 -0.66605,-0.61489 -0.45579,-0.38841 -0.93486,-0.7426 -1.42134,-1.08126 -0.48789,-0.33444 -0.99342,-0.635 -1.49084,-0.94756 -0.49495,-0.31927 -0.99977,-0.61419 -1.48625,-0.93592 -0.48436,-0.32315 -0.93486,-0.71297 -1.2693,-1.19028 -0.34219,-0.4773 -0.5207,-1.03505 -0.67098,-1.57938 l -0.0596,-0.20638 c -0.0116,-0.0356 -0.0173,-0.0646 -0.0332,-0.10901 l -0.0589,-0.13723 c -0.0854,-0.17991 -0.2025,-0.31291 -0.32315,-0.43427 -0.24588,-0.23706 -0.51929,-0.4011 -0.79445,-0.54327 -0.18274,-0.0885 -0.3676,-0.1711 -0.55916,-0.24025 -0.0596,0.0409 -0.11324,0.0861 -0.16686,0.13159 -0.0258,0.0191 -0.0522,0.0406 -0.0794,0.0646 -0.0374,0.0325 -0.078,0.0674 -0.11572,0.10266 0.2212,0.13264 0.43533,0.27093 0.641,0.41416 0.22966,0.16016 0.4512,0.33267 0.62442,0.51505 0.0829,0.0924 0.16051,0.18592 0.20496,0.27411 l 0.0325,0.0621 c 0.012,0.0257 0.0286,0.0681 0.0427,0.10231 0.0279,0.0702 0.0579,0.14146 0.0903,0.21096 0.25753,0.56726 0.66146,1.05163 1.04352,1.5113 0.38382,0.46284 0.78564,0.90699 1.20121,1.34761 0.41628,0.44344 0.8763,0.83573 1.35537,1.18992 0.47519,0.35983 0.95497,0.71155 1.45309,1.0294 0.5006,0.31609 1.00965,0.6149 1.52012,0.907 l 0.75918,0.44062 c 0.0582,0.0356 0.11677,0.0709 0.17286,0.10548 l 0.17639,-0.25718"
         style="fill:#94dcf0;fill-opacity:1;fill-rule:nonzero;stroke:none;stroke-width:0.0352778"
         id="path572" />
      <path
         d="m 295.50045,201.33894 c -0.003,0.043 -0.006,0.0864 -0.008,0.13194 -0.007,0.41874 0.13794,0.95391 0.42369,1.57938 0.19367,0.43427 0.46002,0.91475 0.78493,1.42593 0.42756,0.67769 0.95779,1.41076 1.58044,2.18158 0,0 0,0 0.002,0.002 0.10548,0.13194 0.21308,0.26177 0.32491,0.39617 1.11089,1.33738 2.48214,2.77213 4.0333,4.19065 0.81175,0.74295 1.6249,1.43863 2.41935,2.06975 0.29105,0.2346 0.58068,0.46037 0.86713,0.67557 0.006,0.005 0.0102,0.007 0.0166,0.012 0.41946,0.31609 0.83432,0.61666 1.23755,0.89676 0.39864,0.27552 0.79057,0.53305 1.1684,0.77012 0.20355,0.12806 0.4071,0.25188 0.60289,0.36689 0.35631,0.20884 0.69921,0.39546 1.02377,0.5588 0.14428,0.0758 0.28045,0.14287 0.41486,0.20708 1.36737,0.64135 2.43699,0.87312 3.0219,0.58667 0.0381,-0.019 0.0769,-0.0423 0.11147,-0.0681 0.0321,-0.0212 0.0642,-0.0452 0.0924,-0.0734 0.0162,-0.012 0.0303,-0.0261 0.0423,-0.0406 0.0423,-0.0445 0.0765,-0.0942 0.10689,-0.15063 0.0303,-0.0586 0.0589,-0.1196 0.0769,-0.18768 0.0483,-0.15487 0.06,-0.34114 0.0413,-0.54928 -0.0229,-0.24941 -0.0928,-0.53728 -0.20602,-0.85442 -0.0399,-0.10937 -0.084,-0.21943 -0.13335,-0.33797 -0.11818,-0.28081 -0.26953,-0.58349 -0.4438,-0.90064 -0.24377,-0.43603 -0.53305,-0.89641 -0.87277,-1.385 -0.13723,-0.19932 -0.28505,-0.40182 -0.43956,-0.60925 -0.43427,-0.58455 -0.92604,-1.19486 -1.4725,-1.8228 -0.006,0.0519 -0.0166,0.10301 -0.0247,0.15487 -0.042,0.24236 -0.0988,0.48154 -0.16863,0.71331 -0.0233,0.0833 -0.049,0.16369 -0.079,0.24413 -0.0667,0.19297 -0.14182,0.38311 -0.22931,0.5655 0.0162,0.0187 0.03,0.0349 0.0441,0.0536 0.27023,0.33973 0.50765,0.65723 0.7112,0.95532 l -0.002,-3.5e-4 c 0.14711,0.21519 0.27729,0.42051 0.38524,0.60678 0.0441,0.0797 0.0843,0.15205 0.12029,0.22436 0.10831,0.20814 0.18345,0.39406 0.22578,0.55387 0.036,0.13123 0.0469,0.24482 0.0339,0.33549 -0.003,0.0409 -0.0145,0.0748 -0.0275,0.1083 -0.0134,0.0318 -0.0307,0.0589 -0.0519,0.0811 -0.007,0.008 -0.0141,0.0166 -0.0233,0.0222 -0.0141,0.012 -0.0325,0.0236 -0.0501,0.0332 -0.0187,0.0137 -0.0413,0.0229 -0.0656,0.03 -0.34114,0.1136 -1.05198,-0.14605 -1.99602,-0.69497 -0.0938,-0.0547 -0.18944,-0.11183 -0.28963,-0.17357 -0.12453,-0.0744 -0.25082,-0.15557 -0.38382,-0.23953 -0.10795,-0.0713 -0.21766,-0.14464 -0.33161,-0.22049 -0.13864,-0.0928 -0.28363,-0.19085 -0.42616,-0.29281 -0.54116,-0.37923 -1.11936,-0.81597 -1.72473,-1.29822 -0.004,-0.002 -0.006,-0.007 -0.0102,-0.01 -0.20708,-0.16546 -0.41804,-0.33761 -0.629,-0.51435 -0.57714,-0.48013 -1.17546,-0.99872 -1.77765,-1.55011 -1.26188,-1.15535 -2.38548,-2.29799 -3.29141,-3.32422 -0.002,-0.002 -0.002,-0.002 -0.002,-0.002 -0.31644,-0.35842 -0.60643,-0.70168 -0.86678,-1.02764 -0.13511,-0.17075 -0.26387,-0.33726 -0.38241,-0.49813 -0.26493,-0.35242 -0.48824,-0.68015 -0.66004,-0.97119 -0.25153,-0.41875 -0.40393,-0.76694 -0.44309,-1.02659 -0.004,-0.0286 -0.007,-0.055 -0.0113,-0.0815 -0.01,-0.13088 0.0176,-0.23318 0.0815,-0.30445 l 0.005,-0.006 c 0.20602,-0.22577 0.76835,-0.0991 1.56845,0.3041 0.33126,0.1658 0.70026,0.37853 1.10702,0.63676 0.1785,0.1136 0.36512,0.23601 0.55527,0.36583 0.16827,-0.0963 0.33761,-0.18379 0.51505,-0.25964 0.0769,-0.0374 0.15558,-0.0709 0.23601,-0.0998 0.15275,-0.0646 0.30868,-0.12029 0.46884,-0.16933 0.12489,-0.0384 0.25118,-0.0727 0.37712,-0.10231 -1.08479,-0.78528 -2.10996,-1.4358 -3.03353,-1.93534 -0.58138,-0.31291 -1.1169,-0.56162 -1.60126,-0.7433 -1.17334,-0.44203 -2.04611,-0.49177 -2.44369,-0.0564 l -0.01,0.0102 c -0.12135,0.13864 -0.19332,0.31609 -0.2159,0.53199"
         style="fill:#94dcf0;fill-opacity:1;fill-rule:nonzero;stroke:none;stroke-width:0.0352778"
         id="path574" />
      <path
         d="m 296.82055,202.44384 c -7.1e-4,0.037 -0.001,0.0737 0.002,0.11112 0.0183,0.33832 0.16581,0.77999 0.43956,1.31128 0.17992,0.35031 0.42016,0.74647 0.71403,1.17722 0.2861,0.41698 0.6163,0.86113 0.98636,1.31939 0.13159,0.16192 0.26706,0.32667 0.40676,0.49318 1.05021,1.25024 2.3442,2.58621 3.74614,3.86927 0.67981,0.62265 1.36984,1.21955 2.05282,1.7727 0.248,0.20144 0.49212,0.39582 0.73236,0.58315 0.68651,0.53163 1.33421,0.99977 1.93922,1.40123 0.0307,0.0219 0.0642,0.042 0.0949,0.0639 0.16792,0.11218 0.33796,0.22084 0.50412,0.32456 0.29704,0.18732 0.5842,0.35666 0.84949,0.50271 0.121,0.0674 0.23389,0.12805 0.34713,0.18661 0.83926,0.43639 1.50636,0.6731 1.99284,0.70979 0.21414,0.0159 0.3937,-0.008 0.53799,-0.0684 0.0423,-0.0187 0.0787,-0.0377 0.10865,-0.0617 0.0205,-0.0116 0.0505,-0.0332 0.0762,-0.0571 0.009,-0.006 0.0254,-0.0222 0.0395,-0.0363 0.0402,-0.0427 0.0698,-0.0882 0.0931,-0.14076 0.0226,-0.0441 0.0466,-0.10089 0.0582,-0.16757 0.031,-0.12382 0.0321,-0.28257 0.002,-0.46707 -0.0346,-0.20497 -0.1083,-0.44309 -0.22083,-0.70803 -0.0388,-0.09 -0.0801,-0.18238 -0.127,-0.27905 -0.0963,-0.19649 -0.21908,-0.42051 -0.36372,-0.66428 l -0.0483,-0.0794 c -0.21907,-0.35772 -0.48154,-0.7426 -0.77964,-1.14547 -0.12241,-0.16545 -0.25329,-0.33408 -0.38841,-0.50729 -0.15698,-0.19862 -0.31997,-0.40217 -0.49177,-0.60855 -0.0233,0.0833 -0.049,0.16369 -0.079,0.24413 0.1397,0.16898 0.27305,0.33337 0.40005,0.49741 0.13476,0.17075 0.26388,0.33937 0.38417,0.50271 0.28434,0.38418 0.53517,0.75071 0.74683,1.09255 l 0.0229,0.0388 c 0.16263,0.26846 0.29915,0.51153 0.4004,0.72531 0.0476,0.0928 0.0864,0.18062 0.12347,0.26811 0.10724,0.24942 0.17568,0.47202 0.20708,0.65899 0.0258,0.15416 0.0247,0.28434 -3.5e-4,0.38488 -0.008,0.0494 -0.0261,0.0871 -0.0416,0.12312 -0.0152,0.0293 -0.0328,0.0582 -0.0586,0.0847 l -0.0233,0.0222 c -0.0162,0.0141 -0.0349,0.0279 -0.0533,0.0395 -0.025,0.0176 -0.0452,0.0293 -0.0723,0.0402 -0.39758,0.17039 -1.23084,-0.055 -2.34633,-0.63394 -0.10901,-0.0582 -0.2219,-0.11677 -0.34078,-0.18415 -0.26282,-0.1457 -0.5461,-0.31256 -0.84102,-0.49742 -0.16228,-0.1016 -0.32985,-0.20955 -0.50024,-0.32032 -0.0102,-0.007 -0.0183,-0.0123 -0.0289,-0.0194 -0.61736,-0.40887 -1.28129,-0.88724 -1.97626,-1.42593 -0.25259,-0.1972 -0.49671,-0.38947 -0.74295,-0.5902 -0.67839,-0.55068 -1.36666,-1.14547 -2.04258,-1.76353 -1.39595,-1.27812 -2.68359,-2.60703 -3.72569,-3.84775 -0.15769,-0.18592 -0.30727,-0.37077 -0.4505,-0.55139 -0.34784,-0.43427 -0.65793,-0.85126 -0.92851,-1.24743 -0.29033,-0.42157 -0.5267,-0.81138 -0.70308,-1.15464 -0.26035,-0.502 -0.399,-0.91475 -0.41522,-1.22237 -0.002,-0.0328 -10e-4,-0.0656 -10e-4,-0.096 0.004,-0.13864 0.0427,-0.25365 0.11395,-0.33514 l -0.0744,-0.0794 0.0794,0.0734 c 0.24377,-0.26635 0.89253,-0.19015 1.82563,0.21448 0.39158,0.16828 0.83114,0.39476 1.30668,0.66922 0.45403,0.26423 0.93345,0.57009 1.43369,0.9137 0.0769,-0.0374 0.15558,-0.0709 0.23601,-0.0998 -0.54575,-0.37959 -1.06645,-0.71226 -1.56033,-1.00118 -0.48366,-0.27975 -0.92957,-0.50835 -1.32962,-0.68192 -1.05516,-0.45685 -1.75084,-0.51118 -2.07257,-0.16157 l -0.007,0.008 c -0.10725,0.12277 -0.16228,0.28152 -0.16792,0.47661"
         style="fill:#61b7ca;fill-opacity:1;fill-rule:nonzero;stroke:none;stroke-width:0.0352778"
         id="path576" />
      <path
         d="m 306.60519,200.49474 c 0,0.56727 -0.46037,1.02764 -1.02764,1.02764 -0.56797,0 -1.028,-0.46037 -1.028,-1.02764 0,-0.56762 0.46003,-1.02764 1.028,-1.02764 0.56727,0 1.02764,0.46002 1.02764,1.02764"
         style="fill:#61b7ca;fill-opacity:1;fill-rule:nonzero;stroke:none;stroke-width:0.0352778"
         id="path578" />
      <path
         d="m 305.4375,199.82658 c 0,0.0586 -0.0473,0.10583 -0.10584,0.10583 -0.0586,0 -0.10583,-0.0473 -0.10583,-0.10583 0,-0.0586 0.0473,-0.10583 0.10583,-0.10583 0.0586,0 0.10584,0.0473 0.10584,0.10583"
         style="fill:#7ed5ed;fill-opacity:1;fill-rule:nonzero;stroke:none;stroke-width:0.0352778"
         id="path580" />
      <path
         d="m 305.18138,200.69371 c 0,0.11006 -0.0889,0.19932 -0.19932,0.19932 -0.10971,0 -0.19897,-0.0893 -0.19897,-0.19932 0,-0.10972 0.0893,-0.19897 0.19897,-0.19897 0.11042,0 0.19932,0.0892 0.19932,0.19897"
         style="fill:#7ed5ed;fill-opacity:1;fill-rule:nonzero;stroke:none;stroke-width:0.0352778"
         id="path582" />
      <path
         d="m 306.25912,200.93783 c 0,0.0684 -0.0554,0.12418 -0.12418,0.12418 -0.0684,0 -0.12453,-0.0557 -0.12453,-0.12418 0,-0.0688 0.0561,-0.12453 0.12453,-0.12453 0.0688,0 0.12418,0.0557 0.12418,0.12453"
         style="fill:#7ed5ed;fill-opacity:1;fill-rule:nonzero;stroke:none;stroke-width:0.0352778"
         id="path584" />
      <path
         d="m 305.84672,200.42242 c 0,0.0688 -0.0561,0.12453 -0.12453,0.12453 -0.0688,0 -0.12489,-0.0557 -0.12489,-0.12453 0,-0.0684 0.0561,-0.12453 0.12489,-0.12453 0.0684,0 0.12453,0.0561 0.12453,0.12453"
         style="fill:#7ed5ed;fill-opacity:1;fill-rule:nonzero;stroke:none;stroke-width:0.0352778"
         id="path586" />
      <path
         d="m 305.67139,201.23981 c 0,0.0868 -0.0702,0.15734 -0.15664,0.15734 -0.0868,0 -0.15698,-0.0706 -0.15698,-0.15734 0,-0.0864 0.0702,-0.15664 0.15698,-0.15664 0.0864,0 0.15664,0.0702 0.15664,0.15664"
         style="fill:#7ed5ed;fill-opacity:1;fill-rule:nonzero;stroke:none;stroke-width:0.0352778"
         id="path588" />
      <path
         d="m 306.22595,200.12291 c 0,0.0505 -0.0409,0.091 -0.091,0.091 -0.0504,0 -0.091,-0.0406 -0.091,-0.091 0,-0.0497 0.0406,-0.0907 0.091,-0.0907 0.0501,0 0.091,0.0409 0.091,0.0907"
         style="fill:#7ed5ed;fill-opacity:1;fill-rule:nonzero;stroke:none;stroke-width:0.0352778"
         id="path590" />
      <path
         d="m 299.72461,212.56785 c 0,0.56762 -0.46037,1.02765 -1.02799,1.02765 -0.56727,0 -1.02764,-0.46003 -1.02764,-1.02765 0,-0.56762 0.46037,-1.02764 1.02764,-1.02764 0.56762,0 1.02799,0.46002 1.02799,1.02764"
         style="fill:#61b7ca;fill-opacity:1;fill-rule:nonzero;stroke:none;stroke-width:0.0352778"
         id="path592" />
      <path
         d="m 298.55692,211.89969 c 0,0.0586 -0.0473,0.10584 -0.10583,0.10584 -0.0586,0 -0.10584,-0.0473 -0.10584,-0.10584 0,-0.0586 0.0473,-0.10618 0.10584,-0.10618 0.0586,0 0.10583,0.0476 0.10583,0.10618"
         style="fill:#7ed5ed;fill-opacity:1;fill-rule:nonzero;stroke:none;stroke-width:0.0352778"
         id="path594" />
      <path
         d="m 298.3008,212.76682 c 0,0.11007 -0.0892,0.19932 -0.19932,0.19932 -0.10971,0 -0.19896,-0.0892 -0.19896,-0.19932 0,-0.10971 0.0892,-0.19897 0.19896,-0.19897 0.11007,0 0.19932,0.0893 0.19932,0.19897"
         style="fill:#7ed5ed;fill-opacity:1;fill-rule:nonzero;stroke:none;stroke-width:0.0352778"
         id="path596" />
      <path
         d="m 299.37889,213.01094 c 0,0.0688 -0.0561,0.12418 -0.12453,0.12418 -0.0688,0 -0.12453,-0.0554 -0.12453,-0.12418 0,-0.0688 0.0557,-0.12453 0.12453,-0.12453 0.0684,0 0.12453,0.0557 0.12453,0.12453"
         style="fill:#7ed5ed;fill-opacity:1;fill-rule:nonzero;stroke:none;stroke-width:0.0352778"
         id="path598" />
      <path
         d="m 298.96614,212.49553 c 0,0.0688 -0.0561,0.12453 -0.12488,0.12453 -0.0684,0 -0.12418,-0.0557 -0.12418,-0.12453 0,-0.0688 0.0557,-0.12453 0.12418,-0.12453 0.0688,0 0.12488,0.0557 0.12488,0.12453"
         style="fill:#7ed5ed;fill-opacity:1;fill-rule:nonzero;stroke:none;stroke-width:0.0352778"
         id="path600" />
      <path
         d="m 298.79116,213.31292 c 0,0.0868 -0.0705,0.15699 -0.15698,0.15699 -0.0868,0 -0.15699,-0.0702 -0.15699,-0.15699 0,-0.0864 0.0702,-0.15663 0.15699,-0.15663 0.0864,0 0.15698,0.0702 0.15698,0.15663"
         style="fill:#7ed5ed;fill-opacity:1;fill-rule:nonzero;stroke:none;stroke-width:0.0352778"
         id="path602" />
      <path
         d="m 299.34538,212.19638 c 0,0.0501 -0.0406,0.091 -0.091,0.091 -0.0505,0 -0.091,-0.0409 -0.091,-0.091 0,-0.0505 0.0406,-0.091 0.091,-0.091 0.0504,0 0.091,0.0406 0.091,0.091"
         style="fill:#7ed5ed;fill-opacity:1;fill-rule:nonzero;stroke:none;stroke-width:0.0352778"
         id="path604" />
      <path
         d="m 308.19022,218.10576 c 0,0.56727 -0.46002,1.02764 -1.02764,1.02764 -0.56727,0 -1.02764,-0.46037 -1.02764,-1.02764 0,-0.56762 0.46037,-1.028 1.02764,-1.028 0.56762,0 1.02764,0.46038 1.02764,1.028"
         style="fill:#e0e1e0;fill-opacity:1;fill-rule:nonzero;stroke:none;stroke-width:0.0352778"
         id="path606" />
      <path
         d="m 307.02288,217.43725 c 0,0.0586 -0.0473,0.10618 -0.10583,0.10618 -0.0586,0 -0.10619,-0.0476 -0.10619,-0.10618 0,-0.0586 0.0476,-0.10584 0.10619,-0.10584 0.0586,0 0.10583,0.0473 0.10583,0.10584"
         style="fill:#aeb3b4;fill-opacity:1;fill-rule:nonzero;stroke:none;stroke-width:0.0352778"
         id="path608" />
      <path
         d="m 306.76676,218.30473 c 0,0.11006 -0.0892,0.19896 -0.19932,0.19896 -0.10971,0 -0.19896,-0.0889 -0.19896,-0.19896 0,-0.11007 0.0893,-0.19897 0.19896,-0.19897 0.11007,0 0.19932,0.0889 0.19932,0.19897"
         style="fill:#aeb3b4;fill-opacity:1;fill-rule:nonzero;stroke:none;stroke-width:0.0352778"
         id="path610" />
      <path
         d="m 307.84485,218.5485 c 0,0.0688 -0.0561,0.12453 -0.12453,0.12453 -0.0688,0 -0.12453,-0.0557 -0.12453,-0.12453 0,-0.0688 0.0557,-0.12454 0.12453,-0.12454 0.0684,0 0.12453,0.0557 0.12453,0.12454"
         style="fill:#aeb3b4;fill-opacity:1;fill-rule:nonzero;stroke:none;stroke-width:0.0352778"
         id="path612" />
      <path
         d="m 307.43175,218.03344 c 0,0.0684 -0.0557,0.12418 -0.12453,0.12418 -0.0684,0 -0.12418,-0.0557 -0.12418,-0.12418 0,-0.0688 0.0557,-0.12453 0.12418,-0.12453 0.0688,0 0.12453,0.0557 0.12453,0.12453"
         style="fill:#aeb3b4;fill-opacity:1;fill-rule:nonzero;stroke:none;stroke-width:0.0352778"
         id="path614" />
      <path
         d="m 307.25712,218.85083 c 0,0.0864 -0.0705,0.15698 -0.15734,0.15698 -0.0864,0 -0.15663,-0.0705 -0.15663,-0.15698 0,-0.0868 0.0702,-0.15699 0.15663,-0.15699 0.0868,0 0.15734,0.0702 0.15734,0.15699"
         style="fill:#aeb3b4;fill-opacity:1;fill-rule:nonzero;stroke:none;stroke-width:0.0352778"
         id="path616" />
      <path
         d="m 307.81134,217.73393 c 0,0.0505 -0.0406,0.091 -0.091,0.091 -0.0505,0 -0.091,-0.0406 -0.091,-0.091 0,-0.0501 0.0406,-0.091 0.091,-0.091 0.0505,0 0.091,0.0409 0.091,0.091"
         style="fill:#aeb3b4;fill-opacity:1;fill-rule:nonzero;stroke:none;stroke-width:0.0352778"
         id="path618" />
      <path
         d="m 297.63546,209.35228 c 0,0.30798 -0.24976,0.55775 -0.55774,0.55775 -0.30797,0 -0.55739,-0.24977 -0.55739,-0.55775 0,-0.30797 0.24942,-0.55738 0.55739,-0.55738 0.30798,0 0.55774,0.24941 0.55774,0.55738"
         style="fill:#e0e1e0;fill-opacity:1;fill-rule:nonzero;stroke:none;stroke-width:0.0352778"
         id="path620" />
      <path
         d="m 297.00187,208.98998 c 0,0.0317 -0.0254,0.0575 -0.0575,0.0575 -0.0317,0 -0.0571,-0.0258 -0.0571,-0.0575 0,-0.0318 0.0254,-0.0575 0.0571,-0.0575 0.0321,0 0.0575,0.0257 0.0575,0.0575"
         style="fill:#aeb3b4;fill-opacity:1;fill-rule:nonzero;stroke:none;stroke-width:0.0352778"
         id="path622" />
      <path
         d="m 296.86323,209.46059 c 0,0.0596 -0.0487,0.1083 -0.1083,0.1083 -0.0596,0 -0.10795,-0.0487 -0.10795,-0.1083 0,-0.0596 0.0483,-0.10831 0.10795,-0.10831 0.0596,0 0.1083,0.0487 0.1083,0.10831"
         style="fill:#aeb3b4;fill-opacity:1;fill-rule:nonzero;stroke:none;stroke-width:0.0352778"
         id="path624" />
      <path
         d="m 297.44814,209.59288 c 0,0.0374 -0.0303,0.0674 -0.0677,0.0674 -0.0374,0 -0.0674,-0.03 -0.0674,-0.0674 0,-0.037 0.03,-0.0674 0.0674,-0.0674 0.0374,0 0.0677,0.0303 0.0677,0.0674"
         style="fill:#aeb3b4;fill-opacity:1;fill-rule:nonzero;stroke:none;stroke-width:0.0352778"
         id="path626" />
      <path
         d="m 297.22377,209.31348 c 0,0.0374 -0.03,0.0674 -0.0674,0.0674 -0.0374,0 -0.0677,-0.03 -0.0677,-0.0674 0,-0.0374 0.0303,-0.0674 0.0677,-0.0674 0.0374,0 0.0674,0.03 0.0674,0.0674"
         style="fill:#aeb3b4;fill-opacity:1;fill-rule:nonzero;stroke:none;stroke-width:0.0352778"
         id="path628" />
      <path
         d="m 297.12923,209.75692 c 0,0.0473 -0.0385,0.085 -0.0854,0.085 -0.0469,0 -0.085,-0.0377 -0.085,-0.085 0,-0.0469 0.0381,-0.085 0.085,-0.085 0.0469,0 0.0854,0.0381 0.0854,0.085"
         style="fill:#aeb3b4;fill-opacity:1;fill-rule:nonzero;stroke:none;stroke-width:0.0352778"
         id="path630" />
      <path
         d="m 297.42979,209.15085 c 0,0.0272 -0.0219,0.0494 -0.0494,0.0494 -0.0275,0 -0.0494,-0.0222 -0.0494,-0.0494 0,-0.0272 0.0219,-0.049 0.0494,-0.049 0.0275,0 0.0494,0.0219 0.0494,0.049"
         style="fill:#aeb3b4;fill-opacity:1;fill-rule:nonzero;stroke:none;stroke-width:0.0352778"
         id="path632" />
      <path
         d="m 308.96422,205.33873 c 0,0.42757 -0.34643,0.77435 -0.774,0.77435 -0.42757,0 -0.77399,-0.34678 -0.77399,-0.77435 0,-0.42721 0.34642,-0.77399 0.77399,-0.77399 0.42757,0 0.774,0.34678 0.774,0.77399"
         style="fill:#e0e1e0;fill-opacity:1;fill-rule:nonzero;stroke:none;stroke-width:0.0352778"
         id="path634" />
      <path
         d="m 308.08509,204.83567 c 0,0.0441 -0.0356,0.0797 -0.0797,0.0797 -0.0441,0 -0.0801,-0.0356 -0.0801,-0.0797 0,-0.0441 0.036,-0.0797 0.0801,-0.0797 0.0441,0 0.0797,0.0356 0.0797,0.0797"
         style="fill:#aeb3b4;fill-opacity:1;fill-rule:nonzero;stroke:none;stroke-width:0.0352778"
         id="path636" />
      <path
         d="m 307.89212,205.48901 c 0,0.0829 -0.067,0.14994 -0.14993,0.14994 -0.0829,0 -0.14993,-0.067 -0.14993,-0.14994 0,-0.0829 0.067,-0.15028 0.14993,-0.15028 0.0829,0 0.14993,0.0674 0.14993,0.15028"
         style="fill:#aeb3b4;fill-opacity:1;fill-rule:nonzero;stroke:none;stroke-width:0.0352778"
         id="path638" />
      <path
         d="m 308.70422,205.67281 c 0,0.0515 -0.042,0.0935 -0.0938,0.0935 -0.0519,0 -0.0938,-0.042 -0.0938,-0.0935 0,-0.0519 0.042,-0.0938 0.0938,-0.0938 0.0519,0 0.0938,0.042 0.0938,0.0938"
         style="fill:#aeb3b4;fill-opacity:1;fill-rule:nonzero;stroke:none;stroke-width:0.0352778"
         id="path640" />
      <path
         d="m 308.39307,205.2844 c 0,0.0519 -0.042,0.0938 -0.0935,0.0938 -0.0522,0 -0.0938,-0.042 -0.0938,-0.0938 0,-0.0515 0.0416,-0.0935 0.0938,-0.0935 0.0515,0 0.0935,0.042 0.0935,0.0935"
         style="fill:#aeb3b4;fill-opacity:1;fill-rule:nonzero;stroke:none;stroke-width:0.0352778"
         id="path642" />
      <path
         d="m 308.26148,205.90035 c 0,0.0653 -0.0529,0.11818 -0.11853,0.11818 -0.0649,0 -0.11818,-0.0529 -0.11818,-0.11818 0,-0.0653 0.0533,-0.11853 0.11818,-0.11853 0.0656,0 0.11853,0.0533 0.11853,0.11853"
         style="fill:#aeb3b4;fill-opacity:1;fill-rule:nonzero;stroke:none;stroke-width:0.0352778"
         id="path644" />
      <path
         d="m 308.67882,205.05933 c 0,0.0378 -0.0307,0.0684 -0.0684,0.0684 -0.0378,0 -0.0684,-0.0307 -0.0684,-0.0684 0,-0.0381 0.0307,-0.0688 0.0684,-0.0688 0.0377,0 0.0684,0.0307 0.0684,0.0688"
         style="fill:#aeb3b4;fill-opacity:1;fill-rule:nonzero;stroke:none;stroke-width:0.0352778"
         id="path646" />
    </g>
  </g>
</svg>
