<?xml version="1.0" encoding="UTF-8" standalone="no"?>
<!-- Created with Inkscape (http://www.inkscape.org/) -->

<svg
   width="17.965673mm"
   height="10.797469mm"
   viewBox="0 0 17.965673 10.797469"
   version="1.1"
   id="svg6098"
   inkscape:version="1.1.1 (1:1.1+202109281949+c3084ef5ed)"
   sodipodi:docname="venus.svg"
   xmlns:inkscape="http://www.inkscape.org/namespaces/inkscape"
   xmlns:sodipodi="http://sodipodi.sourceforge.net/DTD/sodipodi-0.dtd"
   xmlns="http://www.w3.org/2000/svg"
   xmlns:svg="http://www.w3.org/2000/svg">
  <sodipodi:namedview
     id="namedview6100"
     pagecolor="#000000"
     bordercolor="#666666"
     borderopacity="1.0"
     inkscape:pageshadow="2"
     inkscape:pageopacity="1"
     inkscape:pagecheckerboard="0"
     inkscape:document-units="mm"
     showgrid="false"
     fit-margin-top="0"
     fit-margin-left="0"
     fit-margin-right="0"
     fit-margin-bottom="0"
     inkscape:zoom="8.1235538"
     inkscape:cx="-5.5394475"
     inkscape:cy="12.432982"
     inkscape:window-width="2560"
     inkscape:window-height="1000"
     inkscape:window-x="1200"
     inkscape:window-y="1080"
     inkscape:window-maximized="1"
     inkscape:current-layer="layer1" />
  <defs
     id="defs6095" />
  <g
     inkscape:label="Layer 1"
     inkscape:groupmode="layer"
     id="layer1"
     transform="translate(-184.84099,-162.63104)">
    <g
       id="g6065"
       transform="matrix(0.35277777,0,0,-0.35277777,125.06714,255.29941)">
      <g
         id="g1022">
        <text
           transform="matrix(1,0,0,-1,169.414,247.661)"
           style="font-variant:normal;font-weight:600;font-size:4.84973px;font-family:Montserrat;-inkscape-font-specification:Montserrat-SemiBold;writing-mode:lr-tb;fill:#ffffff;fill-opacity:1;fill-rule:nonzero;stroke:none"
           id="text1026"><tspan
             x="0 3.4624062 6.7117252 10.640006 14.466443"
             y="0"
             sodipodi:role="line"
             id="tspan1024">VENUS</tspan></text>
      </g>
      <path
         d="m 205.061,232.075 h -0.071 c -0.92,0.005 -1.824,0.09 -2.701,0.251 -0.175,0.038 -0.346,0.071 -0.516,0.109 -1.587,0.346 -3.075,0.938 -4.435,1.734 -0.948,0.549 -1.824,1.204 -2.625,1.943 -1.057,0.971 -1.98,2.084 -2.729,3.321 -0.706,1.156 -1.26,2.416 -1.644,3.752 -0.379,1.332 -0.583,2.739 -0.583,4.194 0,1.217 0.143,2.401 0.413,3.529 0.037,0.162 0.08,0.323 0.123,0.479 0.123,0.474 0.27,0.933 0.445,1.383 0,0.005 0,0.014 0.005,0.024 0.502,1.313 1.165,2.54 1.994,3.653 0.214,0.294 0.446,0.587 0.687,0.872 0.432,0.507 0.896,0.985 1.394,1.426 0.212,0.194 0.431,0.379 0.653,0.559 2.256,1.815 5.037,3.009 8.078,3.307 0.209,0.019 0.417,0.033 0.635,0.043 0.19,0.014 0.389,0.023 0.583,0.028 h 0.294 c 0.313,0 0.621,-0.005 0.924,-0.028 0.322,-0.019 0.644,-0.043 0.961,-0.085 0.74,-0.091 1.469,-0.237 2.175,-0.432 0.858,-0.232 1.687,-0.545 2.473,-0.914 0.275,-0.133 0.541,-0.265 0.806,-0.412 0.64,-0.351 1.255,-0.749 1.838,-1.18 h 0.005 c 0.725,-0.545 1.398,-1.151 2.009,-1.815 0.057,-0.057 0.109,-0.114 0.161,-0.17 0.27,-0.299 0.526,-0.612 0.777,-0.929 0.763,-0.99 1.407,-2.075 1.91,-3.236 0.056,-0.128 0.109,-0.256 0.156,-0.384 0.275,-0.658 0.498,-1.345 0.668,-2.051 0.142,-0.559 0.247,-1.133 0.322,-1.715 0.081,-0.64 0.118,-1.294 0.118,-1.952 0,-0.389 -0.014,-0.773 -0.047,-1.152 -0.109,-1.558 -0.455,-3.052 -1.009,-4.444 -0.379,-0.962 -0.853,-1.881 -1.407,-2.734 -0.597,-0.919 -1.289,-1.767 -2.061,-2.535 -0.811,-0.805 -1.706,-1.516 -2.682,-2.118 -2.345,-1.469 -5.122,-2.321 -8.097,-2.321"
         style="fill:#c2a18a;fill-opacity:1;fill-rule:nonzero;stroke:none;stroke-width:0.1"
         id="path1030" />
      <path
         d="m 213.035,250.055 c -2.051,-0.08 -2.213,0.593 -2.568,-0.118 -0.356,-0.711 -1.815,0.038 -2.682,-0.118 -0.871,-0.157 0.038,-0.356 -0.042,-0.711 -0.076,-0.355 -5.923,0.791 -5.842,1.54 0.08,0.748 -1.739,0.511 -1.659,0.985 0.081,0.474 -3.515,0.398 -3.553,0.872 -0.038,0.474 2.407,0.867 3.435,1.142 1.028,0.279 3.634,2.013 5.529,3.08 1.895,1.066 7.42,0.355 8.604,0.279 0.588,-0.038 1.365,0.379 1.995,0.81 0.057,-0.057 0.109,-0.114 0.161,-0.17 0.27,-0.299 0.526,-0.612 0.777,-0.929 0.763,-0.99 1.407,-2.075 1.91,-3.236 0.056,-0.128 0.109,-0.256 0.156,-0.384 -1.232,0.37 -3.34,1.114 -4.165,1.777 -1.175,0.947 -3.634,0.237 -3.44,-0.753 0.199,-0.986 2.886,-1.185 4.738,-1.223 1.858,-0.037 1.82,-1.104 2.606,-1.459 0.365,-0.166 0.692,-0.299 0.929,-0.393 0.142,-0.559 0.247,-1.133 0.322,-1.715 0.081,-0.64 0.118,-1.294 0.118,-1.952 0,-0.389 -0.014,-0.773 -0.047,-1.152 -1.72,-0.033 -2.71,2.454 -3.492,3.553 -0.791,1.104 -1.738,0.356 -3.79,0.275"
         style="fill:#ab8664;fill-opacity:1;fill-rule:nonzero;stroke:none;stroke-width:0.1"
         id="path1032" />
      <path
         d="m 205.061,232.075 h -0.071 c -0.92,0.005 -1.824,0.09 -2.701,0.251 -0.175,0.038 -0.346,0.071 -0.516,0.109 -1.587,0.346 -3.075,0.938 -4.435,1.734 -0.948,0.549 -1.824,1.204 -2.625,1.943 -1.057,0.971 -1.98,2.084 -2.729,3.321 -0.706,1.156 -1.26,2.416 -1.644,3.752 -0.379,1.332 -0.583,2.739 -0.583,4.194 0,1.217 0.143,2.401 0.413,3.529 1.34,-1.582 2.639,-7.728 3.714,-7.761 1.184,-0.042 2.53,-4.425 2.805,-4.382 0.275,0.037 2.094,-1.028 4.065,-1.621 1.976,-0.592 1.701,0.356 2.578,0.356 0.881,0 0.857,-0.986 1.374,-1.104 0.511,-0.119 -0.398,0.431 0.866,0.748 1.266,0.318 1.223,-0.392 1.54,-0.355 0.318,0.038 -0.436,2.843 0,2.962 0.436,0.118 1.303,-2.17 2.052,-2.052 0.753,0.118 0.554,0.431 1.583,0.668 1.023,0.237 1.658,5.056 1.734,5.567 0.08,0.517 -0.55,2.175 0,2.53 0.554,0.355 2.056,-1.701 2.056,-1.701 0,0 1.184,0.829 2.369,0 0.815,-0.573 1.071,-3.369 0.995,-5.714 -0.597,-0.919 -1.289,-1.767 -2.061,-2.535 -0.811,-0.805 -1.706,-1.516 -2.682,-2.118 -2.345,-1.469 -5.122,-2.321 -8.097,-2.321"
         style="fill:#ab8664;fill-opacity:1;fill-rule:nonzero;stroke:none;stroke-width:0.1"
         id="path1034" />
      <path
         d="m 203.885,240.965 c 0,-1.009 -1.214,-2.074 -2.399,-0.563 -1.185,1.51 -5.626,6.219 -6.041,6.455 -0.415,0.237 -0.088,0.839 0.889,0.524 0.977,-0.317 3.908,-0.784 3.701,-1.158 -0.207,-0.373 -0.888,-0.906 0.148,-2.178 1.036,-1.274 2.132,-1.896 2.073,-2.34 -0.059,-0.445 1.629,-0.089 1.629,-0.74"
         style="fill:#ab8664;fill-opacity:1;fill-rule:nonzero;stroke:none;stroke-width:0.1"
         id="path1036" />
    </g>
  </g>
</svg>
